<?xml version="1.0" encoding="us-ascii" standalone="no"?><svg xmlns="http://www.w3.org/2000/svg" xmlns:xlink="http://www.w3.org/1999/xlink" contentStyleType="text/css" height="570px" preserveAspectRatio="none" style="width:264px;height:570px;background:#FFFFFF;" version="1.1" viewBox="0 0 264 570" width="264px" zoomAndPan="magnify"><defs/><g><!--cluster PRO Informationsmodell--><g id="cluster_PRO Informationsmodell"><path d="M13.5,11 L210.5,11 A3.75,3.75 0 0 1 213,13.5 L220,34.0146 L254.5,34.0146 A2.5,2.5 0 0 1 257,36.5146 L257,560.73 A2.5,2.5 0 0 1 254.5,563.23 L13.5,563.23 A2.5,2.5 0 0 1 11,560.73 L11,13.5 A2.5,2.5 0 0 1 13.5,11 " fill="#FFFFFF" style="stroke:#000000;stroke-width:1.0;"/><line style="stroke:#000000;stroke-width:1.0;" x1="11" x2="220" y1="34.0146" y2="34.0146"/><text fill="#000000" font-family="Verdana" font-size="14" font-weight="bold" lengthAdjust="spacing" textLength="196" x="15" y="27.0752">PRO Informationsmodell</text></g><g id="elem_FV"><rect fill="#FFFFFF" height="80.0586" style="stroke:#000000;stroke-width:1.0;" width="214" x="27" y="47"/><text fill="#000000" font-family="Verdana" font-size="14" lengthAdjust="spacing" textLength="144" x="62" y="63.0752">Fragebogen_Vorlage</text><line style="stroke:#000000;stroke-width:1.0;" x1="28" x2="240" y1="68.0146" y2="68.0146"/><text fill="#000000" font-family="Verdana" font-size="14" lengthAdjust="spacing" textLength="126" x="33" y="86.0898">Strukturdefinition</text><text fill="#000000" font-family="Verdana" font-size="14" lengthAdjust="spacing" textLength="202" x="33" y="103.1045">Fragen und Antwortoptionen</text><text fill="#000000" font-family="Verdana" font-size="14" lengthAdjust="spacing" textLength="97" x="33" y="120.1191">Versionierung</text></g><g id="elem_AF"><rect fill="#FFFFFF" height="80.0586" style="stroke:#000000;stroke-width:1.0;" width="190" x="39" y="187.05"/><text fill="#000000" font-family="Verdana" font-size="14" lengthAdjust="spacing" textLength="176" x="46" y="203.1252">Ausgef&#252;llter_Fragebogen</text><line style="stroke:#000000;stroke-width:1.0;" x1="40" x2="228" y1="208.0646" y2="208.0646"/><text fill="#000000" font-family="Verdana" font-size="14" lengthAdjust="spacing" textLength="137" x="45" y="226.1398">Patientenantworten</text><text fill="#000000" font-family="Verdana" font-size="14" lengthAdjust="spacing" textLength="142" x="45" y="243.1545">Erfassungszeitpunkt</text><text fill="#000000" font-family="Verdana" font-size="14" lengthAdjust="spacing" textLength="146" x="45" y="260.1691">Referenz zur Vorlage</text></g><g id="elem_S"><rect fill="#FFFFFF" height="80.0586" style="stroke:#000000;stroke-width:1.0;" width="138" x="65" y="327.11"/><text fill="#000000" font-family="Verdana" font-size="14" lengthAdjust="spacing" textLength="39" x="114.5" y="343.1852">Score</text><line style="stroke:#000000;stroke-width:1.0;" x1="66" x2="202" y1="348.1246" y2="348.1246"/><text fill="#000000" font-family="Verdana" font-size="14" lengthAdjust="spacing" textLength="126" x="71" y="366.1998">Berechnete Werte</text><text fill="#000000" font-family="Verdana" font-size="14" lengthAdjust="spacing" textLength="87" x="71" y="383.2145">Algorithmen</text><text fill="#000000" font-family="Verdana" font-size="14" lengthAdjust="spacing" textLength="116" x="71" y="400.2291">Interpretationen</text></g><g id="elem_D"><rect fill="#FFFFFF" height="80.0586" style="stroke:#000000;stroke-width:1.0;" width="158" x="55" y="467.17"/><text fill="#000000" font-family="Verdana" font-size="14" lengthAdjust="spacing" textLength="58" x="105" y="483.2452">Dom&#228;ne</text><line style="stroke:#000000;stroke-width:1.0;" x1="56" x2="212" y1="488.1846" y2="488.1846"/><text fill="#000000" font-family="Verdana" font-size="14" lengthAdjust="spacing" textLength="146" x="61" y="506.2598">Gesundheitsbereiche</text><text fill="#000000" font-family="Verdana" font-size="14" lengthAdjust="spacing" textLength="92" x="61" y="523.2745">Skalierungen</text><text fill="#000000" font-family="Verdana" font-size="14" lengthAdjust="spacing" textLength="100" x="61" y="540.2891">Referenzwerte</text></g><!--link FV to AF--><g id="link_FV_AF"><path codeLine="30" d="M134,127.54 C134,146.12 134,162.09 134,180.66 " fill="none" id="FV-to-AF" style="stroke:#000000;stroke-width:1.0;"/><polygon fill="#000000" points="134,186.66,138,177.66,134,181.66,130,177.66,134,186.66" style="stroke:#000000;stroke-width:1.0;"/><text fill="#000000" font-family="Verdana" font-size="13" lengthAdjust="spacing" textLength="74" x="59" y="154.1698">instanziiert</text></g><!--link AF to S--><g id="link_AF_S"><path codeLine="31" d="M134,267.59 C134,286.18 134,302.15 134,320.72 " fill="none" id="AF-to-S" style="stroke:#000000;stroke-width:1.0;"/><polygon fill="#000000" points="134,326.72,138,317.72,134,321.72,130,317.72,134,326.72" style="stroke:#000000;stroke-width:1.0;"/><text fill="#000000" font-family="Verdana" font-size="13" lengthAdjust="spacing" textLength="61" x="72" y="294.2298">generiert</text></g><!--link S to D--><g id="link_S_D"><path codeLine="32" d="M134,407.65 C134,426.23 134,442.21 134,460.78 " fill="none" id="S-to-D" style="stroke:#000000;stroke-width:1.0;"/><polygon fill="#000000" points="134,466.78,138,457.78,134,461.78,130,457.78,134,466.78" style="stroke:#000000;stroke-width:1.0;"/><text fill="#000000" font-family="Verdana" font-size="13" lengthAdjust="spacing" textLength="94" x="39" y="434.2898">zugeordnet zu</text></g><!--SRC=[PL51JiCm4Bpd5Klk_G07f40fwecgaSgnSf9DOkAiexMjYg3-XcTmwyVO90OgE5YoPtPdPjStliKUOJ1AK-8wJODYrKEXogvX6wXwiCOod5hjyOetcj2_3GYMVMkJP91wrI2ak_qpRAcst2klBRdULcXC2ky9W2rUiVIGRbXA2ziW7G-MZJnIK0usXxaA8FSSEX-umbgJdcHcU6uZa4oGaJ-9inqc4XVwWEpafP43DOASvLoPPi4rM5y-ZV78nzy8itMsYTOxIOtaaTJY4BKVkLREYQuRKViXKETdV8yrCj88Os28i_otpalBouXvjBcNhhAL5IAyeBZCO6OQozgtVJJTIWuU6BtwcVAFyDhsbmzQfDTH-WabPzLAJ5U8YoxRHJtlb5bs4-M_ivzYWAWjlx1QtKqRkGLDpYiQjVHDymesKRam8e8SuNn6ruAEeK7BbSmbr-Jy1G00]--></g></svg>