<?xml version="1.0" encoding="us-ascii" standalone="no"?><svg xmlns="http://www.w3.org/2000/svg" xmlns:xlink="http://www.w3.org/1999/xlink" contentStyleType="text/css" height="1700px" preserveAspectRatio="none" style="width:2296px;height:1700px;background:#FFFFFF;" version="1.1" viewBox="0 0 2296 1700" width="2296px" zoomAndPan="magnify"><defs/><g><!--cluster Fragebogen_Vorlage--><g id="cluster_Fragebogen_Vorlage"><path d="M8.5,1214 L157.5,1214 A3.75,3.75 0 0 1 160,1216.5 L167,1237.6094 L2286.5,1237.6094 A2.5,2.5 0 0 1 2289,1240.1094 L2289,1690.5 A2.5,2.5 0 0 1 2286.5,1693 L8.5,1693 A2.5,2.5 0 0 1 6,1690.5 L6,1216.5 A2.5,2.5 0 0 1 8.5,1214 " fill="none" style="stroke:#000000;stroke-width:1.5;"/><line style="stroke:#000000;stroke-width:1.5;" x1="6" x2="167" y1="1237.6094" y2="1237.6094"/><text fill="#000000" font-family="sans-serif" font-size="14" font-weight="bold" lengthAdjust="spacing" textLength="148" x="10" y="1230.5332">Fragebogen_Vorlage</text></g><!--cluster Ausgef?llte_Frageb?gen--><g id="cluster_Ausgef&#252;llte_Frageb&#246;gen"><path d="M36,912 L211,912 A3.75,3.75 0 0 1 213.5,914.5 L220.5,935.6094 L305,935.6094 A2.5,2.5 0 0 1 307.5,938.1094 L307.5,1187.5 A2.5,2.5 0 0 1 305,1190 L36,1190 A2.5,2.5 0 0 1 33.5,1187.5 L33.5,914.5 A2.5,2.5 0 0 1 36,912 " fill="none" style="stroke:#000000;stroke-width:1.5;"/><line style="stroke:#000000;stroke-width:1.5;" x1="33.5" x2="220.5" y1="935.6094" y2="935.6094"/><text fill="#000000" font-family="sans-serif" font-size="14" font-weight="bold" lengthAdjust="spacing" textLength="174" x="37.5" y="928.5332">Ausgef&#252;llte_Frageb&#246;gen</text></g><!--cluster Scores--><g id="cluster_Scores"><path d="M21.5,532 L71.5,532 A3.75,3.75 0 0 1 74,534.5 L81,555.6094 L1838.5,555.6094 A2.5,2.5 0 0 1 1841,558.1094 L1841,885.5 A2.5,2.5 0 0 1 1838.5,888 L21.5,888 A2.5,2.5 0 0 1 19,885.5 L19,534.5 A2.5,2.5 0 0 1 21.5,532 " fill="none" style="stroke:#000000;stroke-width:1.5;"/><line style="stroke:#000000;stroke-width:1.5;" x1="19" x2="81" y1="555.6094" y2="555.6094"/><text fill="#000000" font-family="sans-serif" font-size="14" font-weight="bold" lengthAdjust="spacing" textLength="49" x="23" y="548.5332">Scores</text></g><!--cluster Dom?ne--><g id="cluster_Dom&#228;ne"><path d="M39,6 L97,6 A3.75,3.75 0 0 1 99.5,8.5 L106.5,29.6094 L1236.5,29.6094 A2.5,2.5 0 0 1 1239,32.1094 L1239,505.5 A2.5,2.5 0 0 1 1236.5,508 L39,508 A2.5,2.5 0 0 1 36.5,505.5 L36.5,8.5 A2.5,2.5 0 0 1 39,6 " fill="none" style="stroke:#000000;stroke-width:1.5;"/><line style="stroke:#000000;stroke-width:1.5;" x1="36.5" x2="106.5" y1="29.6094" y2="29.6094"/><text fill="#000000" font-family="sans-serif" font-size="14" font-weight="bold" lengthAdjust="spacing" textLength="57" x="40.5" y="22.5332">Dom&#228;ne</text></g><g id="elem_Fragebogen"><rect fill="#F1F1F1" height="223.3125" style="stroke:#181818;stroke-width:0.5;" width="281" x="30" y="1258.5"/><text fill="#000000" font-family="sans-serif" font-size="14" lengthAdjust="spacing" textLength="78" x="131.5" y="1275.0332">Fragebogen</text><line style="stroke:#181818;stroke-width:0.5;" x1="31" x2="310" y1="1280.1094" y2="1280.1094"/><text fill="#000000" font-family="sans-serif" font-size="14" lengthAdjust="spacing" textLength="134" x="36" y="1298.6426">FragebogenID: string</text><text fill="#000000" font-family="sans-serif" font-size="14" lengthAdjust="spacing" textLength="269" x="36" y="1316.252">Fragebogen_Name_vollst&#228;ndig: i18nString</text><text fill="#000000" font-family="sans-serif" font-size="14" lengthAdjust="spacing" textLength="269" x="36" y="1333.8613">Fragebogen_Name_Abk&#252;rzung: i18nString</text><text fill="#000000" font-family="sans-serif" font-size="14" lengthAdjust="spacing" textLength="177" x="36" y="1351.4707">Fragebogen_Version: string</text><text fill="#000000" font-family="sans-serif" font-size="14" lengthAdjust="spacing" textLength="178" x="36" y="1369.0801">FragebogenID_intern: string</text><text fill="#000000" font-family="sans-serif" font-size="14" lengthAdjust="spacing" textLength="208" x="36" y="1386.6895">Fragebogen_Standard_ID: string</text><text fill="#000000" font-family="sans-serif" font-size="14" lengthAdjust="spacing" textLength="241" x="36" y="1404.2988">Fragebogen_Standard_System: string</text><text fill="#000000" font-family="sans-serif" font-size="14" lengthAdjust="spacing" textLength="243" x="36" y="1421.9082">Fragebogen_Standard_Version: string</text><text fill="#000000" font-family="sans-serif" font-size="14" lengthAdjust="spacing" textLength="92" x="36" y="1439.5176">Fragen: Frage</text><text fill="#000000" font-family="sans-serif" font-size="14" lengthAdjust="spacing" textLength="85" x="36" y="1457.127">Author: string</text><text fill="#000000" font-family="sans-serif" font-size="14" lengthAdjust="spacing" textLength="104" x="36" y="1474.7363">Copyright: string</text></g><g id="elem_Frage"><rect fill="#F1F1F1" height="188.0938" style="stroke:#181818;stroke-width:0.5;" width="237" x="504.5" y="1340"/><text fill="#000000" font-family="sans-serif" font-size="14" lengthAdjust="spacing" textLength="38" x="604" y="1356.5332">Frage</text><line style="stroke:#181818;stroke-width:0.5;" x1="505.5" x2="740.5" y1="1361.6094" y2="1361.6094"/><text fill="#000000" font-family="sans-serif" font-size="14" lengthAdjust="spacing" textLength="146" x="510.5" y="1380.1426">FragenID_intern: string</text><text fill="#000000" font-family="sans-serif" font-size="14" lengthAdjust="spacing" textLength="189" x="510.5" y="1397.752">FragenID_Standard_ID: string</text><text fill="#000000" font-family="sans-serif" font-size="14" lengthAdjust="spacing" textLength="222" x="510.5" y="1415.3613">FragenID_Standard_System: string</text><text fill="#000000" font-family="sans-serif" font-size="14" lengthAdjust="spacing" textLength="224" x="510.5" y="1432.9707">FragenID_Standard_Version: string</text><text fill="#000000" font-family="sans-serif" font-size="14" lengthAdjust="spacing" textLength="132" x="510.5" y="1450.5801">Fragetext: i18nString</text><text fill="#000000" font-family="sans-serif" font-size="14" lengthAdjust="spacing" textLength="214" x="510.5" y="1468.1895">Frage_Ausf&#252;llhinweise: i18nString</text><text fill="#000000" font-family="sans-serif" font-size="14" lengthAdjust="spacing" textLength="146" x="510.5" y="1485.7988">Anzeigemodalit&#228;t: code</text><text fill="#000000" font-family="sans-serif" font-size="14" lengthAdjust="spacing" textLength="225" x="510.5" y="1503.4082">Frage_ausgef&#252;llt_wenn: Expression</text><text fill="#000000" font-family="sans-serif" font-size="14" lengthAdjust="spacing" textLength="216" x="510.5" y="1521.0176">Antwort_Vorlage: Antwort_Vorlage</text></g><g id="elem_Antwort_Vorlage"><rect fill="#F1F1F1" height="47.2188" style="stroke:#181818;stroke-width:0.5;" width="118" x="1018" y="1491.5"/><text fill="#000000" font-family="sans-serif" font-size="14" lengthAdjust="spacing" textLength="104" x="1025" y="1508.0332">Antwort_Vorlage</text><line style="stroke:#181818;stroke-width:0.5;" x1="1019" x2="1135" y1="1513.1094" y2="1513.1094"/><text fill="#000000" font-family="sans-serif" font-size="14" lengthAdjust="spacing" textLength="105" x="1024" y="1531.6426">Antworttyp: code</text></g><g id="elem_Antwort_Auswahl"><rect fill="#F1F1F1" height="82.4375" style="stroke:#181818;stroke-width:0.5;" width="334" x="1389" y="1591"/><text fill="#000000" font-family="sans-serif" font-size="14" lengthAdjust="spacing" textLength="107" x="1502.5" y="1607.5332">Antwort_Auswahl</text><line style="stroke:#181818;stroke-width:0.5;" x1="1390" x2="1722" y1="1612.6094" y2="1612.6094"/><text fill="#000000" font-family="sans-serif" font-size="14" lengthAdjust="spacing" textLength="169" x="1395" y="1631.1426">Mehrfachauswahl: boolean</text><text fill="#000000" font-family="sans-serif" font-size="14" lengthAdjust="spacing" textLength="252" x="1395" y="1648.752">Antwort_Standard_ValueSet: Reference</text><text fill="#000000" font-family="sans-serif" font-size="14" lengthAdjust="spacing" textLength="322" x="1395" y="1666.3613">Antwort_Auswahl_Option: Antwort_Auswahl_Option</text></g><g id="elem_Antwort_String"><rect fill="#F1F1F1" height="64.8281" style="stroke:#181818;stroke-width:0.5;" width="233" x="1439.5" y="1486.5"/><text fill="#000000" font-family="sans-serif" font-size="14" lengthAdjust="spacing" textLength="92" x="1510" y="1503.0332">Antwort_String</text><line style="stroke:#181818;stroke-width:0.5;" x1="1440.5" x2="1671.5" y1="1508.1094" y2="1508.1094"/><text fill="#000000" font-family="sans-serif" font-size="14" lengthAdjust="spacing" textLength="218" x="1445.5" y="1526.6426">Antwort_String_minLength: Integer</text><text fill="#000000" font-family="sans-serif" font-size="14" lengthAdjust="spacing" textLength="221" x="1445.5" y="1544.252">Antwort_String_maxLength: Integer</text></g><g id="elem_Antwort_NumerischerWert"><rect fill="#F1F1F1" height="100.0469" style="stroke:#181818;stroke-width:0.5;" width="301" x="1405.5" y="1351"/><text fill="#000000" font-family="sans-serif" font-size="14" lengthAdjust="spacing" textLength="164" x="1474" y="1367.5332">Antwort_NumerischerWert</text><line style="stroke:#181818;stroke-width:0.5;" x1="1406.5" x2="1705.5" y1="1372.6094" y2="1372.6094"/><text fill="#000000" font-family="sans-serif" font-size="14" lengthAdjust="spacing" textLength="282" x="1411.5" y="1391.1426">Antwort_NumerischerWert_kleinster: Number</text><text fill="#000000" font-family="sans-serif" font-size="14" lengthAdjust="spacing" textLength="289" x="1411.5" y="1408.752">Antwort_NumerischerWert_groesster: Number</text><text fill="#000000" font-family="sans-serif" font-size="14" lengthAdjust="spacing" textLength="254" x="1411.5" y="1426.3613">Antwort_NumerischerWert_Einheit: code</text><text fill="#000000" font-family="sans-serif" font-size="14" lengthAdjust="spacing" textLength="289" x="1411.5" y="1443.9707">Antwort_NumerischerWert_Praezision: Integer</text></g><g id="elem_Antwort_Datum"><rect fill="#F1F1F1" height="64.8281" style="stroke:#181818;stroke-width:0.5;" width="172" x="1470" y="1250.5"/><text fill="#000000" font-family="sans-serif" font-size="14" lengthAdjust="spacing" textLength="96" x="1508" y="1267.0332">Antwort_Datum</text><line style="stroke:#181818;stroke-width:0.5;" x1="1471" x2="1641" y1="1272.1094" y2="1272.1094"/><text fill="#000000" font-family="sans-serif" font-size="14" lengthAdjust="spacing" textLength="99" x="1476" y="1290.6426">minDatum: date</text><text fill="#000000" font-family="sans-serif" font-size="14" lengthAdjust="spacing" textLength="160" x="1476" y="1308.252">Datumsgenauigkeit: code</text></g><g id="elem_Antwort_Uhrzeit"><rect fill="#F1F1F1" height="37.6094" style="stroke:#181818;stroke-width:0.5;" width="112" x="1021" y="1574"/><text fill="#000000" font-family="sans-serif" font-size="14" lengthAdjust="spacing" textLength="98" x="1028" y="1590.5332">Antwort_Uhrzeit</text><line style="stroke:#181818;stroke-width:0.5;" x1="1022" x2="1132" y1="1595.6094" y2="1595.6094"/></g><g id="elem_Antwort_Auswahl_Option"><rect fill="#F1F1F1" height="135.2656" style="stroke:#181818;stroke-width:0.5;" width="388" x="1885" y="1541.5"/><text fill="#000000" font-family="sans-serif" font-size="14" lengthAdjust="spacing" textLength="157" x="2000.5" y="1558.0332">Antwort_Auswahl_Option</text><line style="stroke:#181818;stroke-width:0.5;" x1="1886" x2="2272" y1="1563.1094" y2="1563.1094"/><text fill="#000000" font-family="sans-serif" font-size="14" lengthAdjust="spacing" textLength="204" x="1891" y="1581.6426">Antwort_Option_Text: i18nString</text><text fill="#000000" font-family="sans-serif" font-size="14" lengthAdjust="spacing" textLength="222" x="1891" y="1599.252">Antwort_Option_Exklusive: boolean</text><text fill="#000000" font-family="sans-serif" font-size="14" lengthAdjust="spacing" textLength="282" x="1891" y="1616.8613">Antwort_Auswahl_Option_Code_intern: code</text><text fill="#000000" font-family="sans-serif" font-size="14" lengthAdjust="spacing" textLength="304" x="1891" y="1634.4707">Antwort_Auswahl_Option_Standard_Code: code</text><text fill="#000000" font-family="sans-serif" font-size="14" lengthAdjust="spacing" textLength="320" x="1891" y="1652.0801">Antwort_Auswahl_Option_Standard_System: string</text><text fill="#000000" font-family="sans-serif" font-size="14" lengthAdjust="spacing" textLength="376" x="1891" y="1669.6895">Antwort_Auswahl_Option_Standard_System_Version: string</text></g><g id="elem_Ausgef&#252;llter_Fragebogen"><rect fill="#F1F1F1" height="117.6563" style="stroke:#181818;stroke-width:0.5;" width="226" x="57.5" y="1052.5"/><text fill="#000000" font-family="sans-serif" font-size="14" lengthAdjust="spacing" textLength="161" x="90" y="1069.0332">Ausgef&#252;llter_Fragebogen</text><line style="stroke:#181818;stroke-width:0.5;" x1="58.5" x2="282.5" y1="1074.1094" y2="1074.1094"/><text fill="#000000" font-family="sans-serif" font-size="14" lengthAdjust="spacing" textLength="164" x="63.5" y="1092.6426">Fragebogen: Fragebogen</text><text fill="#000000" font-family="sans-serif" font-size="14" lengthAdjust="spacing" textLength="146" x="63.5" y="1110.252">Erfassungsdatum: date</text><text fill="#000000" font-family="sans-serif" font-size="14" lengthAdjust="spacing" textLength="197" x="63.5" y="1127.8613">Ausfuellende_Person: identifier</text><text fill="#000000" font-family="sans-serif" font-size="14" lengthAdjust="spacing" textLength="214" x="63.5" y="1145.4707">Ausfuellende_Person_Rolle: code</text><text fill="#000000" font-family="sans-serif" font-size="14" lengthAdjust="spacing" textLength="169" x="63.5" y="1163.0801">Antworten: Antwort_erfasst</text></g><g id="elem_Antwort_erfasst"><rect fill="#F1F1F1" height="64.8281" style="stroke:#181818;stroke-width:0.5;" width="233" x="54" y="948.5"/><text fill="#000000" font-family="sans-serif" font-size="14" lengthAdjust="spacing" textLength="98" x="121.5" y="965.0332">Antwort_erfasst</text><line style="stroke:#181818;stroke-width:0.5;" x1="55" x2="286" y1="970.1094" y2="970.1094"/><text fill="#000000" font-family="sans-serif" font-size="14" lengthAdjust="spacing" textLength="146" x="60" y="988.6426">FragenID_intern: string</text><text fill="#000000" font-family="sans-serif" font-size="14" lengthAdjust="spacing" textLength="221" x="60" y="1006.252">Antwort: code, number, string, date</text></g><g id="elem_Score_Vorlage"><rect fill="#F1F1F1" height="135.2656" style="stroke:#181818;stroke-width:0.5;" width="255" x="43" y="698.5"/><text fill="#000000" font-family="sans-serif" font-size="14" lengthAdjust="spacing" textLength="94" x="123.5" y="715.0332">Score_Vorlage</text><line style="stroke:#181818;stroke-width:0.5;" x1="44" x2="297" y1="720.1094" y2="720.1094"/><text fill="#000000" font-family="sans-serif" font-size="14" lengthAdjust="spacing" textLength="150" x="49" y="738.6426">ScoreVorlagenID: string</text><text fill="#000000" font-family="sans-serif" font-size="14" lengthAdjust="spacing" textLength="145" x="49" y="756.252">ScoreName: i18nString</text><text fill="#000000" font-family="sans-serif" font-size="14" lengthAdjust="spacing" textLength="243" x="49" y="773.8613">Scoreberechnung: Score_Berechnung</text><text fill="#000000" font-family="sans-serif" font-size="14" lengthAdjust="spacing" textLength="114" x="49" y="791.4707">Dom&#228;ne: Dom&#228;ne</text><text fill="#000000" font-family="sans-serif" font-size="14" lengthAdjust="spacing" textLength="196" x="49" y="809.0801">Dom&#228;nenskala: Dom&#228;nenskala</text><text fill="#000000" font-family="sans-serif" font-size="14" lengthAdjust="spacing" textLength="206" x="49" y="826.6895">Score_Mapping: Score_Mapping</text></g><g id="elem_Score_berechnet"><rect fill="#F1F1F1" height="135.2656" style="stroke:#181818;stroke-width:0.5;" width="292" x="477" y="694.5"/><text fill="#000000" font-family="sans-serif" font-size="14" lengthAdjust="spacing" textLength="109" x="568.5" y="711.0332">Score_berechnet</text><line style="stroke:#181818;stroke-width:0.5;" x1="478" x2="768" y1="716.1094" y2="716.1094"/><text fill="#000000" font-family="sans-serif" font-size="14" lengthAdjust="spacing" textLength="93" x="483" y="734.6426">ScoreID: string</text><text fill="#000000" font-family="sans-serif" font-size="14" lengthAdjust="spacing" textLength="196" x="483" y="752.252">Score_Vorlage: Score_Vorlage</text><text fill="#000000" font-family="sans-serif" font-size="14" lengthAdjust="spacing" textLength="252" x="483" y="769.8613">Score_Berechnung: Score_Berechnung</text><text fill="#000000" font-family="sans-serif" font-size="14" lengthAdjust="spacing" textLength="159" x="483" y="787.4707">Berechnungsdatum: date</text><text fill="#000000" font-family="sans-serif" font-size="14" lengthAdjust="spacing" textLength="168" x="483" y="805.0801">Score_Interpretation: code</text><text fill="#000000" font-family="sans-serif" font-size="14" lengthAdjust="spacing" textLength="280" x="483" y="822.6895">berechneter_Scorewert: (integer/float/string)</text></g><g id="elem_Score_Berechnung"><rect fill="#F1F1F1" height="100.0469" style="stroke:#181818;stroke-width:0.5;" width="300" x="927" y="743"/><text fill="#000000" font-family="sans-serif" font-size="14" lengthAdjust="spacing" textLength="122" x="1016" y="759.5332">Score_Berechnung</text><line style="stroke:#181818;stroke-width:0.5;" x1="928" x2="1226" y1="764.6094" y2="764.6094"/><text fill="#000000" font-family="sans-serif" font-size="14" lengthAdjust="spacing" textLength="177" x="933" y="783.1426">ScoreBerechnungsID: string</text><text fill="#000000" font-family="sans-serif" font-size="14" lengthAdjust="spacing" textLength="141" x="933" y="800.752">Score_Datentyp: code</text><text fill="#000000" font-family="sans-serif" font-size="14" lengthAdjust="spacing" textLength="288" x="933" y="818.3613">Score_Berechnungs_Algorithmus: Expression</text><text fill="#000000" font-family="sans-serif" font-size="14" lengthAdjust="spacing" textLength="120" x="933" y="835.9707">Score_Quelle : URI</text></g><g id="elem_Score_Fragebogen_Score"><rect fill="#F1F1F1" height="64.8281" style="stroke:#181818;stroke-width:0.5;" width="342" x="1385" y="724.5"/><text fill="#000000" font-family="sans-serif" font-size="14" lengthAdjust="spacing" textLength="168" x="1472" y="741.0332">Score_Fragebogen_Score</text><line style="stroke:#181818;stroke-width:0.5;" x1="1386" x2="1726" y1="746.1094" y2="746.1094"/><text fill="#000000" font-family="sans-serif" font-size="14" lengthAdjust="spacing" textLength="221" x="1391" y="764.6426">Fragebogen_Vorlage: Fragebogen</text><text fill="#000000" font-family="sans-serif" font-size="14" lengthAdjust="spacing" textLength="330" x="1391" y="782.252">Ausgef&#252;llter_Fragebogen: Ausgef&#252;llter_Fragebogen</text></g><g id="elem_GMN33"><path d="M1350,646.5 L1350,689.2031 L1762,689.2031 L1762,656.5 L1752,646.5 L1350,646.5 " fill="#FEFFDD" style="stroke:#181818;stroke-width:0.5;"/><path d="M1752,646.5 L1752,656.5 L1762,656.5 L1752,646.5 " fill="#FEFFDD" style="stroke:#181818;stroke-width:1.0;"/><text fill="#000000" font-family="sans-serif" font-size="13" lengthAdjust="spacing" textLength="301" x="1356" y="664.9951">Scoreberechnung mit Input ausgef&#252;llter Fragebogen.</text><text fill="#000000" font-family="sans-serif" font-size="13" lengthAdjust="spacing" textLength="387" x="1356" y="681.3467">Definition eines Scores, der aus einem Fragebogen generiert wurde</text></g><g id="elem_Score_Itembasierter_Score"><rect fill="#F1F1F1" height="47.2188" style="stroke:#181818;stroke-width:0.5;" width="259" x="1426.5" y="824.5"/><text fill="#000000" font-family="sans-serif" font-size="14" lengthAdjust="spacing" textLength="172" x="1470" y="841.0332">Score_Itembasierter_Score</text><line style="stroke:#181818;stroke-width:0.5;" x1="1427.5" x2="1684.5" y1="846.1094" y2="846.1094"/><text fill="#000000" font-family="sans-serif" font-size="14" lengthAdjust="spacing" textLength="247" x="1432.5" y="864.6426">Ausgef&#252;llte_Antworten: Antwort_erfasst</text></g><g id="elem_GMN39"><path d="M1287,568.5 L1287,611.2031 L1825,611.2031 L1825,578.5 L1815,568.5 L1287,568.5 " fill="#FEFFDD" style="stroke:#181818;stroke-width:0.5;"/><path d="M1815,568.5 L1815,578.5 L1825,578.5 L1815,568.5 " fill="#FEFFDD" style="stroke:#181818;stroke-width:1.0;"/><text fill="#000000" font-family="sans-serif" font-size="13" lengthAdjust="spacing" textLength="259" x="1293" y="586.9951">Scoreberechnung mit Input einzelner Fragen.</text><text fill="#000000" font-family="sans-serif" font-size="13" lengthAdjust="spacing" textLength="517" x="1293" y="603.3467">Definition eines Scores, der aus mehreren Frageb&#246;gen / Itemdatenbanken generiert wurde</text></g><g id="elem_Score_Mapping"><rect fill="#F1F1F1" height="82.4375" style="stroke:#181818;stroke-width:0.5;" width="199" x="71" y="573"/><text fill="#000000" font-family="sans-serif" font-size="14" lengthAdjust="spacing" textLength="99" x="121" y="589.5332">Score_Mapping</text><line style="stroke:#181818;stroke-width:0.5;" x1="72" x2="269" y1="594.6094" y2="594.6094"/><text fill="#000000" font-family="sans-serif" font-size="14" lengthAdjust="spacing" textLength="146" x="77" y="613.1426">Source_ScoreID: string</text><text fill="#000000" font-family="sans-serif" font-size="14" lengthAdjust="spacing" textLength="143" x="77" y="630.752">Target_ScoreID: string</text><text fill="#000000" font-family="sans-serif" font-size="14" lengthAdjust="spacing" textLength="187" x="77" y="648.3613">Mapping: Scorewert_Mapping</text></g><g id="elem_Scorewert_Mapping"><rect fill="#F1F1F1" height="82.4375" style="stroke:#181818;stroke-width:0.5;" width="220" x="513" y="573"/><text fill="#000000" font-family="sans-serif" font-size="14" lengthAdjust="spacing" textLength="125" x="560.5" y="589.5332">Scorewert_Mapping</text><line style="stroke:#181818;stroke-width:0.5;" x1="514" x2="732" y1="594.6094" y2="594.6094"/><text fill="#000000" font-family="sans-serif" font-size="14" lengthAdjust="spacing" textLength="142" x="519" y="613.1426">SourceValue: Quantity</text><text fill="#000000" font-family="sans-serif" font-size="14" lengthAdjust="spacing" textLength="139" x="519" y="630.752">TargetValue: Quantity</text><text fill="#000000" font-family="sans-serif" font-size="14" lengthAdjust="spacing" textLength="208" x="519" y="648.3613">Mapping_Expression: Expression</text></g><g id="elem_Dom&#228;ne"><rect fill="#F1F1F1" height="117.6563" style="stroke:#181818;stroke-width:0.5;" width="236" x="52.5" y="356"/><text fill="#000000" font-family="sans-serif" font-size="14" lengthAdjust="spacing" textLength="53" x="144" y="372.5332">Dom&#228;ne</text><line style="stroke:#181818;stroke-width:0.5;" x1="53.5" x2="287.5" y1="377.6094" y2="377.6094"/><text fill="#000000" font-family="sans-serif" font-size="14" lengthAdjust="spacing" textLength="117" x="58.5" y="396.1426">Dom&#228;ne_ID: string</text><text fill="#000000" font-family="sans-serif" font-size="14" lengthAdjust="spacing" textLength="134" x="58.5" y="413.752">Dom&#228;ne_Code: code</text><text fill="#000000" font-family="sans-serif" font-size="14" lengthAdjust="spacing" textLength="160" x="58.5" y="431.3613">Dom&#228;ne_Titel: i18nString</text><text fill="#000000" font-family="sans-serif" font-size="14" lengthAdjust="spacing" textLength="217" x="58.5" y="448.9707">Dom&#228;ne_ParentDom&#228;ne: Dom&#228;ne</text><text fill="#000000" font-family="sans-serif" font-size="14" lengthAdjust="spacing" textLength="224" x="58.5" y="466.5801">Dom&#228;nen_Skalen: Dom&#228;nen_Skala</text></g><g id="elem_Dom&#228;ne_Skala"><rect fill="#F1F1F1" height="152.875" style="stroke:#181818;stroke-width:0.5;" width="480" x="383" y="338.5"/><text fill="#000000" font-family="sans-serif" font-size="14" lengthAdjust="spacing" textLength="96" x="575" y="355.0332">Dom&#228;ne_Skala</text><line style="stroke:#181818;stroke-width:0.5;" x1="384" x2="862" y1="360.1094" y2="360.1094"/><text fill="#000000" font-family="sans-serif" font-size="14" lengthAdjust="spacing" textLength="176" x="389" y="378.6426">Dom&#228;nen_Skalen_ID: string</text><text fill="#000000" font-family="sans-serif" font-size="14" lengthAdjust="spacing" textLength="146" x="389" y="396.252">Minimum: integer / float</text><text fill="#000000" font-family="sans-serif" font-size="14" lengthAdjust="spacing" textLength="149" x="389" y="413.8613">Maximum: integer / float</text><text fill="#000000" font-family="sans-serif" font-size="14" lengthAdjust="spacing" textLength="99" x="389" y="431.4707">Skalenart: code</text><text fill="#000000" font-family="sans-serif" font-size="14" lengthAdjust="spacing" textLength="133" x="389" y="449.0801">Skalenrichtung: code</text><text fill="#000000" font-family="sans-serif" font-size="14" lengthAdjust="spacing" textLength="468" x="389" y="466.6895">Dom&#228;nen_Skala_Score_Berechung: Dom&#228;nen_Skala_Score_Berechnung</text><text fill="#000000" font-family="sans-serif" font-size="14" lengthAdjust="spacing" textLength="229" x="389" y="484.2988">Referenzpopulation/G&#252;ltigkeit: string</text></g><g id="elem_Dom&#228;ne_Skala_Score_berechnet"><rect fill="#F1F1F1" height="135.2656" style="stroke:#181818;stroke-width:0.5;" width="472" x="387" y="46.5"/><text fill="#000000" font-family="sans-serif" font-size="14" lengthAdjust="spacing" textLength="213" x="516.5" y="63.0332">Dom&#228;ne_Skala_Score_berechnet</text><line style="stroke:#181818;stroke-width:0.5;" x1="388" x2="858" y1="68.1094" y2="68.1094"/><text fill="#000000" font-family="sans-serif" font-size="14" lengthAdjust="spacing" textLength="93" x="393" y="86.6426">ScoreID: string</text><text fill="#000000" font-family="sans-serif" font-size="14" lengthAdjust="spacing" textLength="196" x="393" y="104.252">Score_Vorlage: Score_Vorlage</text><text fill="#000000" font-family="sans-serif" font-size="14" lengthAdjust="spacing" textLength="460" x="393" y="121.8613">Dom&#228;ne_Skala_Score_Berechnung: Dom&#228;ne_Skala_Score_Berechnung</text><text fill="#000000" font-family="sans-serif" font-size="14" lengthAdjust="spacing" textLength="328" x="393" y="139.4707">Dom&#228;nenScore_Mapping: Dom&#228;nenScore_Mapping</text><text fill="#000000" font-family="sans-serif" font-size="14" lengthAdjust="spacing" textLength="159" x="393" y="157.0801">Berechnungsdatum: date</text><text fill="#000000" font-family="sans-serif" font-size="14" lengthAdjust="spacing" textLength="280" x="393" y="174.6895">berechneter_Scorewert: (integer/float/string)</text></g><g id="elem_Dom&#228;ne_Skala_Score_Berechnung"><rect fill="#F1F1F1" height="82.4375" style="stroke:#181818;stroke-width:0.5;" width="292" x="931" y="225"/><text fill="#000000" font-family="sans-serif" font-size="14" lengthAdjust="spacing" textLength="226" x="964" y="241.5332">Dom&#228;ne_Skala_Score_Berechnung</text><line style="stroke:#181818;stroke-width:0.5;" x1="932" x2="1222" y1="246.6094" y2="246.6094"/><text fill="#000000" font-family="sans-serif" font-size="14" lengthAdjust="spacing" textLength="177" x="937" y="265.1426">ScoreBerechnungsID: string</text><text fill="#000000" font-family="sans-serif" font-size="14" lengthAdjust="spacing" textLength="234" x="937" y="282.752">Score_Datentyp: (integer/float/string)</text><text fill="#000000" font-family="sans-serif" font-size="14" lengthAdjust="spacing" textLength="280" x="937" y="300.3613">Score_Berechnungs_Algoritmus: Expression</text></g><g id="elem_Dom&#228;ne_Skala_Score_Mapping"><rect fill="#F1F1F1" height="82.4375" style="stroke:#181818;stroke-width:0.5;" width="241" x="502.5" y="221"/><text fill="#000000" font-family="sans-serif" font-size="14" lengthAdjust="spacing" textLength="203" x="521.5" y="237.5332">Dom&#228;ne_Skala_Score_Mapping</text><line style="stroke:#181818;stroke-width:0.5;" x1="503.5" x2="742.5" y1="242.6094" y2="242.6094"/><text fill="#000000" font-family="sans-serif" font-size="14" lengthAdjust="spacing" textLength="229" x="508.5" y="261.1426">Source_Dom&#228;nen_Skalen_ID: string</text><text fill="#000000" font-family="sans-serif" font-size="14" lengthAdjust="spacing" textLength="226" x="508.5" y="278.752">Target_Dom&#228;nen_Skalen_ID: string</text><text fill="#000000" font-family="sans-serif" font-size="14" lengthAdjust="spacing" textLength="187" x="508.5" y="296.3613">Mapping: Scorewert_Mapping</text></g><!--reverse link Fragebogen to Frage--><g id="link_Fragebogen_Frage"><path codeLine="43" d="M324.5,1434 C324.5,1434 410.43,1434 496.11,1434 " fill="none" id="Fragebogen-backto-Frage" style="stroke:#181818;stroke-width:1.0;"/><polygon fill="none" points="312.5,1434,318.5,1438,324.5,1434,318.5,1430,312.5,1434" style="stroke:#181818;stroke-width:1.0;"/><text fill="#000000" font-family="sans-serif" font-size="13" lengthAdjust="spacing" textLength="22" x="318.9547" y="1450.5334">1..1</text><text fill="#000000" font-family="sans-serif" font-size="13" lengthAdjust="spacing" textLength="20" x="476.11" y="1447.4951">1..*</text></g><!--reverse link Frage to Antwort_Vorlage--><g id="link_Frage_Antwort_Vorlage"><path codeLine="48" d="M755,1515 C755,1515 922.59,1515 1018,1515 " fill="none" id="Frage-backto-Antwort_Vorlage" style="stroke:#181818;stroke-width:1.0;"/><polygon fill="none" points="743,1515,749,1519,755,1515,749,1511,743,1515" style="stroke:#181818;stroke-width:1.0;"/><text fill="#000000" font-family="sans-serif" font-size="13" lengthAdjust="spacing" textLength="22" x="749.3453" y="1532.8123">1..1</text><text fill="#000000" font-family="sans-serif" font-size="13" lengthAdjust="spacing" textLength="22" x="987.9063" y="1529.4278">1..1</text></g><!--reverse link Antwort_Vorlage to Antwort_String--><g id="link_Antwort_Vorlage_Antwort_String"><path codeLine="60" d="M1154.0094,1515.6412 C1228.9894,1516.2712 1343.29,1517.22 1439.21,1518.03 " fill="none" id="Antwort_Vorlage-backto-Antwort_String" style="stroke:#181818;stroke-width:1.0;"/><polygon fill="none" points="1136.01,1515.49,1153.959,1521.641,1154.0598,1509.6414,1136.01,1515.49" style="stroke:#181818;stroke-width:1.0;"/></g><!--reverse link Antwort_Vorlage to Antwort_NumerischerWert--><g id="link_Antwort_Vorlage_Antwort_NumerischerWert"><path codeLine="70" d="M1153.5169,1496.9555 C1219.9969,1481.0655 1314.02,1458.59 1405.31,1436.78 " fill="none" id="Antwort_Vorlage-backto-Antwort_NumerischerWert" style="stroke:#181818;stroke-width:1.0;"/><polygon fill="none" points="1136.01,1501.14,1154.9117,1502.7911,1152.122,1491.1199,1136.01,1501.14" style="stroke:#181818;stroke-width:1.0;"/></g><!--link Antwort_Uhrzeit to Antwort_Vorlage--><g id="link_Antwort_Uhrzeit_Antwort_Vorlage"><path codeLine="79" d="M1077,1573.83 C1077,1569.93 1077,1567 1077,1567 C1077,1567 1077,1541 1077,1541 C1077,1541 1077,1558.09 1077,1556.6 " fill="none" id="Antwort_Uhrzeit-to-Antwort_Vorlage" style="stroke:#181818;stroke-width:1.0;"/><polygon fill="none" points="1077,1538.6,1071,1556.6,1083,1556.6,1077,1538.6" style="stroke:#181818;stroke-width:1.0;"/></g><!--reverse link Antwort_Vorlage to Antwort_Datum--><g id="link_Antwort_Vorlage_Antwort_Datum"><path codeLine="81" d="M1118.8945,1479.3892 C1175.5545,1430.0492 1287,1333 1287,1333 C1287,1333 1391.36,1313.53 1469.83,1298.89 " fill="none" id="Antwort_Vorlage-backto-Antwort_Datum" style="stroke:#181818;stroke-width:1.0;"/><polygon fill="none" points="1105.32,1491.21,1122.8348,1483.914,1114.9543,1474.8643,1105.32,1491.21" style="stroke:#181818;stroke-width:1.0;"/></g><!--reverse link Antwort_Vorlage to Antwort_Auswahl--><g id="link_Antwort_Vorlage_Antwort_Auswahl"><path codeLine="93" d="M1153.6527,1533.3535 C1202.5427,1545.2135 1247,1556 1247,1556 C1247,1556 1287,1569 1287,1569 C1287,1569 1329.55,1579 1380.73,1591.03 " fill="none" id="Antwort_Vorlage-backto-Antwort_Auswahl" style="stroke:#181818;stroke-width:1.0;"/><polygon fill="none" points="1136.16,1529.11,1152.2382,1539.1843,1155.0671,1527.5226,1136.16,1529.11" style="stroke:#181818;stroke-width:1.0;"/></g><!--reverse link Antwort_Auswahl to Antwort_Auswahl_Option--><g id="link_Antwort_Auswahl_Antwort_Auswahl_Option"><path codeLine="94" d="M1735.8773,1658.2886 C1735.8773,1658.2886 1802.11,1648.75 1884.94,1636.81 " fill="none" id="Antwort_Auswahl-backto-Antwort_Auswahl_Option" style="stroke:#181818;stroke-width:1.0;"/><polygon fill="none" points="1724,1660,1730.5091,1663.1034,1735.8773,1658.2886,1729.3682,1655.1852,1724,1660" style="stroke:#181818;stroke-width:1.0;"/><text fill="#000000" font-family="sans-serif" font-size="13" lengthAdjust="spacing" textLength="20" x="1730.9531" y="1674.8997">1..*</text><text fill="#000000" font-family="sans-serif" font-size="13" lengthAdjust="spacing" textLength="20" x="1856.9689" y="1651.7056">1..*</text></g><!--reverse link Ausgef?llter_Fragebogen to Antwort_erfasst--><g id="link_Ausgef&#252;llter_Fragebogen_Antwort_erfasst"><path codeLine="111" d="M284.3904,1146.0005 C284.3904,1146.0005 283.5,1048.5 283.5,1048.5 C283.5,1048.5 253.46,1030.82 224.35,1013.69 " fill="none" id="Ausgef&#252;llter_Fragebogen-backto-Antwort_erfasst" style="stroke:#181818;stroke-width:1.0;"/><polygon fill="none" points="284.5,1158,288.445,1151.9637,284.3904,1146.0005,280.4454,1152.0368,284.5,1158" style="stroke:#181818;stroke-width:1.0;"/><text fill="#000000" font-family="sans-serif" font-size="13" lengthAdjust="spacing" textLength="22" x="210.2505" y="1034.7356">1..1</text><text fill="#000000" font-family="sans-serif" font-size="13" lengthAdjust="spacing" textLength="20" x="291.6688" y="1174.666">1..*</text></g><!--reverse link Score_Vorlage to Score_Berechnung--><g id="link_Score_Vorlage_Score_Berechnung"><path codeLine="138" d="M307.8006,776.666 C307.8006,776.666 379,851 379,851 C379,851 867,851 867,851 C867,851 893.12,843.75 926.89,834.38 " fill="none" id="Score_Vorlage-backto-Score_Berechnung" style="stroke:#181818;stroke-width:1.0;"/><polygon fill="none" points="299.5,768,300.7616,775.0999,307.8006,776.666,306.539,769.5662,299.5,768" style="stroke:#181818;stroke-width:1.0;"/><text fill="#000000" font-family="sans-serif" font-size="13" lengthAdjust="spacing" textLength="20" x="305.7984" y="781.9502">1..*</text><text fill="#000000" font-family="sans-serif" font-size="13" lengthAdjust="spacing" textLength="20" x="899.1347" y="850.2743">1..*</text></g><!--reverse link Score_Vorlage to Score_berechnet--><g id="link_Score_Vorlage_Score_berechnet"><path codeLine="139" d="M312.3771,756.7467 C393.8271,751.3967 476,746 476,746 " fill="none" id="Score_Vorlage-backto-Score_berechnet" style="stroke:#181818;stroke-width:1.0;"/><polygon fill="#181818" points="306.39,757.14,315.6328,760.5415,311.3792,756.8123,315.1085,752.5587,306.39,757.14" style="stroke:#181818;stroke-width:1.0;"/><text fill="#000000" font-family="sans-serif" font-size="13" lengthAdjust="spacing" textLength="22" x="306.39" y="770.6351">1..1</text><text fill="#000000" font-family="sans-serif" font-size="13" lengthAdjust="spacing" textLength="20" x="448.8859" y="759.1346">0..*</text></g><!--link Score_berechnet to Score_Berechnung--><g id="link_Score_berechnet_Score_Berechnung"><path codeLine="140" d="M770,764 C770,764 842.9368,770.914 920.6168,778.274 " fill="none" id="Score_berechnet-to-Score_Berechnung" style="stroke:#181818;stroke-width:1.0;"/><polygon fill="#181818" points="926.59,778.84,918.0074,774.0089,921.6123,778.3684,917.2528,781.9732,926.59,778.84" style="stroke:#181818;stroke-width:1.0;"/><text fill="#000000" font-family="sans-serif" font-size="13" lengthAdjust="spacing" textLength="22" x="777.1594" y="777.9502">1..1</text><text fill="#000000" font-family="sans-serif" font-size="13" lengthAdjust="spacing" textLength="20" x="898.8201" y="792.0441">0..*</text></g><!--link Score_Fragebogen_Score to GMN33--><g id="link_Score_Fragebogen_Score_GMN33"><path d="M1556,724.16 C1556,716.51 1556,697.67 1556,697.67 C1556,697.67 1556,694.16 1556,689.56 " fill="none" id="Score_Fragebogen_Score-GMN33" style="stroke:#181818;stroke-width:1.0;stroke-dasharray:7.0,7.0;"/></g><!--reverse link Score_Berechnung to Score_Fragebogen_Score--><g id="link_Score_Berechnung_Score_Fragebogen_Score"><path codeLine="151" d="M1245.2391,780.3769 C1295.2491,776.6069 1333.43,773.72 1384.91,769.84 " fill="none" id="Score_Berechnung-backto-Score_Fragebogen_Score" style="stroke:#181818;stroke-width:1.0;"/><polygon fill="none" points="1227.29,781.73,1245.6901,786.3599,1244.788,774.3939,1227.29,781.73" style="stroke:#181818;stroke-width:1.0;"/></g><!--reverse link Score_Berechnung to Score_Itembasierter_Score--><g id="link_Score_Berechnung_Score_Itembasierter_Score"><path codeLine="156" d="M1245.1714,812.2725 C1308.9814,819.6325 1364.87,826.08 1426.24,833.15 " fill="none" id="Score_Berechnung-backto-Score_Itembasierter_Score" style="stroke:#181818;stroke-width:1.0;"/><polygon fill="none" points="1227.29,810.21,1244.484,818.233,1245.8589,806.312,1227.29,810.21" style="stroke:#181818;stroke-width:1.0;"/></g><!--link Score_Itembasierter_Score to GMN39--><g id="link_Score_Itembasierter_Score_GMN39"><path d="M1426.23,828.22 C1357.44,817.74 1287,807 1287,807 C1287,807 1267,789.5 1267,789.5 C1267,789.5 1267,646.5 1267,646.5 C1267,646.5 1287,629 1287,629 C1287,629 1345.13,620.57 1407.34,611.55 " fill="none" id="Score_Itembasierter_Score-GMN39" style="stroke:#181818;stroke-width:1.0;stroke-dasharray:7.0,7.0;"/></g><!--reverse link Score_Vorlage to Score_Mapping--><g id="link_Score_Vorlage_Score_Mapping"><path codeLine="168" d="M42.6599,726.0021 C42.6599,726.0021 43.5,694.5 43.5,694.5 C43.5,694.5 70.5,606 70.5,606 " fill="none" id="Score_Vorlage-backto-Score_Mapping" style="stroke:#181818;stroke-width:1.0;"/><polygon fill="#181818" points="42.5,732,46.7385,723.1098,42.6333,727.0018,38.7413,722.8966,42.5,732" style="stroke:#181818;stroke-width:1.0;"/></g><!--reverse link Score_Mapping to Scorewert_Mapping--><g id="link_Score_Mapping_Scorewert_Mapping"><path codeLine="175" d="M290.26,614 C361.03,614 441.62,614 512.87,614 " fill="none" id="Score_Mapping-backto-Scorewert_Mapping" style="stroke:#181818;stroke-width:1.0;"/><polygon fill="none" points="278.26,614,284.26,618,290.26,614,284.26,610,278.26,614" style="stroke:#181818;stroke-width:1.0;"/><text fill="#000000" font-family="sans-serif" font-size="13" lengthAdjust="spacing" textLength="22" x="278.26" y="627.4951">1..1</text><text fill="#000000" font-family="sans-serif" font-size="13" lengthAdjust="spacing" textLength="20" x="485.1742" y="628.0049">1..*</text></g><!--link Dom?ne to Dom?ne_Skala--><g id="link_Dom&#228;ne_Dom&#228;ne_Skala"><path codeLine="214" d="M288.69,415 C317.76,415 349.97,415 382.58,415 " fill="none" id="Dom&#228;ne-Dom&#228;ne_Skala" style="stroke:#181818;stroke-width:1.0;"/><text fill="#000000" font-family="sans-serif" font-size="13" lengthAdjust="spacing" textLength="22" x="296.5625" y="429.0038">1..1</text><text fill="#000000" font-family="sans-serif" font-size="13" lengthAdjust="spacing" textLength="20" x="355.1457" y="428.7397">0..*</text></g><!--reverse link Dom?ne_Skala to Dom?ne_Skala_Score_berechnet--><g id="link_Dom&#228;ne_Skala_Dom&#228;ne_Skala_Score_berechnet"><path codeLine="215" d="M420.7389,336.2529 C392.8489,325.3929 379,320 379,320 C379,320 349,302.5 349,302.5 C349,302.5 349,220.5 349,220.5 C349,220.5 379,203 379,203 C379,203 398.7,195.81 426.92,185.52 " fill="none" id="Dom&#228;ne_Skala-backto-Dom&#228;ne_Skala_Score_berechnet" style="stroke:#181818;stroke-width:1.0;"/><polygon fill="#181818" points="426.33,338.43,419.3948,331.437,421.6708,336.6158,416.492,338.8917,426.33,338.43" style="stroke:#181818;stroke-width:1.0;"/><text fill="#000000" font-family="sans-serif" font-size="13" lengthAdjust="spacing" textLength="22" x="383.8875" y="327.6237">1..1</text><text fill="#000000" font-family="sans-serif" font-size="13" lengthAdjust="spacing" textLength="20" x="395.65" y="203.3662">0..*</text></g><!--link Dom?ne_Skala to Dom?ne_Skala_Score_Mapping--><g id="link_Dom&#228;ne_Skala_Dom&#228;ne_Skala_Score_Mapping"><path codeLine="216" d="M623,332.2 C623,319.55 623,313 623,313 C623,313 623,314.97 623,309.17 " fill="none" id="Dom&#228;ne_Skala-Dom&#228;ne_Skala_Score_Mapping" style="stroke:#181818;stroke-width:1.0;"/><polygon fill="#181818" points="623,338.2,627,329.2,623,333.2,619,329.2,623,338.2" style="stroke:#181818;stroke-width:1.0;"/><polygon fill="#181818" points="623,303.17,619,312.17,623,308.17,627,312.17,623,303.17" style="stroke:#181818;stroke-width:1.0;"/><text fill="#000000" font-family="sans-serif" font-size="13" lengthAdjust="spacing" textLength="20" x="602.0469" y="327.6353">0..*</text><text fill="#000000" font-family="sans-serif" font-size="13" lengthAdjust="spacing" textLength="22" x="599.1781" y="324.8018">2..2</text></g><!--reverse link Dom?ne_Skala to Dom?ne_Skala_Score_Berechnung--><g id="link_Dom&#228;ne_Skala_Dom&#228;ne_Skala_Score_Berechnung"><path codeLine="217" d="M867.686,334.6707 C900.486,323.8507 921.72,316.86 951.41,307.07 " fill="none" id="Dom&#228;ne_Skala-backto-Dom&#228;ne_Skala_Score_Berechnung" style="stroke:#181818;stroke-width:1.0;"/><polygon fill="none" points="856.29,338.43,863.2411,340.349,867.686,334.6707,860.7349,332.7517,856.29,338.43" style="stroke:#181818;stroke-width:1.0;"/><text fill="#000000" font-family="sans-serif" font-size="13" lengthAdjust="spacing" textLength="22" x="856.1717" y="327.6237">1..1</text><text fill="#000000" font-family="sans-serif" font-size="13" lengthAdjust="spacing" textLength="13" x="915.707" y="328.9916">..*</text></g><!--link Dom?ne_Skala_Score_berechnet to Dom?ne_Skala_Score_Berechnung--><g id="link_Dom&#228;ne_Skala_Score_berechnet_Dom&#228;ne_Skala_Score_Berechnung"><path codeLine="218" d="M860,116 C860,116 947.8217,176.9878 1011.7617,221.3878 " fill="none" id="Dom&#228;ne_Skala_Score_berechnet-to-Dom&#228;ne_Skala_Score_Berechnung" style="stroke:#181818;stroke-width:1.0;"/><polygon fill="#181818" points="1016.69,224.81,1011.579,216.3911,1012.5831,221.9581,1007.016,222.9622,1016.69,224.81" style="stroke:#181818;stroke-width:1.0;"/><text fill="#000000" font-family="sans-serif" font-size="13" lengthAdjust="spacing" textLength="22" x="867.3625" y="129.7933">0..1</text><text fill="#000000" font-family="sans-serif" font-size="13" lengthAdjust="spacing" textLength="22" x="982.8793" y="214.1509">0..1</text></g><!--SRC=[jLZDRjms4BxhAGYVsYAscvmA8IZWn6vXe4dJE4cF0dTtTiMkH2ueAcixzTlq6NhApI_M8KM9FwAqww9T8F5gPiZvd_cqpPRn7PMq9XNZeEvsG8HKfSYQCMCdgZlza5MmLaG98jccL6J592mL4pphFZkwtD8Da9ya_hyG6-359o4hJVgI4Vo8nHzumEDRkluuulLbJXeb6TyacCLRMaFnMLHLenx_uYksoGbx_WE_cJzmiTW-VfNtBJye_WbaWoxDc71zMJ2kGCx953UAyXMLgsBUcq7ivgvHK1ybEciXaitVWNhHObBb83pGNulTdKcZOndUmoXJNx98nO40QFv1zmEXEUS3mLdN5TogwUmM5sspVlnQLINZUs0D94Kl-3sm3THYHIk61OONBiKAegjessp0NAQAFN2qv-fs9w7HjdbNgJrsLDy2UKpemstZxZATv-OxENb-TlRyX8ZJbTZpK_FutOdDhf-aw5wlfom7UzXpuy6fo_FuhDKPACNdfEcHUepldfQLf_uDb79DboNjE3bP25417OV8vPTMBTm0Hlqzh442Ny98sEefVjqfKmffUX_SXA5ToiTXieoYPlmNu1jLvkGQotm3SbAItgOakmZ7eNtvfurfU4cMjF5jMuDapR84-Jj8bJ0saYYs5J2EROIjZgn5mkZun4OABDcddBXYl0GMzyIKz3j9uPvr_Tg7vodnYUvB1-gIghRsmeF9CwIShAXoDXeQDYsdBTjiGnyUKlT-B2LEWZxmanRhXNWQ7ygEyy_ODDTAjfGJoUyOnOUfYHV9NTrkgxPXds6w1KELnMiCpZ3aazcE3Wmjh4y-ySZ4-3_ks6Wd-9qVvy0b8RuzIsXqup5AY1t5qMIU64HPzZ0WemktEA3e9lxZtmu7zMNWISdY05hAlUy3-mhdRjCWscbMYMRGcx25gWAEINw7uTFHOolWYgsPFmR6SiLxH5usloJE57ZJ68m5Qhh1h43iqmoui2SxvSy8DpFhcPLwrhdeT-j458Ui0dShrY2XKIPx9rm2RvO2ztoOBaDBR5z3j-GKg3LyZKwJBMouw20iIsvWQwVcrK1niqtKY8Jn5libPl1cIokQXu-Xdk8DtUsOqs8VnzdhsDOiKB6tKruw41GyHaAlZl7MaPArtPtJwqOY8bEqmmZ1E1ginx8mudlGLVKDwtRK-ReIL9rtRdpRXQ0hzN4Wd35n93mp9uE22m1xBW1dgM0qnKMr4PAficwR9DJiJlncUfNavEFxQxyHmWpaKM6vOJQKVpBsOPNRndcf3ttl7HfYQ_MuoKkyMqPIhq9pyERJqn_3cprpid4Y_FSaJKYEIbU5YP4vEIucELw8kL20grKfKHEndh9fghSHj2X4IBjM4UhhyimySuSlOSquCti84HyEesucuG344tZUK6l_9Hl_8P3IC7BVodvkur0tPcVfejERydJ2aKJyht4JBsYZbVHTvSCMV-qTjIpcp4deogQpaBBiY4HW4E-XudqIdfI06jzxzCiByJVyET6Mw5d55vHlnsa9ip8EiPt9_g0HhLn2CJLvFr29ByMJx73awnaug1WbefVDGvMamx_OggaPurRVs9j0NUoHUGlCoMyjHKIYxYA7fhZsjiBDHtzMzb9JhZae48v1tr0F1zXT6WA1aEXjuDIl83qhWPTxrWUce4g2WrxY7SKoKmS1G763ArytN42Wu_NUtslOOp_wYrB-lC6UgFKwjciK2zuiKYy_j_C2tTrKnk-N7LsoPQaCD4Z5odfK-7F32C_m0rXXVs-utubTMndKSFup3YpLlorwteQ_AWGXA_udV9HIugEbUVueM17cIvAF1Lp_6atDnE-_WbKpHim2hHJEEfproG5zHFVOMNrCdnqSs_qOwf6KVKdjm5HWU1Rs-m3g-hUXn96umkChkYFz5OZXNfoTlJYPYrVQ2FTADcc3L-2p9kRvWHhJHdkGK__-UK3VG_OF]--></g></svg>