<?xml version="1.0" encoding="us-ascii" standalone="no"?><svg xmlns="http://www.w3.org/2000/svg" xmlns:xlink="http://www.w3.org/1999/xlink" contentStyleType="text/css" height="799px" preserveAspectRatio="none" style="width:1030px;height:799px;background:#FFFFFF;" version="1.1" viewBox="0 0 1030 799" width="1030px" zoomAndPan="magnify"><defs/><g><!--cluster Scores--><g id="cluster_Scores"><path d="M8.5,6 L58.5,6 A3.75,3.75 0 0 1 61,8.5 L68,29.6094 L1020.5,29.6094 A2.5,2.5 0 0 1 1023,32.1094 L1023,789.5 A2.5,2.5 0 0 1 1020.5,792 L8.5,792 A2.5,2.5 0 0 1 6,789.5 L6,8.5 A2.5,2.5 0 0 1 8.5,6 " fill="none" style="stroke:#000000;stroke-width:1.5;"/><line style="stroke:#000000;stroke-width:1.5;" x1="6" x2="68" y1="29.6094" y2="29.6094"/><text fill="#000000" font-family="sans-serif" font-size="14" font-weight="bold" lengthAdjust="spacing" textLength="49" x="10" y="22.5332">Scores</text></g><g id="elem_Score_Vorlage"><rect fill="#F1F1F1" height="135.2656" style="stroke:#181818;stroke-width:0.5;" width="255" x="283.5" y="46"/><text fill="#000000" font-family="sans-serif" font-size="14" lengthAdjust="spacing" textLength="94" x="364" y="62.5332">Score_Vorlage</text><line style="stroke:#181818;stroke-width:0.5;" x1="284.5" x2="537.5" y1="67.6094" y2="67.6094"/><text fill="#000000" font-family="sans-serif" font-size="14" lengthAdjust="spacing" textLength="150" x="289.5" y="86.1426">ScoreVorlagenID: string</text><text fill="#000000" font-family="sans-serif" font-size="14" lengthAdjust="spacing" textLength="145" x="289.5" y="103.752">ScoreName: i18nString</text><text fill="#000000" font-family="sans-serif" font-size="14" lengthAdjust="spacing" textLength="243" x="289.5" y="121.3613">Scoreberechnung: Score_Berechnung</text><text fill="#000000" font-family="sans-serif" font-size="14" lengthAdjust="spacing" textLength="114" x="289.5" y="138.9707">Dom&#228;ne: Dom&#228;ne</text><text fill="#000000" font-family="sans-serif" font-size="14" lengthAdjust="spacing" textLength="196" x="289.5" y="156.5801">Dom&#228;nenskala: Dom&#228;nenskala</text><text fill="#000000" font-family="sans-serif" font-size="14" lengthAdjust="spacing" textLength="206" x="289.5" y="174.1895">Score_Mapping: Score_Mapping</text></g><g id="elem_Score_berechnet"><rect fill="#F1F1F1" height="135.2656" style="stroke:#181818;stroke-width:0.5;" width="292" x="142" y="249"/><text fill="#000000" font-family="sans-serif" font-size="14" lengthAdjust="spacing" textLength="109" x="233.5" y="265.5332">Score_berechnet</text><line style="stroke:#181818;stroke-width:0.5;" x1="143" x2="433" y1="270.6094" y2="270.6094"/><text fill="#000000" font-family="sans-serif" font-size="14" lengthAdjust="spacing" textLength="93" x="148" y="289.1426">ScoreID: string</text><text fill="#000000" font-family="sans-serif" font-size="14" lengthAdjust="spacing" textLength="196" x="148" y="306.752">Score_Vorlage: Score_Vorlage</text><text fill="#000000" font-family="sans-serif" font-size="14" lengthAdjust="spacing" textLength="252" x="148" y="324.3613">Score_Berechnung: Score_Berechnung</text><text fill="#000000" font-family="sans-serif" font-size="14" lengthAdjust="spacing" textLength="159" x="148" y="341.9707">Berechnungsdatum: date</text><text fill="#000000" font-family="sans-serif" font-size="14" lengthAdjust="spacing" textLength="168" x="148" y="359.5801">Score_Interpretation: code</text><text fill="#000000" font-family="sans-serif" font-size="14" lengthAdjust="spacing" textLength="280" x="148" y="377.1895">berechneter_Scorewert: (integer/float/string)</text></g><g id="elem_Score_Berechnung"><rect fill="#F1F1F1" height="100.0469" style="stroke:#181818;stroke-width:0.5;" width="300" x="233" y="448"/><text fill="#000000" font-family="sans-serif" font-size="14" lengthAdjust="spacing" textLength="122" x="322" y="464.5332">Score_Berechnung</text><line style="stroke:#181818;stroke-width:0.5;" x1="234" x2="532" y1="469.6094" y2="469.6094"/><text fill="#000000" font-family="sans-serif" font-size="14" lengthAdjust="spacing" textLength="177" x="239" y="488.1426">ScoreBerechnungsID: string</text><text fill="#000000" font-family="sans-serif" font-size="14" lengthAdjust="spacing" textLength="141" x="239" y="505.752">Score_Datentyp: code</text><text fill="#000000" font-family="sans-serif" font-size="14" lengthAdjust="spacing" textLength="288" x="239" y="523.3613">Score_Berechnungs_Algorithmus: Expression</text><text fill="#000000" font-family="sans-serif" font-size="14" lengthAdjust="spacing" textLength="120" x="239" y="540.9707">Score_Quelle : URI</text></g><g id="elem_Score_Fragebogen_Score"><rect fill="#F1F1F1" height="64.8281" style="stroke:#181818;stroke-width:0.5;" width="342" x="100" y="608"/><text fill="#000000" font-family="sans-serif" font-size="14" lengthAdjust="spacing" textLength="168" x="187" y="624.5332">Score_Fragebogen_Score</text><line style="stroke:#181818;stroke-width:0.5;" x1="101" x2="441" y1="629.6094" y2="629.6094"/><text fill="#000000" font-family="sans-serif" font-size="14" lengthAdjust="spacing" textLength="221" x="106" y="648.1426">Fragebogen_Vorlage: Fragebogen</text><text fill="#000000" font-family="sans-serif" font-size="14" lengthAdjust="spacing" textLength="330" x="106" y="665.752">Ausgef&#252;llter_Fragebogen: Ausgef&#252;llter_Fragebogen</text></g><g id="elem_GMN10"><path d="M22,733 L22,775.7031 A0,0 0 0 0 22,775.7031 L434,775.7031 A0,0 0 0 0 434,775.7031 L434,743 L424,733 L239.89,733 L258.79,673.3 L231.89,733 L22,733 A0,0 0 0 0 22,733 " fill="#FEFFDD" style="stroke:#181818;stroke-width:0.5;"/><path d="M424,733 L424,743 L434,743 L424,733 " fill="#FEFFDD" style="stroke:#181818;stroke-width:0.5;"/><text fill="#000000" font-family="sans-serif" font-size="13" lengthAdjust="spacing" textLength="301" x="28" y="751.4951">Scoreberechnung mit Input ausgef&#252;llter Fragebogen.</text><text fill="#000000" font-family="sans-serif" font-size="13" lengthAdjust="spacing" textLength="387" x="28" y="767.8467">Definition eines Scores, der aus einem Fragebogen generiert wurde</text></g><g id="elem_Score_Itembasierter_Score"><rect fill="#F1F1F1" height="47.2188" style="stroke:#181818;stroke-width:0.5;" width="259" x="564.5" y="617"/><text fill="#000000" font-family="sans-serif" font-size="14" lengthAdjust="spacing" textLength="172" x="608" y="633.5332">Score_Itembasierter_Score</text><line style="stroke:#181818;stroke-width:0.5;" x1="565.5" x2="822.5" y1="638.6094" y2="638.6094"/><text fill="#000000" font-family="sans-serif" font-size="14" lengthAdjust="spacing" textLength="247" x="570.5" y="657.1426">Ausgef&#252;llte_Antworten: Antwort_erfasst</text></g><g id="elem_GMN16"><path d="M469,733 L469,775.7031 A0,0 0 0 0 469,775.7031 L1007,775.7031 A0,0 0 0 0 1007,775.7031 L1007,743 L997,733 L733.85,733 L702.9,664.16 L725.85,733 L469,733 A0,0 0 0 0 469,733 " fill="#FEFFDD" style="stroke:#181818;stroke-width:0.5;"/><path d="M997,733 L997,743 L1007,743 L997,733 " fill="#FEFFDD" style="stroke:#181818;stroke-width:0.5;"/><text fill="#000000" font-family="sans-serif" font-size="13" lengthAdjust="spacing" textLength="259" x="475" y="751.4951">Scoreberechnung mit Input einzelner Fragen.</text><text fill="#000000" font-family="sans-serif" font-size="13" lengthAdjust="spacing" textLength="517" x="475" y="767.8467">Definition eines Scores, der aus mehreren Frageb&#246;gen / Itemdatenbanken generiert wurde</text></g><g id="elem_Score_Mapping"><rect fill="#F1F1F1" height="82.4375" style="stroke:#181818;stroke-width:0.5;" width="199" x="589.5" y="72.5"/><text fill="#000000" font-family="sans-serif" font-size="14" lengthAdjust="spacing" textLength="99" x="639.5" y="89.0332">Score_Mapping</text><line style="stroke:#181818;stroke-width:0.5;" x1="590.5" x2="787.5" y1="94.1094" y2="94.1094"/><text fill="#000000" font-family="sans-serif" font-size="14" lengthAdjust="spacing" textLength="146" x="595.5" y="112.6426">Source_ScoreID: string</text><text fill="#000000" font-family="sans-serif" font-size="14" lengthAdjust="spacing" textLength="143" x="595.5" y="130.252">Target_ScoreID: string</text><text fill="#000000" font-family="sans-serif" font-size="14" lengthAdjust="spacing" textLength="187" x="595.5" y="147.8613">Mapping: Scorewert_Mapping</text></g><g id="elem_Scorewert_Mapping"><rect fill="#F1F1F1" height="82.4375" style="stroke:#181818;stroke-width:0.5;" width="220" x="579" y="275.5"/><text fill="#000000" font-family="sans-serif" font-size="14" lengthAdjust="spacing" textLength="125" x="626.5" y="292.0332">Scorewert_Mapping</text><line style="stroke:#181818;stroke-width:0.5;" x1="580" x2="798" y1="297.1094" y2="297.1094"/><text fill="#000000" font-family="sans-serif" font-size="14" lengthAdjust="spacing" textLength="142" x="585" y="315.6426">SourceValue: Quantity</text><text fill="#000000" font-family="sans-serif" font-size="14" lengthAdjust="spacing" textLength="139" x="585" y="333.252">TargetValue: Quantity</text><text fill="#000000" font-family="sans-serif" font-size="14" lengthAdjust="spacing" textLength="208" x="585" y="350.8613">Mapping_Expression: Expression</text></g><!--reverse link Score_Vorlage to Score_Berechnung--><g id="link_Score_Vorlage_Score_Berechnung"><path codeLine="28" d="M539.8274,127.4988 C539.8274,127.4988 539,185 539,185 C539,185 460,388 460,388 C460,388 438.11,418.99 417.67,447.92 " fill="none" id="Score_Vorlage-backto-Score_Berechnung" style="stroke:#181818;stroke-width:1.0;"/><polygon fill="none" points="540,115.5,535.9141,121.4418,539.8274,127.4988,543.9133,121.5569,540,115.5" style="stroke:#181818;stroke-width:1.0;"/><text fill="#000000" font-family="sans-serif" font-size="13" lengthAdjust="spacing" textLength="20" x="546.2984" y="112.7252">1..*</text><text fill="#000000" font-family="sans-serif" font-size="13" lengthAdjust="spacing" textLength="20" x="401.1392" y="437.269">1..*</text></g><!--reverse link Score_Vorlage to Score_berechnet--><g id="link_Score_Vorlage_Score_berechnet"><path codeLine="29" d="M424.4815,191.0089 C429.9015,221.7589 434,245 434,245 C434,245 435,300.5 435,300.5 " fill="none" id="Score_Vorlage-backto-Score_berechnet" style="stroke:#181818;stroke-width:1.0;"/><polygon fill="#181818" points="423.44,185.1,421.063,194.6577,424.3079,190.0241,428.9415,193.269,423.44,185.1" style="stroke:#181818;stroke-width:1.0;"/><text fill="#000000" font-family="sans-serif" font-size="13" lengthAdjust="spacing" textLength="22" x="401.5143" y="202.7017">1..1</text><text fill="#000000" font-family="sans-serif" font-size="13" lengthAdjust="spacing" textLength="20" x="442.1141" y="296.9096">0..*</text></g><!--link Score_berechnet to Score_Berechnung--><g id="link_Score_berechnet_Score_Berechnung"><path codeLine="30" d="M435,318.5 C435,318.5 434,388 434,388 C434,388 422.0434,413.5557 408.5034,442.4857 " fill="none" id="Score_berechnet-to-Score_Berechnung" style="stroke:#181818;stroke-width:1.0;"/><polygon fill="#181818" points="405.96,447.92,413.3979,441.4642,408.0795,443.3914,406.1522,438.073,405.96,447.92" style="stroke:#181818;stroke-width:1.0;"/><text fill="#000000" font-family="sans-serif" font-size="13" lengthAdjust="spacing" textLength="22" x="442.1594" y="315.7252">1..1</text><text fill="#000000" font-family="sans-serif" font-size="13" lengthAdjust="spacing" textLength="20" x="387.7825" y="437.269">0..*</text></g><!--reverse link Score_Berechnung to Score_Fragebogen_Score--><g id="link_Score_Berechnung_Score_Fragebogen_Score"><path codeLine="41" d="M332.6089,562.2144 C316.8389,581.9944 310.32,590.17 296.31,607.76 " fill="none" id="Score_Berechnung-backto-Score_Fragebogen_Score" style="stroke:#181818;stroke-width:1.0;"/><polygon fill="none" points="343.83,548.14,327.9175,558.474,337.3004,565.9547,343.83,548.14" style="stroke:#181818;stroke-width:1.0;"/></g><!--reverse link Score_Berechnung to Score_Itembasierter_Score--><g id="link_Score_Berechnung_Score_Itembasierter_Score"><path codeLine="46" d="M508.1742,555.5496 C560.0242,578.9696 603.11,598.44 644.08,616.95 " fill="none" id="Score_Berechnung-backto-Score_Itembasierter_Score" style="stroke:#181818;stroke-width:1.0;"/><polygon fill="none" points="491.77,548.14,505.7044,561.0176,510.6441,550.0815,491.77,548.14" style="stroke:#181818;stroke-width:1.0;"/></g><!--reverse link Score_Vorlage to Score_Mapping--><g id="link_Score_Vorlage_Score_Mapping"><path codeLine="58" d="M545.3001,82.3123 C545.3001,82.3123 589,105.5 589,105.5 " fill="none" id="Score_Vorlage-backto-Score_Mapping" style="stroke:#181818;stroke-width:1.0;"/><polygon fill="#181818" points="540,79.5,546.0753,87.2518,544.4167,81.8436,549.825,80.185,540,79.5" style="stroke:#181818;stroke-width:1.0;"/></g><!--reverse link Score_Mapping to Scorewert_Mapping--><g id="link_Score_Mapping_Scorewert_Mapping"><path codeLine="65" d="M689,170.61 C689,205.39 689,241.5 689,275.25 " fill="none" id="Score_Mapping-backto-Scorewert_Mapping" style="stroke:#181818;stroke-width:1.0;"/><polygon fill="none" points="689,158.61,685,164.61,689,170.61,693,164.61,689,158.61" style="stroke:#181818;stroke-width:1.0;"/><text fill="#000000" font-family="sans-serif" font-size="13" lengthAdjust="spacing" textLength="22" x="666.0891" y="176.4997">1..1</text><text fill="#000000" font-family="sans-serif" font-size="13" lengthAdjust="spacing" textLength="20" x="667.3438" y="264.581">1..*</text></g><!--SRC=[bLNDZjCm4BxdAKOz0Q8jlI5hXTIg8FK0qhAmryX99wcfOqUser9WtuPduCIjBuQTN-TFMY9LYUVtc_d6Ktrc8gUAPi2PG7FD4QGo9ndeiIAN_EeEGKxZCqqH7cAfKCFF0EmZesyOcqeMFah5dKMbSayfhyNYi2UWZM8YxUi_qGm9iCrRyJ2XZL1XV1A5I4cTPjTAMikzp6w_XOrIVmmLGfyffwH_xES9Fz8yPrsM-bWQFOrhhM6X6LOxLsNJ7T8_3enspwcs4-aZDKL6mBw6aGx2eCeL6cgO50HYUUnCMlIemjByWieGUC6iKufgdN19pRegusNL0YXVuqPqO8QTy63EDcLlWGixPmDymz0wtF9KAcPEMQ49lFzk2zFQrZNmk2-GSmG2NpyV0e-wFWDaC5YmsAnMhnOWbylcSxBt_Ibtbfi5t3cdDvvJsziwJ-jGTs_6QjU7OoClb-_waJqumPY83yecYQIzQ1Mb7XsUgft2JjQQRGkTOdBxoxcRYyw0p6gy5Wjf429fZCn09dEOvkusPCp0GUI50Uhdyc2kEkSz9ammDzU0TZNfUYUzXgFriFwbDFDymVvGCJlaS2dKiSQ1ubZ23gQ73kv-MMwd2vde_y5W5b7jaZItogF0xs2u5UPY5sxPsUepH9LGhSrePgVXJEGAvbcOGlOC8cmJVo0N3Gd_HK269sLZYfg3snz7mXeS4hUhH4J5UKnBdvLnY-kTx2yQMQWOmxdD-uMg5Csikh_otGviKuo8Q6n9FoKiEIR6NTMf7TFzzOshwQKRLlH8UM4lwNr1XM7cEYXeJbj72xlzwE_Ancgkj6Rl3DUW3pHu-WS0]--></g></svg>