<?xml version="1.0" encoding="us-ascii" standalone="no"?><svg xmlns="http://www.w3.org/2000/svg" xmlns:xlink="http://www.w3.org/1999/xlink" contentStyleType="text/css" height="1536px" preserveAspectRatio="none" style="width:2177px;height:1536px;background:#FFFFFF;" version="1.1" viewBox="0 0 2177 1536" width="2177px" zoomAndPan="magnify"><defs/><g><!--cluster Fragebogen_Vorlage--><g id="cluster_Fragebogen_Vorlage"><path d="M8.5,6 L157.5,6 A3.75,3.75 0 0 1 160,8.5 L167,29.6094 L1368.5,29.6094 A2.5,2.5 0 0 1 1371,32.1094 L1371,479.5 A2.5,2.5 0 0 1 1368.5,482 L8.5,482 A2.5,2.5 0 0 1 6,479.5 L6,8.5 A2.5,2.5 0 0 1 8.5,6 " fill="none" style="stroke:#000000;stroke-width:1.5;"/><line style="stroke:#000000;stroke-width:1.5;" x1="6" x2="167" y1="29.6094" y2="29.6094"/><text fill="#000000" font-family="sans-serif" font-size="14" font-weight="bold" lengthAdjust="spacing" textLength="148" x="10" y="22.5332">Fragebogen_Vorlage</text></g><!--cluster Ausgef?llte_Frageb?gen--><g id="cluster_Ausgef&#252;llte_Frageb&#246;gen"><path d="M972.5,522 L1147.5,522 A3.75,3.75 0 0 1 1150,524.5 L1157,545.6094 L1397.5,545.6094 A2.5,2.5 0 0 1 1400,548.1094 L1400,907.5 A2.5,2.5 0 0 1 1397.5,910 L972.5,910 A2.5,2.5 0 0 1 970,907.5 L970,524.5 A2.5,2.5 0 0 1 972.5,522 " fill="none" style="stroke:#000000;stroke-width:1.5;"/><line style="stroke:#000000;stroke-width:1.5;" x1="970" x2="1157" y1="545.6094" y2="545.6094"/><text fill="#000000" font-family="sans-serif" font-size="14" font-weight="bold" lengthAdjust="spacing" textLength="174" x="974" y="538.5332">Ausgef&#252;llte_Frageb&#246;gen</text></g><!--cluster Scores--><g id="cluster_Scores"><path d="M514.5,950 L564.5,950 A3.75,3.75 0 0 1 567,952.5 L574,973.6094 L1426.5,973.6094 A2.5,2.5 0 0 1 1429,976.1094 L1429,1526.5 A2.5,2.5 0 0 1 1426.5,1529 L514.5,1529 A2.5,2.5 0 0 1 512,1526.5 L512,952.5 A2.5,2.5 0 0 1 514.5,950 " fill="none" style="stroke:#000000;stroke-width:1.5;"/><line style="stroke:#000000;stroke-width:1.5;" x1="512" x2="574" y1="973.6094" y2="973.6094"/><text fill="#000000" font-family="sans-serif" font-size="14" font-weight="bold" lengthAdjust="spacing" textLength="49" x="516" y="966.5332">Scores</text></g><!--cluster Dom?ne--><g id="cluster_Dom&#228;ne"><path d="M1431.5,70.5 L1489.5,70.5 A3.75,3.75 0 0 1 1492,73 L1499,94.1094 L2167.5,94.1094 A2.5,2.5 0 0 1 2170,96.6094 L2170,445 A2.5,2.5 0 0 1 2167.5,447.5 L1431.5,447.5 A2.5,2.5 0 0 1 1429,445 L1429,73 A2.5,2.5 0 0 1 1431.5,70.5 " fill="none" style="stroke:#000000;stroke-width:1.5;"/><line style="stroke:#000000;stroke-width:1.5;" x1="1429" x2="1499" y1="94.1094" y2="94.1094"/><text fill="#000000" font-family="sans-serif" font-size="14" font-weight="bold" lengthAdjust="spacing" textLength="57" x="1433" y="87.0332">Dom&#228;ne</text></g><!--cluster Abgeleitete_Metriken--><g id="cluster_Abgeleitete_Metriken"><path d="M1471.5,1290.5 L1624.5,1290.5 A3.75,3.75 0 0 1 1627,1293 L1634,1314.1094 L1694.5,1314.1094 A2.5,2.5 0 0 1 1697,1316.6094 L1697,1516 A2.5,2.5 0 0 1 1694.5,1518.5 L1471.5,1518.5 A2.5,2.5 0 0 1 1469,1516 L1469,1293 A2.5,2.5 0 0 1 1471.5,1290.5 " fill="none" style="stroke:#000000;stroke-width:1.5;"/><line style="stroke:#000000;stroke-width:1.5;" x1="1469" x2="1634" y1="1314.1094" y2="1314.1094"/><text fill="#000000" font-family="sans-serif" font-size="14" font-weight="bold" lengthAdjust="spacing" textLength="152" x="1473" y="1307.0332">Abgeleitete_Metriken</text></g><g id="elem_Fragebogen"><rect fill="#F1F1F1" height="205.7031" style="stroke:#181818;stroke-width:0.5;" width="281" x="316.5" y="54"/><text fill="#000000" font-family="sans-serif" font-size="14" lengthAdjust="spacing" textLength="78" x="418" y="70.5332">Fragebogen</text><line style="stroke:#181818;stroke-width:0.5;" x1="317.5" x2="596.5" y1="75.6094" y2="75.6094"/><text fill="#000000" font-family="sans-serif" font-size="14" lengthAdjust="spacing" textLength="269" x="322.5" y="94.1426">Fragebogen_Name_vollst&#228;ndig: i18nString</text><text fill="#000000" font-family="sans-serif" font-size="14" lengthAdjust="spacing" textLength="269" x="322.5" y="111.752">Fragebogen_Name_Abk&#252;rzung: i18nString</text><text fill="#000000" font-family="sans-serif" font-size="14" lengthAdjust="spacing" textLength="177" x="322.5" y="129.3613">Fragebogen_Version: string</text><text fill="#000000" font-family="sans-serif" font-size="14" lengthAdjust="spacing" textLength="178" x="322.5" y="146.9707">FragebogenID_intern: string</text><text fill="#000000" font-family="sans-serif" font-size="14" lengthAdjust="spacing" textLength="221" x="322.5" y="164.5801">FragebogenID_Standard_ID: string</text><text fill="#000000" font-family="sans-serif" font-size="14" lengthAdjust="spacing" textLength="222" x="322.5" y="182.1895">FragenID_Standard_System: string</text><text fill="#000000" font-family="sans-serif" font-size="14" lengthAdjust="spacing" textLength="224" x="322.5" y="199.7988">FragenID_Standard_Version: string</text><text fill="#000000" font-family="sans-serif" font-size="14" lengthAdjust="spacing" textLength="92" x="322.5" y="217.4082">Fragen: Frage</text><text fill="#000000" font-family="sans-serif" font-size="14" lengthAdjust="spacing" textLength="85" x="322.5" y="235.0176">Author: string</text><text fill="#000000" font-family="sans-serif" font-size="14" lengthAdjust="spacing" textLength="104" x="322.5" y="252.627">Copyright: string</text></g><g id="elem_Frage"><rect fill="#F1F1F1" height="188.0938" style="stroke:#181818;stroke-width:0.5;" width="236" x="649" y="62.5"/><text fill="#000000" font-family="sans-serif" font-size="14" lengthAdjust="spacing" textLength="38" x="748" y="79.0332">Frage</text><line style="stroke:#181818;stroke-width:0.5;" x1="650" x2="884" y1="84.1094" y2="84.1094"/><text fill="#000000" font-family="sans-serif" font-size="14" lengthAdjust="spacing" textLength="146" x="655" y="102.6426">FragenID_intern: string</text><text fill="#000000" font-family="sans-serif" font-size="14" lengthAdjust="spacing" textLength="189" x="655" y="120.252">FragenID_Standard_ID: string</text><text fill="#000000" font-family="sans-serif" font-size="14" lengthAdjust="spacing" textLength="222" x="655" y="137.8613">FragenID_Standard_System: string</text><text fill="#000000" font-family="sans-serif" font-size="14" lengthAdjust="spacing" textLength="224" x="655" y="155.4707">FragenID_Standard_Version: string</text><text fill="#000000" font-family="sans-serif" font-size="14" lengthAdjust="spacing" textLength="132" x="655" y="173.0801">Fragetext: i18nString</text><text fill="#000000" font-family="sans-serif" font-size="14" lengthAdjust="spacing" textLength="214" x="655" y="190.6895">Frage_Ausf&#252;llhinweise: i18nString</text><text fill="#000000" font-family="sans-serif" font-size="14" lengthAdjust="spacing" textLength="146" x="655" y="208.2988">Anzeigemodalit&#228;t: code</text><text fill="#000000" font-family="sans-serif" font-size="14" lengthAdjust="spacing" textLength="180" x="655" y="225.9082">Angezeigt_wenn: Expression</text><text fill="#000000" font-family="sans-serif" font-size="14" lengthAdjust="spacing" textLength="216" x="655" y="243.5176">Antwort_Vorlage: Antwort_Vorlage</text></g><g id="elem_Antwort_Vorlage"><rect fill="#F1F1F1" height="47.2188" style="stroke:#181818;stroke-width:0.5;" width="118" x="928" y="133"/><text fill="#000000" font-family="sans-serif" font-size="14" lengthAdjust="spacing" textLength="104" x="935" y="149.5332">Antwort_Vorlage</text><line style="stroke:#181818;stroke-width:0.5;" x1="929" x2="1045" y1="154.6094" y2="154.6094"/><text fill="#000000" font-family="sans-serif" font-size="14" lengthAdjust="spacing" textLength="105" x="934" y="173.1426">Antworttyp: code</text></g><g id="elem_Antwort_String"><rect fill="#F1F1F1" height="64.8281" style="stroke:#181818;stroke-width:0.5;" width="133" x="838.5" y="358"/><text fill="#000000" font-family="sans-serif" font-size="14" lengthAdjust="spacing" textLength="92" x="859" y="374.5332">Antwort_String</text><line style="stroke:#181818;stroke-width:0.5;" x1="839.5" x2="970.5" y1="379.6094" y2="379.6094"/><text fill="#000000" font-family="sans-serif" font-size="14" lengthAdjust="spacing" textLength="118" x="844.5" y="398.1426">minLength: Integer</text><text fill="#000000" font-family="sans-serif" font-size="14" lengthAdjust="spacing" textLength="121" x="844.5" y="415.752">maxLength: Integer</text></g><g id="elem_Antwort_Auswahl"><rect fill="#F1F1F1" height="82.4375" style="stroke:#181818;stroke-width:0.5;" width="334" x="38" y="349.5"/><text fill="#000000" font-family="sans-serif" font-size="14" lengthAdjust="spacing" textLength="107" x="151.5" y="366.0332">Antwort_Auswahl</text><line style="stroke:#181818;stroke-width:0.5;" x1="39" x2="371" y1="371.1094" y2="371.1094"/><text fill="#000000" font-family="sans-serif" font-size="14" lengthAdjust="spacing" textLength="169" x="44" y="389.6426">Mehrfachauswahl: boolean</text><text fill="#000000" font-family="sans-serif" font-size="14" lengthAdjust="spacing" textLength="252" x="44" y="407.252">Antwort_Standard_ValueSet: Reference</text><text fill="#000000" font-family="sans-serif" font-size="14" lengthAdjust="spacing" textLength="322" x="44" y="424.8613">Antwort_Auswahl_Option: Antwort_Auswahl_Option</text></g><g id="elem_Antwort_Auswahl_Option"><rect fill="#F1F1F1" height="135.2656" style="stroke:#181818;stroke-width:0.5;" width="388" x="415" y="323"/><text fill="#000000" font-family="sans-serif" font-size="14" lengthAdjust="spacing" textLength="157" x="530.5" y="339.5332">Antwort_Auswahl_Option</text><line style="stroke:#181818;stroke-width:0.5;" x1="416" x2="802" y1="344.6094" y2="344.6094"/><text fill="#000000" font-family="sans-serif" font-size="14" lengthAdjust="spacing" textLength="204" x="421" y="363.1426">Antwort_Option_Text: i18nString</text><text fill="#000000" font-family="sans-serif" font-size="14" lengthAdjust="spacing" textLength="163" x="421" y="380.752">exklusiveAntwort: boolean</text><text fill="#000000" font-family="sans-serif" font-size="14" lengthAdjust="spacing" textLength="282" x="421" y="398.3613">Antwort_Auswahl_Option_Code_intern: code</text><text fill="#000000" font-family="sans-serif" font-size="14" lengthAdjust="spacing" textLength="304" x="421" y="415.9707">Antwort_Auswahl_Option_Standard_Code: code</text><text fill="#000000" font-family="sans-serif" font-size="14" lengthAdjust="spacing" textLength="320" x="421" y="433.5801">Antwort_Auswahl_Option_Standard_System: string</text><text fill="#000000" font-family="sans-serif" font-size="14" lengthAdjust="spacing" textLength="376" x="421" y="451.1895">Antwort_Auswahl_Option_Standard_System_Version: string</text></g><g id="elem_Antwort_Integer"><rect fill="#F1F1F1" height="82.4375" style="stroke:#181818;stroke-width:0.5;" width="125" x="1006.5" y="349.5"/><text fill="#000000" font-family="sans-serif" font-size="14" lengthAdjust="spacing" textLength="99" x="1019.5" y="366.0332">Antwort_Integer</text><line style="stroke:#181818;stroke-width:0.5;" x1="1007.5" x2="1130.5" y1="371.1094" y2="371.1094"/><text fill="#000000" font-family="sans-serif" font-size="14" lengthAdjust="spacing" textLength="110" x="1012.5" y="389.6426">minValue: Integer</text><text fill="#000000" font-family="sans-serif" font-size="14" lengthAdjust="spacing" textLength="113" x="1012.5" y="407.252">maxValue: Integer</text><text fill="#000000" font-family="sans-serif" font-size="14" lengthAdjust="spacing" textLength="82" x="1012.5" y="424.8613">Einheit: code</text></g><g id="elem_Antwort_Datum"><rect fill="#F1F1F1" height="82.4375" style="stroke:#181818;stroke-width:0.5;" width="172" x="1167" y="349.5"/><text fill="#000000" font-family="sans-serif" font-size="14" lengthAdjust="spacing" textLength="96" x="1205" y="366.0332">Antwort_Datum</text><line style="stroke:#181818;stroke-width:0.5;" x1="1168" x2="1338" y1="371.1094" y2="371.1094"/><text fill="#000000" font-family="sans-serif" font-size="14" lengthAdjust="spacing" textLength="99" x="1173" y="389.6426">minDatum: date</text><text fill="#000000" font-family="sans-serif" font-size="14" lengthAdjust="spacing" textLength="102" x="1173" y="407.252">maxDatum: date</text><text fill="#000000" font-family="sans-serif" font-size="14" lengthAdjust="spacing" textLength="160" x="1173" y="424.8613">Datumsgenauigkeit: code</text></g><g id="elem_Ausgef&#252;llter_Fragebogen"><rect fill="#F1F1F1" height="117.6563" style="stroke:#181818;stroke-width:0.5;" width="330" x="1016" y="570"/><text fill="#000000" font-family="sans-serif" font-size="14" lengthAdjust="spacing" textLength="161" x="1100.5" y="586.5332">Ausgef&#252;llter_Fragebogen</text><line style="stroke:#181818;stroke-width:0.5;" x1="1017" x2="1345" y1="591.6094" y2="591.6094"/><text fill="#000000" font-family="sans-serif" font-size="14" lengthAdjust="spacing" textLength="208" x="1022" y="610.1426">betrifft: Referenz(Patient/Person)</text><text fill="#000000" font-family="sans-serif" font-size="14" lengthAdjust="spacing" textLength="318" x="1022" y="627.752">erfasst_durch: code (selbst, Arzt, Angeh&#246;riger etc)</text><text fill="#000000" font-family="sans-serif" font-size="14" lengthAdjust="spacing" textLength="146" x="1022" y="645.3613">Erfassungsdatum: date</text><text fill="#000000" font-family="sans-serif" font-size="14" lengthAdjust="spacing" textLength="164" x="1022" y="662.9707">Fragebogen: Fragebogen</text><text fill="#000000" font-family="sans-serif" font-size="14" lengthAdjust="spacing" textLength="169" x="1022" y="680.5801">Antworten: Antwort_erfasst</text></g><g id="elem_Antwort_erfasst"><rect fill="#F1F1F1" height="135.2656" style="stroke:#181818;stroke-width:0.5;" width="374" x="994" y="751"/><text fill="#000000" font-family="sans-serif" font-size="14" lengthAdjust="spacing" textLength="98" x="1132" y="767.5332">Antwort_erfasst</text><line style="stroke:#181818;stroke-width:0.5;" x1="995" x2="1367" y1="772.6094" y2="772.6094"/><text fill="#000000" font-family="sans-serif" font-size="14" lengthAdjust="spacing" textLength="146" x="1000" y="791.1426">FragenID_intern: string</text><text fill="#000000" font-family="sans-serif" font-size="14" lengthAdjust="spacing" textLength="189" x="1000" y="808.752">FragenID_Standard_ID: string</text><text fill="#000000" font-family="sans-serif" font-size="14" lengthAdjust="spacing" textLength="222" x="1000" y="826.3613">FragenID_Standard_System: string</text><text fill="#000000" font-family="sans-serif" font-size="14" lengthAdjust="spacing" textLength="224" x="1000" y="843.9707">FragenID_Standard_Version: string</text><text fill="#000000" font-family="sans-serif" font-size="14" lengthAdjust="spacing" textLength="291" x="1000" y="861.5801">Antwort_Datentyp: (code, integer, float, string)</text><text fill="#000000" font-family="sans-serif" font-size="14" lengthAdjust="spacing" textLength="362" x="1000" y="879.1895">Antwort_Code: Antwort_Auswahl_Option_Standard_Code</text></g><g id="elem_Score_Vorlage"><rect fill="#F1F1F1" height="117.6563" style="stroke:#181818;stroke-width:0.5;" width="255" x="1064.5" y="998"/><text fill="#000000" font-family="sans-serif" font-size="14" lengthAdjust="spacing" textLength="94" x="1145" y="1014.5332">Score_Vorlage</text><line style="stroke:#181818;stroke-width:0.5;" x1="1065.5" x2="1318.5" y1="1019.6094" y2="1019.6094"/><text fill="#000000" font-family="sans-serif" font-size="14" lengthAdjust="spacing" textLength="93" x="1070.5" y="1038.1426">ScoreID: string</text><text fill="#000000" font-family="sans-serif" font-size="14" lengthAdjust="spacing" textLength="149" x="1070.5" y="1055.752">ScoreID_Version: string</text><text fill="#000000" font-family="sans-serif" font-size="14" lengthAdjust="spacing" textLength="145" x="1070.5" y="1073.3613">ScoreName: i18nString</text><text fill="#000000" font-family="sans-serif" font-size="14" lengthAdjust="spacing" textLength="243" x="1070.5" y="1090.9707">Scoreberechnung: Score_Berechnung</text><text fill="#000000" font-family="sans-serif" font-size="14" lengthAdjust="spacing" textLength="114" x="1070.5" y="1108.5801">Dom&#228;ne: Dom&#228;ne</text></g><g id="elem_Score_berechnet"><rect fill="#F1F1F1" height="117.6563" style="stroke:#181818;stroke-width:0.5;" width="292" x="729" y="997.5"/><text fill="#000000" font-family="sans-serif" font-size="14" lengthAdjust="spacing" textLength="109" x="820.5" y="1014.0332">Score_berechnet</text><line style="stroke:#181818;stroke-width:0.5;" x1="730" x2="1020" y1="1019.1094" y2="1019.1094"/><text fill="#000000" font-family="sans-serif" font-size="14" lengthAdjust="spacing" textLength="93" x="735" y="1037.6426">ScoreID: string</text><text fill="#000000" font-family="sans-serif" font-size="14" lengthAdjust="spacing" textLength="196" x="735" y="1055.252">Score_Vorlage: Score_Vorlage</text><text fill="#000000" font-family="sans-serif" font-size="14" lengthAdjust="spacing" textLength="252" x="735" y="1072.8613">Score_Berechnung: Score_Berechnung</text><text fill="#000000" font-family="sans-serif" font-size="14" lengthAdjust="spacing" textLength="159" x="735" y="1090.4707">Berechnungsdatum: date</text><text fill="#000000" font-family="sans-serif" font-size="14" lengthAdjust="spacing" textLength="280" x="735" y="1108.0801">berechneter_Scorewert: (integer/float/string)</text></g><g id="elem_Score_Berechnung"><rect fill="#F1F1F1" height="82.4375" style="stroke:#181818;stroke-width:0.5;" width="292" x="1046" y="1179"/><text fill="#000000" font-family="sans-serif" font-size="14" lengthAdjust="spacing" textLength="122" x="1131" y="1195.5332">Score_Berechnung</text><line style="stroke:#181818;stroke-width:0.5;" x1="1047" x2="1337" y1="1200.6094" y2="1200.6094"/><text fill="#000000" font-family="sans-serif" font-size="14" lengthAdjust="spacing" textLength="177" x="1052" y="1219.1426">ScoreBerechnungsID: string</text><text fill="#000000" font-family="sans-serif" font-size="14" lengthAdjust="spacing" textLength="234" x="1052" y="1236.752">Score_Datentyp: (integer/float/string)</text><text fill="#000000" font-family="sans-serif" font-size="14" lengthAdjust="spacing" textLength="280" x="1052" y="1254.3613">Score_Berechnungs_Algoritmus: Expression</text></g><g id="elem_Fragebogen_Score"><rect fill="#F1F1F1" height="64.8281" style="stroke:#181818;stroke-width:0.5;" width="342" x="629" y="1321"/><text fill="#000000" font-family="sans-serif" font-size="14" lengthAdjust="spacing" textLength="123" x="738.5" y="1337.5332">Fragebogen_Score</text><line style="stroke:#181818;stroke-width:0.5;" x1="630" x2="970" y1="1342.6094" y2="1342.6094"/><text fill="#000000" font-family="sans-serif" font-size="14" lengthAdjust="spacing" textLength="221" x="635" y="1361.1426">Fragebogen_Vorlage: Fragebogen</text><text fill="#000000" font-family="sans-serif" font-size="14" lengthAdjust="spacing" textLength="330" x="635" y="1378.752">Ausgef&#252;llter_Fragebogen: Ausgef&#252;llter_Fragebogen</text></g><g id="elem_GMN28"><path d="M536,1454 L536,1496.7031 A0,0 0 0 0 536,1496.7031 L952,1496.7031 A0,0 0 0 0 952,1496.7031 L952,1464 L942,1454 L757.69,1454 L785.29,1386.03 L749.69,1454 L536,1454 A0,0 0 0 0 536,1454 " fill="#FEFFDD" style="stroke:#181818;stroke-width:0.5;"/><path d="M942,1454 L942,1464 L952,1464 L942,1454 " fill="#FEFFDD" style="stroke:#181818;stroke-width:0.5;"/><text fill="#000000" font-family="sans-serif" font-size="13" lengthAdjust="spacing" textLength="301" x="542" y="1472.4951">Scoreberechnung mit Input ausgef&#252;llter Fragebogen.</text><text fill="#000000" font-family="sans-serif" font-size="13" lengthAdjust="spacing" textLength="395" x="542" y="1488.8467">Hier kann direkt die Definition der Fragebogenvorlage genutzt werden</text></g><g id="elem_Itembasierter_Score"><rect fill="#F1F1F1" height="47.2188" style="stroke:#181818;stroke-width:0.5;" width="259" x="1062.5" y="1330"/><text fill="#000000" font-family="sans-serif" font-size="14" lengthAdjust="spacing" textLength="127" x="1128.5" y="1346.5332">Itembasierter_Score</text><line style="stroke:#181818;stroke-width:0.5;" x1="1063.5" x2="1320.5" y1="1351.6094" y2="1351.6094"/><text fill="#000000" font-family="sans-serif" font-size="14" lengthAdjust="spacing" textLength="247" x="1068.5" y="1370.1426">Ausgef&#252;llte_Antworten: Antwort_erfasst</text></g><g id="elem_GMN34"><path d="M987,1446 L987,1505.0547 A0,0 0 0 0 987,1505.0547 L1397,1505.0547 A0,0 0 0 0 1397,1505.0547 L1397,1456 L1387,1446 L1196,1446 L1192,1377.07 L1188,1446 L987,1446 A0,0 0 0 0 987,1446 " fill="#FEFFDD" style="stroke:#181818;stroke-width:0.5;"/><path d="M1387,1446 L1387,1456 L1397,1456 L1387,1446 " fill="#FEFFDD" style="stroke:#181818;stroke-width:0.5;"/><text fill="#000000" font-family="sans-serif" font-size="13" lengthAdjust="spacing" textLength="259" x="993" y="1464.4951">Scoreberechnung mit Input einzelner Fragen.</text><text fill="#000000" font-family="sans-serif" font-size="13" lengthAdjust="spacing" textLength="385" x="993" y="1480.8467">Hier m&#252;ssen alle Informationen in den Fragen selbst enthalten sein</text><text fill="#000000" font-family="sans-serif" font-size="13" lengthAdjust="spacing" textLength="125" x="993" y="1497.1982">(Datum, Patient, etc.)</text></g><g id="elem_Score_Mapping"><rect fill="#F1F1F1" height="82.4375" style="stroke:#181818;stroke-width:0.5;" width="158" x="536" y="1015.5"/><text fill="#000000" font-family="sans-serif" font-size="14" lengthAdjust="spacing" textLength="99" x="565.5" y="1032.0332">Score_Mapping</text><line style="stroke:#181818;stroke-width:0.5;" x1="537" x2="693" y1="1037.1094" y2="1037.1094"/><text fill="#000000" font-family="sans-serif" font-size="14" lengthAdjust="spacing" textLength="146" x="542" y="1055.6426">Source_ScoreID: string</text><text fill="#000000" font-family="sans-serif" font-size="14" lengthAdjust="spacing" textLength="143" x="542" y="1073.252">Target_ScoreID: string</text><text fill="#000000" font-family="sans-serif" font-size="14" lengthAdjust="spacing" textLength="116" x="542" y="1090.8613">Mapping: Mapping</text></g><g id="elem_Mapping"><rect fill="#F1F1F1" height="64.8281" style="stroke:#181818;stroke-width:0.5;" width="134" x="548" y="1187.5"/><text fill="#000000" font-family="sans-serif" font-size="14" lengthAdjust="spacing" textLength="54" x="588" y="1204.0332">Mapping</text><line style="stroke:#181818;stroke-width:0.5;" x1="549" x2="681" y1="1209.1094" y2="1209.1094"/><text fill="#000000" font-family="sans-serif" font-size="14" lengthAdjust="spacing" textLength="122" x="554" y="1227.6426">Source: Expression</text><text fill="#000000" font-family="sans-serif" font-size="14" lengthAdjust="spacing" textLength="119" x="554" y="1245.252">Target: Expression</text></g><g id="elem_Dom&#228;ne_Vorlage"><rect fill="#F1F1F1" height="82.4375" style="stroke:#181818;stroke-width:0.5;" width="185" x="1445.5" y="115.5"/><text fill="#000000" font-family="sans-serif" font-size="14" lengthAdjust="spacing" textLength="110" x="1483" y="132.0332">Dom&#228;ne_Vorlage</text><line style="stroke:#181818;stroke-width:0.5;" x1="1446.5" x2="1629.5" y1="137.1094" y2="137.1094"/><text fill="#000000" font-family="sans-serif" font-size="14" lengthAdjust="spacing" textLength="117" x="1451.5" y="155.6426">Dom&#228;nenID: string</text><text fill="#000000" font-family="sans-serif" font-size="14" lengthAdjust="spacing" textLength="173" x="1451.5" y="173.252">Dom&#228;nenID_Version: string</text><text fill="#000000" font-family="sans-serif" font-size="14" lengthAdjust="spacing" textLength="169" x="1451.5" y="190.8613">Dom&#228;nenName: i18nString</text></g><g id="elem_Dom&#228;nen_Skala"><rect fill="#F1F1F1" height="64.8281" style="stroke:#181818;stroke-width:0.5;" width="161" x="1665.5" y="124"/><text fill="#000000" font-family="sans-serif" font-size="14" lengthAdjust="spacing" textLength="104" x="1694" y="140.5332">Dom&#228;nen_Skala</text><line style="stroke:#181818;stroke-width:0.5;" x1="1666.5" x2="1825.5" y1="145.6094" y2="145.6094"/><text fill="#000000" font-family="sans-serif" font-size="14" lengthAdjust="spacing" textLength="146" x="1671.5" y="164.1426">Minimum: integer / float</text><text fill="#000000" font-family="sans-serif" font-size="14" lengthAdjust="spacing" textLength="149" x="1671.5" y="181.752">Maximum: integer / float</text></g><g id="elem_Dom&#228;nenScore_berechnet"><rect fill="#F1F1F1" height="100.0469" style="stroke:#181818;stroke-width:0.5;" width="292" x="1862" y="106.5"/><text fill="#000000" font-family="sans-serif" font-size="14" lengthAdjust="spacing" textLength="170" x="1923" y="123.0332">Dom&#228;nenScore_berechnet</text><line style="stroke:#181818;stroke-width:0.5;" x1="1863" x2="2153" y1="128.1094" y2="128.1094"/><text fill="#000000" font-family="sans-serif" font-size="14" lengthAdjust="spacing" textLength="93" x="1868" y="146.6426">ScoreID: string</text><text fill="#000000" font-family="sans-serif" font-size="14" lengthAdjust="spacing" textLength="196" x="1868" y="164.252">Score_Vorlage: Score_Vorlage</text><text fill="#000000" font-family="sans-serif" font-size="14" lengthAdjust="spacing" textLength="159" x="1868" y="181.8613">Berechnungsdatum: date</text><text fill="#000000" font-family="sans-serif" font-size="14" lengthAdjust="spacing" textLength="280" x="1868" y="199.4707">berechneter_Scorewert: (integer/float/string)</text></g><g id="elem_Dom&#228;nenScore_Berechnung"><rect fill="#F1F1F1" height="82.4375" style="stroke:#181818;stroke-width:0.5;" width="292" x="1445" y="349.5"/><text fill="#000000" font-family="sans-serif" font-size="14" lengthAdjust="spacing" textLength="183" x="1499.5" y="366.0332">Dom&#228;nenScore_Berechnung</text><line style="stroke:#181818;stroke-width:0.5;" x1="1446" x2="1736" y1="371.1094" y2="371.1094"/><text fill="#000000" font-family="sans-serif" font-size="14" lengthAdjust="spacing" textLength="177" x="1451" y="389.6426">ScoreBerechnungsID: string</text><text fill="#000000" font-family="sans-serif" font-size="14" lengthAdjust="spacing" textLength="234" x="1451" y="407.252">Score_Datentyp: (integer/float/string)</text><text fill="#000000" font-family="sans-serif" font-size="14" lengthAdjust="spacing" textLength="280" x="1451" y="424.8613">Score_Berechnungs_Algoritmus: Expression</text></g><g id="elem_Dom&#228;nenScore_Mapping"><rect fill="#F1F1F1" height="82.4375" style="stroke:#181818;stroke-width:0.5;" width="174" x="1772" y="349.5"/><text fill="#000000" font-family="sans-serif" font-size="14" lengthAdjust="spacing" textLength="160" x="1779" y="366.0332">Dom&#228;nenScore_Mapping</text><line style="stroke:#181818;stroke-width:0.5;" x1="1773" x2="1945" y1="371.1094" y2="371.1094"/><text fill="#000000" font-family="sans-serif" font-size="14" lengthAdjust="spacing" textLength="146" x="1778" y="389.6426">Source_ScoreID: string</text><text fill="#000000" font-family="sans-serif" font-size="14" lengthAdjust="spacing" textLength="143" x="1778" y="407.252">Target_ScoreID: string</text><text fill="#000000" font-family="sans-serif" font-size="14" lengthAdjust="spacing" textLength="116" x="1778" y="424.8613">Mapping: Mapping</text></g><g id="elem_Threshold"><rect fill="#F1F1F1" height="37.6094" style="stroke:#181818;stroke-width:0.5;" width="78" x="1512" y="1334.5"/><text fill="#000000" font-family="sans-serif" font-size="14" lengthAdjust="spacing" textLength="64" x="1519" y="1351.0332">Threshold</text><line style="stroke:#181818;stroke-width:0.5;" x1="1513" x2="1589" y1="1356.1094" y2="1356.1094"/></g><g id="elem_MCID"><rect fill="#F1F1F1" height="37.6094" style="stroke:#181818;stroke-width:0.5;" width="48" x="1625" y="1334.5"/><text fill="#000000" font-family="sans-serif" font-size="14" lengthAdjust="spacing" textLength="34" x="1632" y="1351.0332">MCID</text><line style="stroke:#181818;stroke-width:0.5;" x1="1626" x2="1672" y1="1356.1094" y2="1356.1094"/></g><g id="elem_Classification"><rect fill="#F1F1F1" height="37.6094" style="stroke:#181818;stroke-width:0.5;" width="97" x="1512.5" y="1456.5"/><text fill="#000000" font-family="sans-serif" font-size="14" lengthAdjust="spacing" textLength="83" x="1519.5" y="1473.0332">Classification</text><line style="stroke:#181818;stroke-width:0.5;" x1="1513.5" x2="1608.5" y1="1478.1094" y2="1478.1094"/></g><!--reverse link Fragebogen to Frage--><g id="link_Fragebogen_Frage"><path codeLine="31" d="M610.7256,214.0516 C624.4656,217.0416 626.8,215.25 640.66,214.39 " fill="none" id="Fragebogen-backto-Frage" style="stroke:#181818;stroke-width:1.0;"/><polygon fill="none" points="599,211.5,604.0122,216.6843,610.7256,214.0516,605.7133,208.8673,599,211.5" style="stroke:#181818;stroke-width:1.0;"/></g><!--reverse link Frage to Antwort_Vorlage--><g id="link_Frage_Antwort_Vorlage"><path codeLine="36" d="M897.5028,240.9184 C939.7328,253.4684 962.61,209.19 977.71,180.09 " fill="none" id="Frage-backto-Antwort_Vorlage" style="stroke:#181818;stroke-width:1.0;"/><polygon fill="none" points="886,237.5,890.6119,243.0435,897.5028,240.9184,892.8909,235.3749,886,237.5" style="stroke:#181818;stroke-width:1.0;"/></g><!--reverse link Antwort_Vorlage to Antwort_String--><g id="link_Antwort_Vorlage_Antwort_String"><path codeLine="42" d="M972.9905,197.1407 C958.2805,238.7507 932.94,310.45 916.16,357.93 " fill="none" id="Antwort_Vorlage-backto-Antwort_String" style="stroke:#181818;stroke-width:1.0;"/><polygon fill="none" points="978.99,180.17,967.3336,195.1409,978.6474,199.1406,978.99,180.17" style="stroke:#181818;stroke-width:1.0;"/></g><!--reverse link Antwort_Vorlage to Antwort_Auswahl--><g id="link_Antwort_Vorlage_Antwort_Auswahl"><path codeLine="59" d="M969.3941,196.6342 C957.4341,221.5242 942.51,244.02 910,263 C711.75,378.72 620.77,271.8 397,323 C371.38,328.86 344.41,336.94 319.05,345.46 " fill="none" id="Antwort_Vorlage-backto-Antwort_Auswahl" style="stroke:#181818;stroke-width:1.0;"/><polygon fill="none" points="977.19,180.41,963.986,194.0355,974.8021,199.2328,977.19,180.41" style="stroke:#181818;stroke-width:1.0;"/></g><!--reverse link Antwort_Auswahl to Antwort_Auswahl_Option--><g id="link_Antwort_Auswahl_Antwort_Auswahl_Option"><path codeLine="60" d="M384.846,420.4165 C398.506,422.6265 400.74,422.16 414.89,422.97 " fill="none" id="Antwort_Auswahl-backto-Antwort_Auswahl_Option" style="stroke:#181818;stroke-width:1.0;"/><polygon fill="none" points="373,418.5,378.2841,423.4069,384.846,420.4165,379.5618,415.5096,373,418.5" style="stroke:#181818;stroke-width:1.0;"/></g><!--reverse link Antwort_Vorlage to Antwort_Integer--><g id="link_Antwort_Vorlage_Antwort_Integer"><path codeLine="67" d="M1001.0076,197.1414 C1014.8676,236.3614 1037.51,300.4 1054.81,349.35 " fill="none" id="Antwort_Vorlage-backto-Antwort_Integer" style="stroke:#181818;stroke-width:1.0;"/><polygon fill="none" points="995.01,180.17,995.3504,199.1406,1006.6647,195.1422,995.01,180.17" style="stroke:#181818;stroke-width:1.0;"/></g><!--reverse link Antwort_Vorlage to Antwort_Datum--><g id="link_Antwort_Vorlage_Antwort_Datum"><path codeLine="74" d="M1004.0964,196.6001 C1014.6264,219.5501 1025.79,238.63 1050,263 C1086.26,299.5 1105.32,295.81 1149,323 C1162.55,331.44 1177.03,340.6 1190.74,349.34 " fill="none" id="Antwort_Vorlage-backto-Antwort_Datum" style="stroke:#181818;stroke-width:1.0;"/><polygon fill="none" points="996.59,180.24,998.643,199.1023,1009.5498,194.098,996.59,180.24" style="stroke:#181818;stroke-width:1.0;"/></g><!--reverse link Ausgef?llter_Fragebogen to Antwort_erfasst--><g id="link_Ausgef&#252;llter_Fragebogen_Antwort_erfasst"><path codeLine="95" d="M1359,675.5 C1384.27,675.5 1326.26,713.97 1276.32,750.87 " fill="none" id="Ausgef&#252;llter_Fragebogen-backto-Antwort_erfasst" style="stroke:#181818;stroke-width:1.0;"/><polygon fill="none" points="1347,675.5,1353,679.5,1359,675.5,1353,671.5,1347,675.5" style="stroke:#181818;stroke-width:1.0;"/></g><!--reverse link Score_Vorlage to Score_Berechnung--><g id="link_Score_Vorlage_Score_Berechnung"><path codeLine="119" d="M1052,1085.5 C999.66,1085.5 1077.87,1139.62 1132.87,1178.95 " fill="none" id="Score_Vorlage-backto-Score_Berechnung" style="stroke:#181818;stroke-width:1.0;"/><polygon fill="none" points="1064,1085.5,1058,1081.5,1052,1085.5,1058,1089.5,1064,1085.5" style="stroke:#181818;stroke-width:1.0;"/></g><!--reverse link Score_Berechnung to Fragebogen_Score--><g id="link_Score_Berechnung_Fragebogen_Score"><path codeLine="130" d="M1055.455,1266.806 C998.145,1286.036 947.54,1303.01 893.97,1320.98 " fill="none" id="Score_Berechnung-backto-Fragebogen_Score" style="stroke:#181818;stroke-width:1.0;"/><polygon fill="none" points="1072.52,1261.08,1053.5464,1261.1177,1057.3637,1272.4944,1072.52,1261.08" style="stroke:#181818;stroke-width:1.0;"/></g><!--reverse link Score_Berechnung to Itembasierter_Score--><g id="link_Score_Berechnung_Itembasierter_Score"><path codeLine="135" d="M1192,1279.17 C1192,1301.68 1192,1310.92 1192,1329.77 " fill="none" id="Score_Berechnung-backto-Itembasierter_Score" style="stroke:#181818;stroke-width:1.0;"/><polygon fill="none" points="1192,1261.17,1186,1279.17,1198,1279.17,1192,1261.17" style="stroke:#181818;stroke-width:1.0;"/></g><!--reverse link Score_Mapping to Mapping--><g id="link_Score_Mapping_Mapping"><path codeLine="153" d="M615,1109.84 C615,1137.49 615,1161.67 615,1187.27 " fill="none" id="Score_Mapping-backto-Mapping" style="stroke:#181818;stroke-width:1.0;"/><polygon fill="none" points="615,1097.84,611,1103.84,615,1109.84,619,1103.84,615,1097.84" style="stroke:#181818;stroke-width:1.0;"/></g><!--link Fragebogen_Vorlage to Ausgef?llte_Frageb?gen--><g id="link_Fragebogen_Vorlage_Ausgef&#252;llte_Frageb&#246;gen"><path codeLine="195" d="M1371.0243,287.5011 C1371.4281,294.0466 1371.8404,300.7289 1372.2594,307.5207 C1373.9355,334.6877 1375.7197,363.6059 1377.5038,392.5237 C1379.2878,421.4416 1381.0718,450.359 1382.7476,477.5245 C1383.5855,491.1072 1384.3964,504.252 1385.1666,516.7398 C1385.2629,518.3008 1385.3586,519.8515 1385.4536,521.3915 " fill="none" id="Fragebogen_Vorlage-Ausgef&#252;llte_Frageb&#246;gen" style="stroke:#181818;stroke-width:1.0;"/></g><!--link Ausgef?llte_Frageb?gen to Scores--><g id="link_Ausgef&#252;llte_Frageb&#246;gen_Scores"><path codeLine="196" d="M1400.0497,744.9897 C1400.3127,748.7837 1400.5795,752.6342 1400.8496,756.5355 C1401.3899,764.338 1401.9436,772.3434 1402.5073,780.5045 C1403.6347,796.8265 1404.8022,813.771 1405.9825,830.9598 C1408.3431,865.3375 1410.755,900.6925 1413,934 C1413.2238,937.3219 1413.4502,940.6949 1413.6783,944.1002 C1413.7923,945.8028 1413.9067,947.5135 1414.0213,949.2299 C1414.0357,949.4445 1414.05,949.6591 1414.0643,949.8738 " fill="none" id="Ausgef&#252;llte_Frageb&#246;gen-Scores" style="stroke:#181818;stroke-width:1.0;"/></g><!--link Scores to Abgeleitete_Metriken--><g id="link_Scores_Abgeleitete_Metriken"><path codeLine="197" d="M1429.0369,1099.8494 C1429.3498,1101.4979 1429.6696,1103.1829 1429.9959,1104.9022 C1435.2175,1132.4112 1442.1087,1168.7138 1449,1205.015 C1455.8913,1241.3162 1462.7825,1277.6163 1468.0041,1305.1203 C1468.3304,1306.8393 1468.6502,1308.524 1468.9631,1310.1721 " fill="none" id="Scores-Abgeleitete_Metriken" style="stroke:#181818;stroke-width:1.0;"/></g><!--SRC=[pLZDRkCs4BxhANXC07k3tWgX5s-SHGqqxQ8EzYhGrbXYJP46HSLEjdcRFiEUSlEBTKHH4YMH6xV0jkk3GyyFPpZppGoP0ztkQGRaWyBlZSn099-auZNfSqJm8pT_m5OxV4klFuxIhxI0v55oNkhpNo9bMKpO3p-AjLPCP465nMP_VbNFbNXJ_1EeaaaHap8aibecJ6XGRyYiDHKfLMcoMle51qBhfr93SO7WL_r3ildRKHULpgNgX3lwhJmyAPRbkcSPtaiqoSNdgJDVE_x_TNGD9ntERRAeojtvbVESYIEm4hoY2_4CB8D2ffGpX1Tkk9Mf4qsHGIsXaoC8zEFkT51GrZuv8leebMwn7Oy9Wp3tU8bZioPoRh8ojsbqap7QoAaEoz5F1yVVbzv278zrEpjpltyZaqsO78i54x-0o7GUanLY8GFLi-Z9nshS6Vlnqv_pL1x5V6J9wmHcy4XpxdXn3xdQqMrE6qvCDb9oeDDaz0YYl88rO5v_Xnqe45kO25ixoMy7RS3cfpk7yljfvQPfiepa8GHOEErvLR97i0hXSmrD9RUO-wusHy3rAdHngJN_eKgWQYzJcvIoMnLlWiJk7NdizL0VfQ4hh40wVPcq-1tYta382_i0vuw979YUbEQRnsmtyhcsfBegXeuPKanIgi7roaSsj1BR3grOjlzNpfajeWXJTh237GEQWUcn6fAcivs_z6EyFO0ZfPB9iEzSt002OxVhA_NvwYFL38I- -OZOaUAwhnTi0cMfaxHIsxmv2RagWMzAFICBzLn_O-FEpryG0fXEqDjU-SueuxsWJ3s1SXgqinw37PmkOPq9jmShGBx_iUga6iDU3vUhEhOpmXfWpiYEIuhHRVIk9ufDLxcazxZ82m2agsoeYta-2RY3nFLMubWUuixGFBFJq3tnjFHWS0o_lbfwMxZXRX2ssroOEsTZ_dr7wKjH5dYDnLtiOWgSHjLk1lfIt_iRoE3dIEZz9Jxs96-HTAvXlimUHwY7rfM5oOr1oOqBaXSoFM1lP7n2ntpmi0v6msPznowJ1S-aOhgeoi65pad4C9xnABa6ZPFOHVutJHCW_ykcIvYlquIg8iXn_1TI0zuXj9O5aRkfDo7OubJHECuEbIRKjUBiyAvN_faXPq-582bJiDVu1yWITammCu7JWUAZhKHSLlfP4yHCQfq6aHgN8t_6wbaqdnnY4EyLDhuDBT6X3fFkFSmTL1UrSByB7YkHBzu-Rou8EJ1yZN3HHcqIwkByMfRO32ddW2exgGfQ1nf9h8wsi7ga6OKOLfrJhWq11RhDhimedn4xNcVrV7ntFSp4j5plwU4mV1Ei9SvVI49DwO4gVAG5sNQ_k5qGptCqPDFx46likQoMCqbikszTo7OTrLURTfxOrZmSA9Re6IcM8podx5d1mTAAU6VBYyS3B80zvTHz5s795NMRjgsGt3IJsWdsoI_G1jrdvXlDeMyyN8RUVsz3PehneR__LPMvr_XD1XoV11ZnvBw-XE_7L_Y77DtF9Ky7jNcxMhg_RpdsKBPZMzEJ8anAvFdFtxo-o0NU3L7mGJ5l1suPsQkUsSVZ-Dy0]--></g></svg>