<?xml version="1.0" encoding="us-ascii" standalone="no"?><svg xmlns="http://www.w3.org/2000/svg" xmlns:xlink="http://www.w3.org/1999/xlink" contentStyleType="text/css" height="1527px" preserveAspectRatio="none" style="width:1704px;height:1527px;background:#FFFFFF;" version="1.1" viewBox="0 0 1704 1527" width="1704px" zoomAndPan="magnify"><defs/><g><!--cluster Fragebogen_Vorlage--><g id="cluster_Fragebogen_Vorlage"><path d="M8.5,6 L157.5,6 A3.75,3.75 0 0 1 160,8.5 L167,29.6094 L1368.5,29.6094 A2.5,2.5 0 0 1 1371,32.1094 L1371,479.5 A2.5,2.5 0 0 1 1368.5,482 L8.5,482 A2.5,2.5 0 0 1 6,479.5 L6,8.5 A2.5,2.5 0 0 1 8.5,6 " fill="none" style="stroke:#000000;stroke-width:1.5;"/><line style="stroke:#000000;stroke-width:1.5;" x1="6" x2="167" y1="29.6094" y2="29.6094"/><text fill="#000000" font-family="sans-serif" font-size="14" font-weight="bold" lengthAdjust="spacing" textLength="148" x="10" y="22.5332">Fragebogen_Vorlage</text></g><!--cluster Ausgef?llte_Frageb?gen--><g id="cluster_Ausgef&#252;llte_Frageb&#246;gen"><path d="M972.5,522 L1147.5,522 A3.75,3.75 0 0 1 1150,524.5 L1157,545.6094 L1397.5,545.6094 A2.5,2.5 0 0 1 1400,548.1094 L1400,907.5 A2.5,2.5 0 0 1 1397.5,910 L972.5,910 A2.5,2.5 0 0 1 970,907.5 L970,524.5 A2.5,2.5 0 0 1 972.5,522 " fill="none" style="stroke:#000000;stroke-width:1.5;"/><line style="stroke:#000000;stroke-width:1.5;" x1="970" x2="1157" y1="545.6094" y2="545.6094"/><text fill="#000000" font-family="sans-serif" font-size="14" font-weight="bold" lengthAdjust="spacing" textLength="174" x="974" y="538.5332">Ausgef&#252;llte_Frageb&#246;gen</text></g><!--cluster Scores--><g id="cluster_Scores"><path d="M242.5,950 L292.5,950 A3.75,3.75 0 0 1 295,952.5 L302,973.6094 L1426.5,973.6094 A2.5,2.5 0 0 1 1429,976.1094 L1429,1419.5 A2.5,2.5 0 0 1 1426.5,1422 L242.5,1422 A2.5,2.5 0 0 1 240,1419.5 L240,952.5 A2.5,2.5 0 0 1 242.5,950 " fill="none" style="stroke:#000000;stroke-width:1.5;"/><line style="stroke:#000000;stroke-width:1.5;" x1="240" x2="302" y1="973.6094" y2="973.6094"/><text fill="#000000" font-family="sans-serif" font-size="14" font-weight="bold" lengthAdjust="spacing" textLength="49" x="244" y="966.5332">Scores</text></g><!--cluster Abgeleitete_Metriken--><g id="cluster_Abgeleitete_Metriken"><path d="M1471.5,1305.5 L1624.5,1305.5 A3.75,3.75 0 0 1 1627,1308 L1634,1329.1094 L1694.5,1329.1094 A2.5,2.5 0 0 1 1697,1331.6094 L1697,1517.5 A2.5,2.5 0 0 1 1694.5,1520 L1471.5,1520 A2.5,2.5 0 0 1 1469,1517.5 L1469,1308 A2.5,2.5 0 0 1 1471.5,1305.5 " fill="none" style="stroke:#000000;stroke-width:1.5;"/><line style="stroke:#000000;stroke-width:1.5;" x1="1469" x2="1634" y1="1329.1094" y2="1329.1094"/><text fill="#000000" font-family="sans-serif" font-size="14" font-weight="bold" lengthAdjust="spacing" textLength="152" x="1473" y="1322.0332">Abgeleitete_Metriken</text></g><g id="elem_Fragebogen"><rect fill="#F1F1F1" height="205.7031" style="stroke:#181818;stroke-width:0.5;" width="252" x="346" y="54"/><text fill="#000000" font-family="sans-serif" font-size="14" lengthAdjust="spacing" textLength="78" x="433" y="70.5332">Fragebogen</text><line style="stroke:#181818;stroke-width:0.5;" x1="347" x2="597" y1="75.6094" y2="75.6094"/><text fill="#000000" font-family="sans-serif" font-size="14" lengthAdjust="spacing" textLength="240" x="352" y="94.1426">Fragebogen_Name_vollst&#228;ndig: string</text><text fill="#000000" font-family="sans-serif" font-size="14" lengthAdjust="spacing" textLength="240" x="352" y="111.752">Fragebogen_Name_Abk&#252;rzung: string</text><text fill="#000000" font-family="sans-serif" font-size="14" lengthAdjust="spacing" textLength="177" x="352" y="129.3613">Fragebogen_Version: string</text><text fill="#000000" font-family="sans-serif" font-size="14" lengthAdjust="spacing" textLength="178" x="352" y="146.9707">FragebogenID_intern: string</text><text fill="#000000" font-family="sans-serif" font-size="14" lengthAdjust="spacing" textLength="221" x="352" y="164.5801">FragebogenID_Standard_ID: string</text><text fill="#000000" font-family="sans-serif" font-size="14" lengthAdjust="spacing" textLength="222" x="352" y="182.1895">FragenID_Standard_System: string</text><text fill="#000000" font-family="sans-serif" font-size="14" lengthAdjust="spacing" textLength="224" x="352" y="199.7988">FragenID_Standard_Version: string</text><text fill="#000000" font-family="sans-serif" font-size="14" lengthAdjust="spacing" textLength="92" x="352" y="217.4082">Fragen: Frage</text><text fill="#000000" font-family="sans-serif" font-size="14" lengthAdjust="spacing" textLength="85" x="352" y="235.0176">Author: string</text><text fill="#000000" font-family="sans-serif" font-size="14" lengthAdjust="spacing" textLength="104" x="352" y="252.627">Copyright: string</text></g><g id="elem_Frage"><rect fill="#F1F1F1" height="188.0938" style="stroke:#181818;stroke-width:0.5;" width="236" x="649" y="62.5"/><text fill="#000000" font-family="sans-serif" font-size="14" lengthAdjust="spacing" textLength="38" x="748" y="79.0332">Frage</text><line style="stroke:#181818;stroke-width:0.5;" x1="650" x2="884" y1="84.1094" y2="84.1094"/><text fill="#000000" font-family="sans-serif" font-size="14" lengthAdjust="spacing" textLength="146" x="655" y="102.6426">FragenID_intern: string</text><text fill="#000000" font-family="sans-serif" font-size="14" lengthAdjust="spacing" textLength="189" x="655" y="120.252">FragenID_Standard_ID: string</text><text fill="#000000" font-family="sans-serif" font-size="14" lengthAdjust="spacing" textLength="222" x="655" y="137.8613">FragenID_Standard_System: string</text><text fill="#000000" font-family="sans-serif" font-size="14" lengthAdjust="spacing" textLength="224" x="655" y="155.4707">FragenID_Standard_Version: string</text><text fill="#000000" font-family="sans-serif" font-size="14" lengthAdjust="spacing" textLength="103" x="655" y="173.0801">Fragetext: string</text><text fill="#000000" font-family="sans-serif" font-size="14" lengthAdjust="spacing" textLength="185" x="655" y="190.6895">Frage_Ausf&#252;llhinweise: string</text><text fill="#000000" font-family="sans-serif" font-size="14" lengthAdjust="spacing" textLength="146" x="655" y="208.2988">Anzeigemodalit&#228;t: code</text><text fill="#000000" font-family="sans-serif" font-size="14" lengthAdjust="spacing" textLength="180" x="655" y="225.9082">Angezeigt_wenn: Expression</text><text fill="#000000" font-family="sans-serif" font-size="14" lengthAdjust="spacing" textLength="216" x="655" y="243.5176">Antwort_Vorlage: Antwort_Vorlage</text></g><g id="elem_Antwort_Vorlage"><rect fill="#F1F1F1" height="47.2188" style="stroke:#181818;stroke-width:0.5;" width="118" x="928" y="133"/><text fill="#000000" font-family="sans-serif" font-size="14" lengthAdjust="spacing" textLength="104" x="935" y="149.5332">Antwort_Vorlage</text><line style="stroke:#181818;stroke-width:0.5;" x1="929" x2="1045" y1="154.6094" y2="154.6094"/><text fill="#000000" font-family="sans-serif" font-size="14" lengthAdjust="spacing" textLength="105" x="934" y="173.1426">Antworttyp: code</text></g><g id="elem_Antwort_String"><rect fill="#F1F1F1" height="64.8281" style="stroke:#181818;stroke-width:0.5;" width="133" x="838.5" y="358"/><text fill="#000000" font-family="sans-serif" font-size="14" lengthAdjust="spacing" textLength="92" x="859" y="374.5332">Antwort_String</text><line style="stroke:#181818;stroke-width:0.5;" x1="839.5" x2="970.5" y1="379.6094" y2="379.6094"/><text fill="#000000" font-family="sans-serif" font-size="14" lengthAdjust="spacing" textLength="118" x="844.5" y="398.1426">minLength: Integer</text><text fill="#000000" font-family="sans-serif" font-size="14" lengthAdjust="spacing" textLength="121" x="844.5" y="415.752">maxLength: Integer</text></g><g id="elem_Antwort_Auswahl"><rect fill="#F1F1F1" height="82.4375" style="stroke:#181818;stroke-width:0.5;" width="334" x="38" y="349.5"/><text fill="#000000" font-family="sans-serif" font-size="14" lengthAdjust="spacing" textLength="107" x="151.5" y="366.0332">Antwort_Auswahl</text><line style="stroke:#181818;stroke-width:0.5;" x1="39" x2="371" y1="371.1094" y2="371.1094"/><text fill="#000000" font-family="sans-serif" font-size="14" lengthAdjust="spacing" textLength="169" x="44" y="389.6426">Mehrfachauswahl: boolean</text><text fill="#000000" font-family="sans-serif" font-size="14" lengthAdjust="spacing" textLength="252" x="44" y="407.252">Antwort_Standard_ValueSet: Reference</text><text fill="#000000" font-family="sans-serif" font-size="14" lengthAdjust="spacing" textLength="322" x="44" y="424.8613">Antwort_Auswahl_Option: Antwort_Auswahl_Option</text></g><g id="elem_Antwort_Auswahl_Option"><rect fill="#F1F1F1" height="135.2656" style="stroke:#181818;stroke-width:0.5;" width="388" x="415" y="323"/><text fill="#000000" font-family="sans-serif" font-size="14" lengthAdjust="spacing" textLength="157" x="530.5" y="339.5332">Antwort_Auswahl_Option</text><line style="stroke:#181818;stroke-width:0.5;" x1="416" x2="802" y1="344.6094" y2="344.6094"/><text fill="#000000" font-family="sans-serif" font-size="14" lengthAdjust="spacing" textLength="175" x="421" y="363.1426">Antwort_Option_Text: string</text><text fill="#000000" font-family="sans-serif" font-size="14" lengthAdjust="spacing" textLength="163" x="421" y="380.752">exklusiveAntwort: boolean</text><text fill="#000000" font-family="sans-serif" font-size="14" lengthAdjust="spacing" textLength="282" x="421" y="398.3613">Antwort_Auswahl_Option_Code_intern: code</text><text fill="#000000" font-family="sans-serif" font-size="14" lengthAdjust="spacing" textLength="304" x="421" y="415.9707">Antwort_Auswahl_Option_Standard_Code: code</text><text fill="#000000" font-family="sans-serif" font-size="14" lengthAdjust="spacing" textLength="320" x="421" y="433.5801">Antwort_Auswahl_Option_Standard_System: string</text><text fill="#000000" font-family="sans-serif" font-size="14" lengthAdjust="spacing" textLength="376" x="421" y="451.1895">Antwort_Auswahl_Option_Standard_System_Version: string</text></g><g id="elem_Antwort_Integer"><rect fill="#F1F1F1" height="82.4375" style="stroke:#181818;stroke-width:0.5;" width="125" x="1006.5" y="349.5"/><text fill="#000000" font-family="sans-serif" font-size="14" lengthAdjust="spacing" textLength="99" x="1019.5" y="366.0332">Antwort_Integer</text><line style="stroke:#181818;stroke-width:0.5;" x1="1007.5" x2="1130.5" y1="371.1094" y2="371.1094"/><text fill="#000000" font-family="sans-serif" font-size="14" lengthAdjust="spacing" textLength="110" x="1012.5" y="389.6426">minValue: Integer</text><text fill="#000000" font-family="sans-serif" font-size="14" lengthAdjust="spacing" textLength="113" x="1012.5" y="407.252">maxValue: Integer</text><text fill="#000000" font-family="sans-serif" font-size="14" lengthAdjust="spacing" textLength="82" x="1012.5" y="424.8613">Einheit: code</text></g><g id="elem_Antwort_Datum"><rect fill="#F1F1F1" height="82.4375" style="stroke:#181818;stroke-width:0.5;" width="172" x="1167" y="349.5"/><text fill="#000000" font-family="sans-serif" font-size="14" lengthAdjust="spacing" textLength="96" x="1205" y="366.0332">Antwort_Datum</text><line style="stroke:#181818;stroke-width:0.5;" x1="1168" x2="1338" y1="371.1094" y2="371.1094"/><text fill="#000000" font-family="sans-serif" font-size="14" lengthAdjust="spacing" textLength="99" x="1173" y="389.6426">minDatum: date</text><text fill="#000000" font-family="sans-serif" font-size="14" lengthAdjust="spacing" textLength="102" x="1173" y="407.252">maxDatum: date</text><text fill="#000000" font-family="sans-serif" font-size="14" lengthAdjust="spacing" textLength="160" x="1173" y="424.8613">Datumsgenauigkeit: code</text></g><g id="elem_Ausgef&#252;llter_Fragebogen"><rect fill="#F1F1F1" height="117.6563" style="stroke:#181818;stroke-width:0.5;" width="330" x="1016" y="570"/><text fill="#000000" font-family="sans-serif" font-size="14" lengthAdjust="spacing" textLength="161" x="1100.5" y="586.5332">Ausgef&#252;llter_Fragebogen</text><line style="stroke:#181818;stroke-width:0.5;" x1="1017" x2="1345" y1="591.6094" y2="591.6094"/><text fill="#000000" font-family="sans-serif" font-size="14" lengthAdjust="spacing" textLength="208" x="1022" y="610.1426">betrifft: Referenz(Patient/Person)</text><text fill="#000000" font-family="sans-serif" font-size="14" lengthAdjust="spacing" textLength="318" x="1022" y="627.752">erfasst_durch: code (selbst, Arzt, Angeh&#246;riger etc)</text><text fill="#000000" font-family="sans-serif" font-size="14" lengthAdjust="spacing" textLength="146" x="1022" y="645.3613">Erfassungsdatum: date</text><text fill="#000000" font-family="sans-serif" font-size="14" lengthAdjust="spacing" textLength="164" x="1022" y="662.9707">Fragebogen: Fragebogen</text><text fill="#000000" font-family="sans-serif" font-size="14" lengthAdjust="spacing" textLength="169" x="1022" y="680.5801">Antworten: Antwort_erfasst</text></g><g id="elem_Antwort_erfasst"><rect fill="#F1F1F1" height="135.2656" style="stroke:#181818;stroke-width:0.5;" width="374" x="994" y="751"/><text fill="#000000" font-family="sans-serif" font-size="14" lengthAdjust="spacing" textLength="98" x="1132" y="767.5332">Antwort_erfasst</text><line style="stroke:#181818;stroke-width:0.5;" x1="995" x2="1367" y1="772.6094" y2="772.6094"/><text fill="#000000" font-family="sans-serif" font-size="14" lengthAdjust="spacing" textLength="146" x="1000" y="791.1426">FragenID_intern: string</text><text fill="#000000" font-family="sans-serif" font-size="14" lengthAdjust="spacing" textLength="189" x="1000" y="808.752">FragenID_Standard_ID: string</text><text fill="#000000" font-family="sans-serif" font-size="14" lengthAdjust="spacing" textLength="222" x="1000" y="826.3613">FragenID_Standard_System: string</text><text fill="#000000" font-family="sans-serif" font-size="14" lengthAdjust="spacing" textLength="224" x="1000" y="843.9707">FragenID_Standard_Version: string</text><text fill="#000000" font-family="sans-serif" font-size="14" lengthAdjust="spacing" textLength="291" x="1000" y="861.5801">Antwort_Datentyp: (code, integer, float, string)</text><text fill="#000000" font-family="sans-serif" font-size="14" lengthAdjust="spacing" textLength="362" x="1000" y="879.1895">Antwort_Code: Antwort_Auswahl_Option_Standard_Code</text></g><g id="elem_Score_Vorlage"><rect fill="#F1F1F1" height="135.2656" style="stroke:#181818;stroke-width:0.5;" width="255" x="792.5" y="998"/><text fill="#000000" font-family="sans-serif" font-size="14" lengthAdjust="spacing" textLength="94" x="873" y="1014.5332">Score_Vorlage</text><line style="stroke:#181818;stroke-width:0.5;" x1="793.5" x2="1046.5" y1="1019.6094" y2="1019.6094"/><text fill="#000000" font-family="sans-serif" font-size="14" lengthAdjust="spacing" textLength="93" x="798.5" y="1038.1426">ScoreID: string</text><text fill="#000000" font-family="sans-serif" font-size="14" lengthAdjust="spacing" textLength="149" x="798.5" y="1055.752">ScoreID_Version: string</text><text fill="#000000" font-family="sans-serif" font-size="14" lengthAdjust="spacing" textLength="118" x="798.5" y="1073.3613">ScoreName: String</text><text fill="#000000" font-family="sans-serif" font-size="14" lengthAdjust="spacing" textLength="109" x="798.5" y="1090.9707">ScoreTitel: String</text><text fill="#000000" font-family="sans-serif" font-size="14" lengthAdjust="spacing" textLength="243" x="798.5" y="1108.5801">Scoreberechnung: Score_Berechnung</text><text fill="#000000" font-family="sans-serif" font-size="14" lengthAdjust="spacing" textLength="114" x="798.5" y="1126.1895">Dom&#228;ne: Dom&#228;ne</text></g><g id="elem_Score_berechnet"><rect fill="#F1F1F1" height="100.0469" style="stroke:#181818;stroke-width:0.5;" width="292" x="457" y="1015.5"/><text fill="#000000" font-family="sans-serif" font-size="14" lengthAdjust="spacing" textLength="109" x="548.5" y="1032.0332">Score_berechnet</text><line style="stroke:#181818;stroke-width:0.5;" x1="458" x2="748" y1="1037.1094" y2="1037.1094"/><text fill="#000000" font-family="sans-serif" font-size="14" lengthAdjust="spacing" textLength="93" x="463" y="1055.6426">ScoreID: string</text><text fill="#000000" font-family="sans-serif" font-size="14" lengthAdjust="spacing" textLength="196" x="463" y="1073.252">Score_Vorlage: Score_Vorlage</text><text fill="#000000" font-family="sans-serif" font-size="14" lengthAdjust="spacing" textLength="159" x="463" y="1090.8613">Berechnungsdatum: date</text><text fill="#000000" font-family="sans-serif" font-size="14" lengthAdjust="spacing" textLength="280" x="463" y="1108.4707">berechneter_Scorewert: (integer/float/string)</text></g><g id="elem_Score_Berechnung"><rect fill="#F1F1F1" height="82.4375" style="stroke:#181818;stroke-width:0.5;" width="292" x="1105" y="1197"/><text fill="#000000" font-family="sans-serif" font-size="14" lengthAdjust="spacing" textLength="122" x="1190" y="1213.5332">Score_Berechnung</text><line style="stroke:#181818;stroke-width:0.5;" x1="1106" x2="1396" y1="1218.6094" y2="1218.6094"/><text fill="#000000" font-family="sans-serif" font-size="14" lengthAdjust="spacing" textLength="177" x="1111" y="1237.1426">ScoreBerechnungsID: string</text><text fill="#000000" font-family="sans-serif" font-size="14" lengthAdjust="spacing" textLength="234" x="1111" y="1254.752">Score_Datentyp: (integer/float/string)</text><text fill="#000000" font-family="sans-serif" font-size="14" lengthAdjust="spacing" textLength="280" x="1111" y="1272.3613">Score_Berechnungs_Algoritmus: Expression</text></g><g id="elem_Fragebogen_Score"><rect fill="#F1F1F1" height="64.8281" style="stroke:#181818;stroke-width:0.5;" width="342" x="728" y="1205.5"/><text fill="#000000" font-family="sans-serif" font-size="14" lengthAdjust="spacing" textLength="123" x="837.5" y="1222.0332">Fragebogen_Score</text><line style="stroke:#181818;stroke-width:0.5;" x1="729" x2="1069" y1="1227.1094" y2="1227.1094"/><text fill="#000000" font-family="sans-serif" font-size="14" lengthAdjust="spacing" textLength="221" x="734" y="1245.6426">Fragebogen_Vorlage: Fragebogen</text><text fill="#000000" font-family="sans-serif" font-size="14" lengthAdjust="spacing" textLength="330" x="734" y="1263.252">Ausgef&#252;llter_Fragebogen: Ausgef&#252;llter_Fragebogen</text></g><g id="elem_GMN28"><path d="M756,1347 L756,1389.7031 A0,0 0 0 0 756,1389.7031 L1172,1389.7031 A0,0 0 0 0 1172,1389.7031 L1172,1357 L1162,1347 L957.59,1347 L915.07,1270.76 L949.59,1347 L756,1347 A0,0 0 0 0 756,1347 " fill="#FEFFDD" style="stroke:#181818;stroke-width:0.5;"/><path d="M1162,1347 L1162,1357 L1172,1357 L1162,1347 " fill="#FEFFDD" style="stroke:#181818;stroke-width:0.5;"/><text fill="#000000" font-family="sans-serif" font-size="13" lengthAdjust="spacing" textLength="301" x="762" y="1365.4951">Scoreberechnung mit Input ausgef&#252;llter Fragebogen.</text><text fill="#000000" font-family="sans-serif" font-size="13" lengthAdjust="spacing" textLength="395" x="762" y="1381.8467">Hier kann direkt die Definition der Fragebogenvorlage genutzt werden</text></g><g id="elem_Itembasierter_Score"><rect fill="#F1F1F1" height="47.2188" style="stroke:#181818;stroke-width:0.5;" width="259" x="433.5" y="1214.5"/><text fill="#000000" font-family="sans-serif" font-size="14" lengthAdjust="spacing" textLength="127" x="499.5" y="1231.0332">Itembasierter_Score</text><line style="stroke:#181818;stroke-width:0.5;" x1="434.5" x2="691.5" y1="1236.1094" y2="1236.1094"/><text fill="#000000" font-family="sans-serif" font-size="14" lengthAdjust="spacing" textLength="247" x="439.5" y="1254.6426">Ausgef&#252;llte_Antworten: Antwort_erfasst</text></g><g id="elem_GMN34"><path d="M311,1339 L311,1398.0547 A0,0 0 0 0 311,1398.0547 L721,1398.0547 A0,0 0 0 0 721,1398.0547 L721,1349 L711,1339 L530.52,1339 L554.71,1261.68 L522.52,1339 L311,1339 A0,0 0 0 0 311,1339 " fill="#FEFFDD" style="stroke:#181818;stroke-width:0.5;"/><path d="M711,1339 L711,1349 L721,1349 L711,1339 " fill="#FEFFDD" style="stroke:#181818;stroke-width:0.5;"/><text fill="#000000" font-family="sans-serif" font-size="13" lengthAdjust="spacing" textLength="259" x="317" y="1357.4951">Scoreberechnung mit Input einzelner Fragen.</text><text fill="#000000" font-family="sans-serif" font-size="13" lengthAdjust="spacing" textLength="385" x="317" y="1373.8467">Hier m&#252;ssen alle Informationen in den Fragen selbst enthalten sein</text><text fill="#000000" font-family="sans-serif" font-size="13" lengthAdjust="spacing" textLength="125" x="317" y="1390.1982">(Datum, Patient, etc.)</text></g><g id="elem_Score_Mapping"><rect fill="#F1F1F1" height="82.4375" style="stroke:#181818;stroke-width:0.5;" width="158" x="264" y="1024.5"/><text fill="#000000" font-family="sans-serif" font-size="14" lengthAdjust="spacing" textLength="99" x="293.5" y="1041.0332">Score_Mapping</text><line style="stroke:#181818;stroke-width:0.5;" x1="265" x2="421" y1="1046.1094" y2="1046.1094"/><text fill="#000000" font-family="sans-serif" font-size="14" lengthAdjust="spacing" textLength="146" x="270" y="1064.6426">Source_ScoreID: string</text><text fill="#000000" font-family="sans-serif" font-size="14" lengthAdjust="spacing" textLength="143" x="270" y="1082.252">Target_ScoreID: string</text><text fill="#000000" font-family="sans-serif" font-size="14" lengthAdjust="spacing" textLength="116" x="270" y="1099.8613">Mapping: Mapping</text></g><g id="elem_Mapping"><rect fill="#F1F1F1" height="64.8281" style="stroke:#181818;stroke-width:0.5;" width="134" x="264" y="1205.5"/><text fill="#000000" font-family="sans-serif" font-size="14" lengthAdjust="spacing" textLength="54" x="304" y="1222.0332">Mapping</text><line style="stroke:#181818;stroke-width:0.5;" x1="265" x2="397" y1="1227.1094" y2="1227.1094"/><text fill="#000000" font-family="sans-serif" font-size="14" lengthAdjust="spacing" textLength="122" x="270" y="1245.6426">Source: Expression</text><text fill="#000000" font-family="sans-serif" font-size="14" lengthAdjust="spacing" textLength="119" x="270" y="1263.252">Target: Expression</text></g><g id="elem_Threshold"><rect fill="#F1F1F1" height="37.6094" style="stroke:#181818;stroke-width:0.5;" width="78" x="1512" y="1349.5"/><text fill="#000000" font-family="sans-serif" font-size="14" lengthAdjust="spacing" textLength="64" x="1519" y="1366.0332">Threshold</text><line style="stroke:#181818;stroke-width:0.5;" x1="1513" x2="1589" y1="1371.1094" y2="1371.1094"/></g><g id="elem_MCID"><rect fill="#F1F1F1" height="37.6094" style="stroke:#181818;stroke-width:0.5;" width="48" x="1625" y="1349.5"/><text fill="#000000" font-family="sans-serif" font-size="14" lengthAdjust="spacing" textLength="34" x="1632" y="1366.0332">MCID</text><line style="stroke:#181818;stroke-width:0.5;" x1="1626" x2="1672" y1="1371.1094" y2="1371.1094"/></g><g id="elem_Classification"><rect fill="#F1F1F1" height="37.6094" style="stroke:#181818;stroke-width:0.5;" width="97" x="1512.5" y="1458"/><text fill="#000000" font-family="sans-serif" font-size="14" lengthAdjust="spacing" textLength="83" x="1519.5" y="1474.5332">Classification</text><line style="stroke:#181818;stroke-width:0.5;" x1="1513.5" x2="1608.5" y1="1479.6094" y2="1479.6094"/></g><!--reverse link Fragebogen to Frage--><g id="link_Fragebogen_Frage"><path codeLine="31" d="M610.7256,214.0516 C624.4656,217.0416 626.8,215.25 640.66,214.39 " fill="none" id="Fragebogen-backto-Frage" style="stroke:#181818;stroke-width:1.0;"/><polygon fill="none" points="599,211.5,604.0122,216.6843,610.7256,214.0516,605.7133,208.8673,599,211.5" style="stroke:#181818;stroke-width:1.0;"/></g><!--reverse link Frage to Antwort_Vorlage--><g id="link_Frage_Antwort_Vorlage"><path codeLine="36" d="M897.5028,240.9184 C939.7328,253.4684 962.61,209.19 977.71,180.09 " fill="none" id="Frage-backto-Antwort_Vorlage" style="stroke:#181818;stroke-width:1.0;"/><polygon fill="none" points="886,237.5,890.6119,243.0435,897.5028,240.9184,892.8909,235.3749,886,237.5" style="stroke:#181818;stroke-width:1.0;"/></g><!--reverse link Antwort_Vorlage to Antwort_String--><g id="link_Antwort_Vorlage_Antwort_String"><path codeLine="42" d="M972.9905,197.1407 C958.2805,238.7507 932.94,310.45 916.16,357.93 " fill="none" id="Antwort_Vorlage-backto-Antwort_String" style="stroke:#181818;stroke-width:1.0;"/><polygon fill="none" points="978.99,180.17,967.3336,195.1409,978.6474,199.1406,978.99,180.17" style="stroke:#181818;stroke-width:1.0;"/></g><!--reverse link Antwort_Vorlage to Antwort_Auswahl--><g id="link_Antwort_Vorlage_Antwort_Auswahl"><path codeLine="59" d="M969.3941,196.6342 C957.4341,221.5242 942.51,244.02 910,263 C711.75,378.72 620.77,271.8 397,323 C371.38,328.86 344.41,336.94 319.05,345.46 " fill="none" id="Antwort_Vorlage-backto-Antwort_Auswahl" style="stroke:#181818;stroke-width:1.0;"/><polygon fill="none" points="977.19,180.41,963.986,194.0355,974.8021,199.2328,977.19,180.41" style="stroke:#181818;stroke-width:1.0;"/></g><!--reverse link Antwort_Auswahl to Antwort_Auswahl_Option--><g id="link_Antwort_Auswahl_Antwort_Auswahl_Option"><path codeLine="60" d="M384.846,420.4165 C398.506,422.6265 400.74,422.16 414.89,422.97 " fill="none" id="Antwort_Auswahl-backto-Antwort_Auswahl_Option" style="stroke:#181818;stroke-width:1.0;"/><polygon fill="none" points="373,418.5,378.2841,423.4069,384.846,420.4165,379.5618,415.5096,373,418.5" style="stroke:#181818;stroke-width:1.0;"/></g><!--reverse link Antwort_Vorlage to Antwort_Integer--><g id="link_Antwort_Vorlage_Antwort_Integer"><path codeLine="67" d="M1001.0076,197.1414 C1014.8676,236.3614 1037.51,300.4 1054.81,349.35 " fill="none" id="Antwort_Vorlage-backto-Antwort_Integer" style="stroke:#181818;stroke-width:1.0;"/><polygon fill="none" points="995.01,180.17,995.3504,199.1406,1006.6647,195.1422,995.01,180.17" style="stroke:#181818;stroke-width:1.0;"/></g><!--reverse link Antwort_Vorlage to Antwort_Datum--><g id="link_Antwort_Vorlage_Antwort_Datum"><path codeLine="74" d="M1004.0964,196.6001 C1014.6264,219.5501 1025.79,238.63 1050,263 C1086.26,299.5 1105.32,295.81 1149,323 C1162.55,331.44 1177.03,340.6 1190.74,349.34 " fill="none" id="Antwort_Vorlage-backto-Antwort_Datum" style="stroke:#181818;stroke-width:1.0;"/><polygon fill="none" points="996.59,180.24,998.643,199.1023,1009.5498,194.098,996.59,180.24" style="stroke:#181818;stroke-width:1.0;"/></g><!--reverse link Ausgef?llter_Fragebogen to Antwort_erfasst--><g id="link_Ausgef&#252;llter_Fragebogen_Antwort_erfasst"><path codeLine="95" d="M1359,675.5 C1384.27,675.5 1326.26,713.97 1276.32,750.87 " fill="none" id="Ausgef&#252;llter_Fragebogen-backto-Antwort_erfasst" style="stroke:#181818;stroke-width:1.0;"/><polygon fill="none" points="1347,675.5,1353,679.5,1359,675.5,1353,671.5,1347,675.5" style="stroke:#181818;stroke-width:1.0;"/></g><!--reverse link Score_Vorlage to Score_Berechnung--><g id="link_Score_Vorlage_Score_Berechnung"><path codeLine="118" d="M1061,1103.5 C1076.54,1103.5 1049.11,1125.02 1059,1137 C1079.88,1162.28 1108.83,1181.95 1137.93,1196.89 " fill="none" id="Score_Vorlage-backto-Score_Berechnung" style="stroke:#181818;stroke-width:1.0;"/><polygon fill="none" points="1049,1103.5,1055,1107.5,1061,1103.5,1055,1099.5,1049,1103.5" style="stroke:#181818;stroke-width:1.0;"/></g><!--reverse link Score_Vorlage to Fragebogen_Score--><g id="link_Score_Vorlage_Fragebogen_Score"><path codeLine="128" d="M909.0772,1155.1947 C906.1672,1178.7947 905.27,1186.06 902.92,1205.18 " fill="none" id="Score_Vorlage-backto-Fragebogen_Score" style="stroke:#181818;stroke-width:1.0;"/><polygon fill="none" points="911.28,1137.33,903.1223,1154.4604,915.0321,1155.929,911.28,1137.33" style="stroke:#181818;stroke-width:1.0;"/></g><!--reverse link Score_Vorlage to Itembasierter_Score--><g id="link_Score_Vorlage_Itembasierter_Score"><path codeLine="133" d="M768.0283,1139.0793 C706.7183,1168.3693 654.49,1193.31 610.18,1214.47 " fill="none" id="Score_Vorlage-backto-Itembasierter_Score" style="stroke:#181818;stroke-width:1.0;"/><polygon fill="none" points="784.27,1131.32,765.4418,1133.6654,770.6147,1144.4932,784.27,1131.32" style="stroke:#181818;stroke-width:1.0;"/></g><!--reverse link Score_Mapping to Mapping--><g id="link_Score_Mapping_Mapping"><path codeLine="151" d="M339.3177,1118.8804 C337.1977,1149.0104 335.18,1177.62 333.22,1205.4 " fill="none" id="Score_Mapping-backto-Mapping" style="stroke:#181818;stroke-width:1.0;"/><polygon fill="none" points="340.16,1106.91,335.7487,1112.6144,339.3177,1118.8804,343.729,1113.176,340.16,1106.91" style="stroke:#181818;stroke-width:1.0;"/></g><!--link Fragebogen_Vorlage to Ausgef?llte_Frageb?gen--><g id="link_Fragebogen_Vorlage_Ausgef&#252;llte_Frageb&#246;gen"><path codeLine="163" d="M1371.0243,287.5011 C1371.4281,294.0466 1371.8404,300.7289 1372.2594,307.5207 C1373.9355,334.6877 1375.7197,363.6059 1377.5038,392.5237 C1379.2878,421.4416 1381.0718,450.359 1382.7476,477.5245 C1383.5855,491.1072 1384.3964,504.252 1385.1666,516.7398 C1385.2629,518.3008 1385.3586,519.8515 1385.4536,521.3915 " fill="none" id="Fragebogen_Vorlage-Ausgef&#252;llte_Frageb&#246;gen" style="stroke:#181818;stroke-width:1.0;"/></g><!--link Ausgef?llte_Frageb?gen to Scores--><g id="link_Ausgef&#252;llte_Frageb&#246;gen_Scores"><path codeLine="164" d="M1400.0731,743.5618 C1400.1061,744.0342 1400.1392,744.5076 1400.1723,744.9818 C1400.4372,748.7756 1400.7057,752.626 1400.9774,756.5272 C1401.5208,764.3295 1402.0768,772.3348 1402.6417,780.4957 C1403.7717,796.8175 1404.9376,813.7621 1406.1105,830.9514 C1408.4563,865.33 1410.83,900.6875 1413,934 C1413.2325,937.5675 1413.4667,941.19 1413.7015,944.8472 C1413.7601,945.7615 1413.8189,946.678 1413.8776,947.5963 C1413.907,948.0555 1413.9364,948.5151 1413.9658,948.9752 C1413.9805,949.2052 1413.9951,949.4354 1414.0098,949.6656 " fill="none" id="Ausgef&#252;llte_Frageb&#246;gen-Scores" style="stroke:#181818;stroke-width:1.0;"/></g><!--link Scores to Abgeleitete_Metriken--><g id="link_Scores_Abgeleitete_Metriken"><path codeLine="165" d="M1429.0369,1109.7094 C1429.3498,1111.3915 1429.6696,1113.1107 1429.9959,1114.865 C1435.2175,1142.9338 1442.1087,1179.975 1449,1217.015 C1455.8913,1254.055 1462.7825,1291.0938 1468.0041,1319.1575 C1468.3304,1320.9115 1468.6502,1322.6304 1468.9631,1324.3121 " fill="none" id="Scores-Abgeleitete_Metriken" style="stroke:#181818;stroke-width:1.0;"/></g><!--SRC=[pLZDRkCs4BxhANXq07jp5tfnunGri6aNTR1NWRP64ckAD2WgJhpDs_GPzfIRNwmZYfOeaKhSNhO-EFByS8Opt_me1xhRqnp8Bmg_jp87aNoLYZUaRn71Zzp-2Jljy2sz-JXAlz4IaYV9UQNFVukKvJ6fj68YdnHURlVdDtMgnRkYNq5LJ8ftHDQhX0aDwWEPZQOYfIfDrgkmu41eyr9fAAyGVDS_99k_7NLPwqAgJhYZtyd3Ys9veNkMuRr6NWw- -SwyT_qVTNKDpphCIPPrbPtVE2-OE0Ahm1DRYXEm74gPKiuGJdZGJgPE54KEZOHEZY3G_ltpGK7L-EA8wADK-eBbU4mOXBV7IHoRPo8N9XiBcput2QE3d6gm7FroSFnzxIt4yLYtixC8-pSokJ5XSYoMJ7m6aUiY9cl4G0wgPz7d4AjrP-p7JtyjKdaKYv6be1EOlICjkEF50nGgexk2jfoORANaGFrazCYXl8ODO5x_W0mKY1rumjPEylj16v25wSwbmdvQEJzDbf4yXe0AptjUL-m9hF3qdOPcaZlCUrUF8z065RgOD9h_KcMYKgzJyyhNhOWF0MBFZWBsUfYFKj0LrKGgGrcqs1rYti0d2Fa9pZqJ1J3jbUM7rxmS579jHNLT3Xqpf9YaL8FhLOXiQ1Ms75gpVF-Vd3D7H16cx627E0Oq1zDRDIHjLpj_xqVsvGAEb4gymTwvk0K4HfRrLNgQVQ6QWT2tNn0xKjpqzO8DeAfqajPgLxGt8RCA-BRISx9Kf-ORctPn_euGm7I2tlNAzqOPzu0g3GJAQSxEynZiu7G8wynqQx02vFy_IfrKOzYRmJ9hOZidh0Ncd6HSKenkgtVZARPTvPhUuo9l0Y1TPKDJp0ilu0uIDpk98tc8EqCBp4r33yJJqYU3O_ZDAXcJJO3po3JmC6kBQDuLmgoUhLS_TvI-GcM9comURXzyFBMgzZ3GrrwfNqe6FpkXtfTWGNJsC3VcW2Cq0sfc8N5h477h0kAL-5xtHiPkE-OdR-3WSTfiB-uScInvBXNJPLrvYriRt66Cub72cfrfuUKi_ARIXYVyljBb8DHJfl0_oN7S5r83RWjQovB8pFTc2eauFpGEhaEj2NMjE2TywfL_PSZPKo58oXJiDVu1ieAC2MPcRJfGVB8rXu-rFcc2Y4cjqo1Iut8K06WpSXRU3GR1NcD_sz8AlUdWwAvQxZowgbC7x0TCHA58Xrov8jZ0y6s3Yqkyl22NvxUgmeP7EGTKoQGgQHDY9B4cpiBgaNRSOK1rGRas11Je3fkPSJqdTeJEcnduwMQO0xzC7-ZXCDpvDn9dB2HJ7UQHAdpvccJRy-BB0mcyPaxP3BvejVPSreNZPVLoRZCwx7DarfT-Vzdcm74NmjwMF3JRntwykpmMQAMGF1quVBTUkR_lEAAAPMnd4XLX-ui2_zvOD1DiOc6A9ZUfHgiTRf6TSUQSWEDHz0y0]--></g></svg>