<?xml version="1.0" encoding="us-ascii" standalone="no"?><svg xmlns="http://www.w3.org/2000/svg" xmlns:xlink="http://www.w3.org/1999/xlink" contentStyleType="text/css" height="473px" preserveAspectRatio="none" style="width:3452px;height:473px;background:#FFFFFF;" version="1.1" viewBox="0 0 3452 473" width="3452px" zoomAndPan="magnify"><defs/><g><!--cluster Fragebogen_Vorlage--><g id="cluster_Fragebogen_Vorlage"><path d="M8.5,6 L157.5,6 A3.75,3.75 0 0 1 160,8.5 L167,29.6094 L1344.5,29.6094 A2.5,2.5 0 0 1 1347,32.1094 L1347,463.5 A2.5,2.5 0 0 1 1344.5,466 L8.5,466 A2.5,2.5 0 0 1 6,463.5 L6,8.5 A2.5,2.5 0 0 1 8.5,6 " fill="none" style="stroke:#000000;stroke-width:1.5;"/><line style="stroke:#000000;stroke-width:1.5;" x1="6" x2="167" y1="29.6094" y2="29.6094"/><text fill="#000000" font-family="sans-serif" font-size="14" font-weight="bold" lengthAdjust="spacing" textLength="148" x="10" y="22.5332">Fragebogen_Vorlage</text></g><!--cluster Ausgef?llte_Frageb?gen--><g id="cluster_Ausgef&#252;llte_Frageb&#246;gen"><path d="M2459.5,53.5 L2634.5,53.5 A3.75,3.75 0 0 1 2637,56 L2644,77.1094 L3225.5,77.1094 A2.5,2.5 0 0 1 3228,79.6094 L3228,221 A2.5,2.5 0 0 1 3225.5,223.5 L2459.5,223.5 A2.5,2.5 0 0 1 2457,221 L2457,56 A2.5,2.5 0 0 1 2459.5,53.5 " fill="none" style="stroke:#000000;stroke-width:1.5;"/><line style="stroke:#000000;stroke-width:1.5;" x1="2457" x2="2644" y1="77.1094" y2="77.1094"/><text fill="#000000" font-family="sans-serif" font-size="14" font-weight="bold" lengthAdjust="spacing" textLength="174" x="2461" y="70.0332">Ausgef&#252;llte_Frageb&#246;gen</text></g><!--cluster Scores--><g id="cluster_Scores"><path d="M1373.5,71.5 L1423.5,71.5 A3.75,3.75 0 0 1 1426,74 L1433,95.1094 L2430.5,95.1094 A2.5,2.5 0 0 1 2433,97.6094 L2433,428.5 A2.5,2.5 0 0 1 2430.5,431 L1373.5,431 A2.5,2.5 0 0 1 1371,428.5 L1371,74 A2.5,2.5 0 0 1 1373.5,71.5 " fill="none" style="stroke:#000000;stroke-width:1.5;"/><line style="stroke:#000000;stroke-width:1.5;" x1="1371" x2="1433" y1="95.1094" y2="95.1094"/><text fill="#000000" font-family="sans-serif" font-size="14" font-weight="bold" lengthAdjust="spacing" textLength="49" x="1375" y="88.0332">Scores</text></g><!--cluster abgeleitete_Metriken--><g id="cluster_abgeleitete_Metriken"><path d="M3254.5,93.5 L3406.5,93.5 A3.75,3.75 0 0 1 3409,96 L3416,117.1094 L3442.5,117.1094 A2.5,2.5 0 0 1 3445,119.6094 L3445,181 A2.5,2.5 0 0 1 3442.5,183.5 L3254.5,183.5 A2.5,2.5 0 0 1 3252,181 L3252,96 A2.5,2.5 0 0 1 3254.5,93.5 " fill="none" style="stroke:#000000;stroke-width:1.5;"/><line style="stroke:#000000;stroke-width:1.5;" x1="3252" x2="3416" y1="117.1094" y2="117.1094"/><text fill="#000000" font-family="sans-serif" font-size="14" font-weight="bold" lengthAdjust="spacing" textLength="151" x="3256" y="110.0332">abgeleitete_Metriken</text></g><g id="elem_Fragebogen"><rect fill="#F1F1F1" height="205.7031" style="stroke:#181818;stroke-width:0.5;" width="252" x="338" y="46"/><text fill="#000000" font-family="sans-serif" font-size="14" lengthAdjust="spacing" textLength="78" x="425" y="62.5332">Fragebogen</text><line style="stroke:#181818;stroke-width:0.5;" x1="339" x2="589" y1="67.6094" y2="67.6094"/><text fill="#000000" font-family="sans-serif" font-size="14" lengthAdjust="spacing" textLength="240" x="344" y="86.1426">Fragebogen_Name_vollst&#228;ndig: string</text><text fill="#000000" font-family="sans-serif" font-size="14" lengthAdjust="spacing" textLength="240" x="344" y="103.752">Fragebogen_Name_Abk&#252;rzung: string</text><text fill="#000000" font-family="sans-serif" font-size="14" lengthAdjust="spacing" textLength="177" x="344" y="121.3613">Fragebogen_Version: string</text><text fill="#000000" font-family="sans-serif" font-size="14" lengthAdjust="spacing" textLength="178" x="344" y="138.9707">FragebogenID_intern: string</text><text fill="#000000" font-family="sans-serif" font-size="14" lengthAdjust="spacing" textLength="221" x="344" y="156.5801">FragebogenID_Standard_ID: string</text><text fill="#000000" font-family="sans-serif" font-size="14" lengthAdjust="spacing" textLength="222" x="344" y="174.1895">FragenID_Standard_System: string</text><text fill="#000000" font-family="sans-serif" font-size="14" lengthAdjust="spacing" textLength="224" x="344" y="191.7988">FragenID_Standard_Version: string</text><text fill="#000000" font-family="sans-serif" font-size="14" lengthAdjust="spacing" textLength="92" x="344" y="209.4082">Fragen: Frage</text><text fill="#000000" font-family="sans-serif" font-size="14" lengthAdjust="spacing" textLength="85" x="344" y="227.0176">Author: string</text><text fill="#000000" font-family="sans-serif" font-size="14" lengthAdjust="spacing" textLength="104" x="344" y="244.627">Copyright: string</text></g><g id="elem_Frage"><rect fill="#F1F1F1" height="188.0938" style="stroke:#181818;stroke-width:0.5;" width="236" x="641" y="54.5"/><text fill="#000000" font-family="sans-serif" font-size="14" lengthAdjust="spacing" textLength="38" x="740" y="71.0332">Frage</text><line style="stroke:#181818;stroke-width:0.5;" x1="642" x2="876" y1="76.1094" y2="76.1094"/><text fill="#000000" font-family="sans-serif" font-size="14" lengthAdjust="spacing" textLength="146" x="647" y="94.6426">FragenID_intern: string</text><text fill="#000000" font-family="sans-serif" font-size="14" lengthAdjust="spacing" textLength="189" x="647" y="112.252">FragenID_Standard_ID: string</text><text fill="#000000" font-family="sans-serif" font-size="14" lengthAdjust="spacing" textLength="222" x="647" y="129.8613">FragenID_Standard_System: string</text><text fill="#000000" font-family="sans-serif" font-size="14" lengthAdjust="spacing" textLength="224" x="647" y="147.4707">FragenID_Standard_Version: string</text><text fill="#000000" font-family="sans-serif" font-size="14" lengthAdjust="spacing" textLength="103" x="647" y="165.0801">Fragetext: string</text><text fill="#000000" font-family="sans-serif" font-size="14" lengthAdjust="spacing" textLength="185" x="647" y="182.6895">Frage_Ausf&#252;llhinweise: string</text><text fill="#000000" font-family="sans-serif" font-size="14" lengthAdjust="spacing" textLength="146" x="647" y="200.2988">Anzeigemodalit&#228;t: code</text><text fill="#000000" font-family="sans-serif" font-size="14" lengthAdjust="spacing" textLength="180" x="647" y="217.9082">Angezeigt_wenn: Expression</text><text fill="#000000" font-family="sans-serif" font-size="14" lengthAdjust="spacing" textLength="216" x="647" y="235.5176">Antwort_Vorlage: Antwort_Vorlage</text></g><g id="elem_Antwort_Vorlage"><rect fill="#F1F1F1" height="47.2188" style="stroke:#181818;stroke-width:0.5;" width="118" x="920" y="125"/><text fill="#000000" font-family="sans-serif" font-size="14" lengthAdjust="spacing" textLength="104" x="927" y="141.5332">Antwort_Vorlage</text><line style="stroke:#181818;stroke-width:0.5;" x1="921" x2="1037" y1="146.6094" y2="146.6094"/><text fill="#000000" font-family="sans-serif" font-size="14" lengthAdjust="spacing" textLength="105" x="926" y="165.1426">Antworttyp: code</text></g><g id="elem_Antwort_String"><rect fill="#F1F1F1" height="64.8281" style="stroke:#181818;stroke-width:0.5;" width="133" x="830.5" y="350"/><text fill="#000000" font-family="sans-serif" font-size="14" lengthAdjust="spacing" textLength="92" x="851" y="366.5332">Antwort_String</text><line style="stroke:#181818;stroke-width:0.5;" x1="831.5" x2="962.5" y1="371.6094" y2="371.6094"/><text fill="#000000" font-family="sans-serif" font-size="14" lengthAdjust="spacing" textLength="118" x="836.5" y="390.1426">minLength: Integer</text><text fill="#000000" font-family="sans-serif" font-size="14" lengthAdjust="spacing" textLength="121" x="836.5" y="407.752">maxLength: Integer</text></g><g id="elem_Antwort_Auswahl"><rect fill="#F1F1F1" height="82.4375" style="stroke:#181818;stroke-width:0.5;" width="334" x="30" y="341.5"/><text fill="#000000" font-family="sans-serif" font-size="14" lengthAdjust="spacing" textLength="107" x="143.5" y="358.0332">Antwort_Auswahl</text><line style="stroke:#181818;stroke-width:0.5;" x1="31" x2="363" y1="363.1094" y2="363.1094"/><text fill="#000000" font-family="sans-serif" font-size="14" lengthAdjust="spacing" textLength="169" x="36" y="381.6426">Mehrfachauswahl: boolean</text><text fill="#000000" font-family="sans-serif" font-size="14" lengthAdjust="spacing" textLength="252" x="36" y="399.252">Antwort_Standard_ValueSet: Reference</text><text fill="#000000" font-family="sans-serif" font-size="14" lengthAdjust="spacing" textLength="322" x="36" y="416.8613">Antwort_Auswahl_Option: Antwort_Auswahl_Option</text></g><g id="elem_Antwort_Auswahl_Option"><rect fill="#F1F1F1" height="135.2656" style="stroke:#181818;stroke-width:0.5;" width="388" x="407" y="315"/><text fill="#000000" font-family="sans-serif" font-size="14" lengthAdjust="spacing" textLength="157" x="522.5" y="331.5332">Antwort_Auswahl_Option</text><line style="stroke:#181818;stroke-width:0.5;" x1="408" x2="794" y1="336.6094" y2="336.6094"/><text fill="#000000" font-family="sans-serif" font-size="14" lengthAdjust="spacing" textLength="175" x="413" y="355.1426">Antwort_Option_Text: string</text><text fill="#000000" font-family="sans-serif" font-size="14" lengthAdjust="spacing" textLength="163" x="413" y="372.752">exklusiveAntwort: boolean</text><text fill="#000000" font-family="sans-serif" font-size="14" lengthAdjust="spacing" textLength="282" x="413" y="390.3613">Antwort_Auswahl_Option_Code_intern: code</text><text fill="#000000" font-family="sans-serif" font-size="14" lengthAdjust="spacing" textLength="304" x="413" y="407.9707">Antwort_Auswahl_Option_Standard_Code: code</text><text fill="#000000" font-family="sans-serif" font-size="14" lengthAdjust="spacing" textLength="320" x="413" y="425.5801">Antwort_Auswahl_Option_Standard_System: string</text><text fill="#000000" font-family="sans-serif" font-size="14" lengthAdjust="spacing" textLength="376" x="413" y="443.1895">Antwort_Auswahl_Option_Standard_System_Version: string</text></g><g id="elem_Antwort_Integer"><rect fill="#F1F1F1" height="82.4375" style="stroke:#181818;stroke-width:0.5;" width="125" x="998.5" y="341.5"/><text fill="#000000" font-family="sans-serif" font-size="14" lengthAdjust="spacing" textLength="99" x="1011.5" y="358.0332">Antwort_Integer</text><line style="stroke:#181818;stroke-width:0.5;" x1="999.5" x2="1122.5" y1="363.1094" y2="363.1094"/><text fill="#000000" font-family="sans-serif" font-size="14" lengthAdjust="spacing" textLength="110" x="1004.5" y="381.6426">minValue: Integer</text><text fill="#000000" font-family="sans-serif" font-size="14" lengthAdjust="spacing" textLength="113" x="1004.5" y="399.252">maxValue: Integer</text><text fill="#000000" font-family="sans-serif" font-size="14" lengthAdjust="spacing" textLength="82" x="1004.5" y="416.8613">Einheit: code</text></g><g id="elem_Antwort_Datum"><rect fill="#F1F1F1" height="82.4375" style="stroke:#181818;stroke-width:0.5;" width="172" x="1159" y="341.5"/><text fill="#000000" font-family="sans-serif" font-size="14" lengthAdjust="spacing" textLength="96" x="1197" y="358.0332">Antwort_Datum</text><line style="stroke:#181818;stroke-width:0.5;" x1="1160" x2="1330" y1="363.1094" y2="363.1094"/><text fill="#000000" font-family="sans-serif" font-size="14" lengthAdjust="spacing" textLength="99" x="1165" y="381.6426">minDatum: date</text><text fill="#000000" font-family="sans-serif" font-size="14" lengthAdjust="spacing" textLength="102" x="1165" y="399.252">maxDatum: date</text><text fill="#000000" font-family="sans-serif" font-size="14" lengthAdjust="spacing" textLength="160" x="1165" y="416.8613">Datumsgenauigkeit: code</text></g><g id="elem_Ausgef&#252;llter_Fragebogen"><rect fill="#F1F1F1" height="117.6563" style="stroke:#181818;stroke-width:0.5;" width="330" x="2882" y="89.5"/><text fill="#000000" font-family="sans-serif" font-size="14" lengthAdjust="spacing" textLength="161" x="2966.5" y="106.0332">Ausgef&#252;llter_Fragebogen</text><line style="stroke:#181818;stroke-width:0.5;" x1="2883" x2="3211" y1="111.1094" y2="111.1094"/><text fill="#000000" font-family="sans-serif" font-size="14" lengthAdjust="spacing" textLength="213" x="2888" y="129.6426">subject: Referenz(Patient/Person)</text><text fill="#000000" font-family="sans-serif" font-size="14" lengthAdjust="spacing" textLength="318" x="2888" y="147.252">erfasst_durch: code (selbst, Arzt, Angeh&#246;riger etc)</text><text fill="#000000" font-family="sans-serif" font-size="14" lengthAdjust="spacing" textLength="146" x="2888" y="164.8613">Erfassungsdatum: date</text><text fill="#000000" font-family="sans-serif" font-size="14" lengthAdjust="spacing" textLength="164" x="2888" y="182.4707">Fragebogen: Fragebogen</text><text fill="#000000" font-family="sans-serif" font-size="14" lengthAdjust="spacing" textLength="169" x="2888" y="200.0801">Antworten: Antwort_erfasst</text></g><g id="elem_Antwort_erfasst"><rect fill="#F1F1F1" height="117.6563" style="stroke:#181818;stroke-width:0.5;" width="374" x="2473" y="89.5"/><text fill="#000000" font-family="sans-serif" font-size="14" lengthAdjust="spacing" textLength="98" x="2611" y="106.0332">Antwort_erfasst</text><line style="stroke:#181818;stroke-width:0.5;" x1="2474" x2="2846" y1="111.1094" y2="111.1094"/><text fill="#000000" font-family="sans-serif" font-size="14" lengthAdjust="spacing" textLength="146" x="2479" y="129.6426">FragenID_intern: string</text><text fill="#000000" font-family="sans-serif" font-size="14" lengthAdjust="spacing" textLength="189" x="2479" y="147.252">FragenID_Standard_ID: string</text><text fill="#000000" font-family="sans-serif" font-size="14" lengthAdjust="spacing" textLength="222" x="2479" y="164.8613">FragenID_Standard_System: string</text><text fill="#000000" font-family="sans-serif" font-size="14" lengthAdjust="spacing" textLength="224" x="2479" y="182.4707">FragenID_Standard_Version: string</text><text fill="#000000" font-family="sans-serif" font-size="14" lengthAdjust="spacing" textLength="362" x="2479" y="200.0801">Antwort_Code: Antwort_Auswahl_Option_Standard_Code</text></g><g id="elem_Score"><rect fill="#F1F1F1" height="64.8281" style="stroke:#181818;stroke-width:0.5;" width="161" x="2062.5" y="116"/><text fill="#000000" font-family="sans-serif" font-size="14" lengthAdjust="spacing" textLength="37" x="2124.5" y="132.5332">Score</text><line style="stroke:#181818;stroke-width:0.5;" x1="2063.5" x2="2222.5" y1="137.6094" y2="137.6094"/><text fill="#000000" font-family="sans-serif" font-size="14" lengthAdjust="spacing" textLength="93" x="2068.5" y="156.1426">ScoreID: string</text><text fill="#000000" font-family="sans-serif" font-size="14" lengthAdjust="spacing" textLength="149" x="2068.5" y="173.752">ScoreID_Version: string</text></g><g id="elem_Fragebogen_Score"><rect fill="#F1F1F1" height="82.4375" style="stroke:#181818;stroke-width:0.5;" width="342" x="1685" y="107.5"/><text fill="#000000" font-family="sans-serif" font-size="14" lengthAdjust="spacing" textLength="123" x="1794.5" y="124.0332">Fragebogen_Score</text><line style="stroke:#181818;stroke-width:0.5;" x1="1686" x2="2026" y1="129.1094" y2="129.1094"/><text fill="#000000" font-family="sans-serif" font-size="14" lengthAdjust="spacing" textLength="221" x="1691" y="147.6426">Fragebogen_Vorlage: Fragebogen</text><text fill="#000000" font-family="sans-serif" font-size="14" lengthAdjust="spacing" textLength="330" x="1691" y="165.252">Ausgef&#252;llter_Fragebogen: Ausgef&#252;llter_Fragebogen</text><text fill="#000000" font-family="sans-serif" font-size="14" lengthAdjust="spacing" textLength="190" x="1691" y="182.8613">Scoreberechnung: Expression</text></g><g id="elem_GMN24"><path d="M1832,361 L1832,403.7031 A0,0 0 0 0 1832,403.7031 L2248,403.7031 A0,0 0 0 0 2248,403.7031 L2248,371 L2238,361 L2027.63,361 L1887.84,189.65 L2019.63,361 L1832,361 A0,0 0 0 0 1832,361 " fill="#FEFFDD" style="stroke:#181818;stroke-width:0.5;"/><path d="M2238,361 L2238,371 L2248,371 L2238,361 " fill="#FEFFDD" style="stroke:#181818;stroke-width:0.5;"/><text fill="#000000" font-family="sans-serif" font-size="13" lengthAdjust="spacing" textLength="301" x="1838" y="379.4951">Scoreberechnung mit Input ausgef&#252;llter Fragebogen.</text><text fill="#000000" font-family="sans-serif" font-size="13" lengthAdjust="spacing" textLength="395" x="1838" y="395.8467">Hier kann direkt die Definition der Fragebogenvorlage genutzt werden</text></g><g id="elem_Itembasierter_Score"><rect fill="#F1F1F1" height="47.2188" style="stroke:#181818;stroke-width:0.5;" width="259" x="1390.5" y="125"/><text fill="#000000" font-family="sans-serif" font-size="14" lengthAdjust="spacing" textLength="127" x="1456.5" y="141.5332">Itembasierter_Score</text><line style="stroke:#181818;stroke-width:0.5;" x1="1391.5" x2="1648.5" y1="146.6094" y2="146.6094"/><text fill="#000000" font-family="sans-serif" font-size="14" lengthAdjust="spacing" textLength="247" x="1396.5" y="165.1426">Ausgef&#252;llte_Antworten: Antwort_erfasst</text></g><g id="elem_GMN28"><path d="M1387,353 L1387,412.0547 A0,0 0 0 0 1387,412.0547 L1797,412.0547 A0,0 0 0 0 1797,412.0547 L1797,363 L1787,353 L1587.15,353 L1527.03,172.17 L1579.15,353 L1387,353 A0,0 0 0 0 1387,353 " fill="#FEFFDD" style="stroke:#181818;stroke-width:0.5;"/><path d="M1787,353 L1787,363 L1797,363 L1787,353 " fill="#FEFFDD" style="stroke:#181818;stroke-width:0.5;"/><text fill="#000000" font-family="sans-serif" font-size="13" lengthAdjust="spacing" textLength="259" x="1393" y="371.4951">Scoreberechnung mit Input einzelner Fragen.</text><text fill="#000000" font-family="sans-serif" font-size="13" lengthAdjust="spacing" textLength="385" x="1393" y="387.8467">Hier m&#252;ssen alle Informationen in den Fragen selbst enthalten sein</text><text fill="#000000" font-family="sans-serif" font-size="13" lengthAdjust="spacing" textLength="125" x="1393" y="404.1982">(Datum, Patient, etc.)</text></g><g id="elem_Score_Mapping"><rect fill="#F1F1F1" height="82.4375" style="stroke:#181818;stroke-width:0.5;" width="158" x="2259" y="107.5"/><text fill="#000000" font-family="sans-serif" font-size="14" lengthAdjust="spacing" textLength="99" x="2288.5" y="124.0332">Score_Mapping</text><line style="stroke:#181818;stroke-width:0.5;" x1="2260" x2="2416" y1="129.1094" y2="129.1094"/><text fill="#000000" font-family="sans-serif" font-size="14" lengthAdjust="spacing" textLength="146" x="2265" y="147.6426">Source_ScoreID: string</text><text fill="#000000" font-family="sans-serif" font-size="14" lengthAdjust="spacing" textLength="143" x="2265" y="165.252">Target_ScoreID: string</text><text fill="#000000" font-family="sans-serif" font-size="14" lengthAdjust="spacing" textLength="116" x="2265" y="182.8613">Mapping: Mapping</text></g><g id="elem_Mapping"><rect fill="#F1F1F1" height="64.8281" style="stroke:#181818;stroke-width:0.5;" width="134" x="2283" y="350"/><text fill="#000000" font-family="sans-serif" font-size="14" lengthAdjust="spacing" textLength="54" x="2323" y="366.5332">Mapping</text><line style="stroke:#181818;stroke-width:0.5;" x1="2284" x2="2416" y1="371.6094" y2="371.6094"/><text fill="#000000" font-family="sans-serif" font-size="14" lengthAdjust="spacing" textLength="122" x="2289" y="390.1426">Source: Expression</text><text fill="#000000" font-family="sans-serif" font-size="14" lengthAdjust="spacing" textLength="119" x="2289" y="407.752">Target: Expression</text></g><g id="elem_Threshold"><rect fill="#F1F1F1" height="37.6094" style="stroke:#181818;stroke-width:0.5;" width="78" x="3351" y="129.5"/><text fill="#000000" font-family="sans-serif" font-size="14" lengthAdjust="spacing" textLength="64" x="3358" y="146.0332">Threshold</text><line style="stroke:#181818;stroke-width:0.5;" x1="3352" x2="3428" y1="151.1094" y2="151.1094"/></g><g id="elem_MCID"><rect fill="#F1F1F1" height="37.6094" style="stroke:#181818;stroke-width:0.5;" width="48" x="3268" y="129.5"/><text fill="#000000" font-family="sans-serif" font-size="14" lengthAdjust="spacing" textLength="34" x="3275" y="146.0332">MCID</text><line style="stroke:#181818;stroke-width:0.5;" x1="3269" x2="3315" y1="151.1094" y2="151.1094"/></g><!--reverse link Fragebogen to Frage--><g id="link_Fragebogen_Frage"><path codeLine="31" d="M602.7256,206.0516 C616.4656,209.0416 618.8,207.25 632.66,206.39 " fill="none" id="Fragebogen-backto-Frage" style="stroke:#181818;stroke-width:1.0;"/><polygon fill="none" points="591,203.5,596.0122,208.6843,602.7256,206.0516,597.7133,200.8673,591,203.5" style="stroke:#181818;stroke-width:1.0;"/></g><!--reverse link Frage to Antwort_Vorlage--><g id="link_Frage_Antwort_Vorlage"><path codeLine="36" d="M889.5028,232.9184 C931.7328,245.4684 954.61,201.19 969.71,172.09 " fill="none" id="Frage-backto-Antwort_Vorlage" style="stroke:#181818;stroke-width:1.0;"/><polygon fill="none" points="878,229.5,882.6119,235.0435,889.5028,232.9184,884.8909,227.3749,878,229.5" style="stroke:#181818;stroke-width:1.0;"/></g><!--reverse link Antwort_Vorlage to Antwort_String--><g id="link_Antwort_Vorlage_Antwort_String"><path codeLine="42" d="M964.9905,189.1407 C950.2805,230.7507 924.94,302.45 908.16,349.93 " fill="none" id="Antwort_Vorlage-backto-Antwort_String" style="stroke:#181818;stroke-width:1.0;"/><polygon fill="none" points="970.99,172.17,959.3336,187.1409,970.6474,191.1406,970.99,172.17" style="stroke:#181818;stroke-width:1.0;"/></g><!--reverse link Antwort_Vorlage to Antwort_Auswahl--><g id="link_Antwort_Vorlage_Antwort_Auswahl"><path codeLine="59" d="M961.724,188.6912 C949.994,213.5712 935.31,236.01 903,255 C704.72,371.54 613.21,263.73 389,315 C363.38,320.86 336.41,328.94 311.05,337.45 " fill="none" id="Antwort_Vorlage-backto-Antwort_Auswahl" style="stroke:#181818;stroke-width:1.0;"/><polygon fill="none" points="969.4,172.41,956.2969,186.1326,967.1511,191.2499,969.4,172.41" style="stroke:#181818;stroke-width:1.0;"/></g><!--reverse link Antwort_Auswahl to Antwort_Auswahl_Option--><g id="link_Antwort_Auswahl_Antwort_Auswahl_Option"><path codeLine="60" d="M376.846,412.4165 C390.506,414.6265 392.74,414.16 406.89,414.97 " fill="none" id="Antwort_Auswahl-backto-Antwort_Auswahl_Option" style="stroke:#181818;stroke-width:1.0;"/><polygon fill="none" points="365,410.5,370.2841,415.4069,376.846,412.4165,371.5618,407.5096,365,410.5" style="stroke:#181818;stroke-width:1.0;"/></g><!--reverse link Antwort_Vorlage to Antwort_Integer--><g id="link_Antwort_Vorlage_Antwort_Integer"><path codeLine="67" d="M993.0076,189.1414 C1006.8676,228.3614 1029.51,292.4 1046.81,341.35 " fill="none" id="Antwort_Vorlage-backto-Antwort_Integer" style="stroke:#181818;stroke-width:1.0;"/><polygon fill="none" points="987.01,172.17,987.3504,191.1406,998.6647,187.1422,987.01,172.17" style="stroke:#181818;stroke-width:1.0;"/></g><!--reverse link Antwort_Vorlage to Antwort_Datum--><g id="link_Antwort_Vorlage_Antwort_Datum"><path codeLine="74" d="M1018.5556,184.0011 C1063.5256,223.2211 1142.85,292.4 1198.96,341.35 " fill="none" id="Antwort_Vorlage-backto-Antwort_Datum" style="stroke:#181818;stroke-width:1.0;"/><polygon fill="none" points="1004.99,172.17,1014.6119,188.5229,1022.4993,179.4792,1004.99,172.17" style="stroke:#181818;stroke-width:1.0;"/></g><!--SRC=[pLRDRjD04BxdAVROIWtSBIvHKqGa2eXKNAsDFR6NEBlMxhXf0xmDpy2fjxmOuyt6NjlhDd21719dVh_vzPGysV0Cs5jDtokLWOo_A5tKf6yJHX-r-We9Udn7hp-UqWU-XVXU5ON1mq-PYYnY1hMGsQZmRBKvFEbz9PyL_GBQ22MV4LdCOo4Hz0ioI-GovJgD5_EmO4Te-MWGjcS8FekFoFQteSugp9LkX1lwjIeVjSXoR5cMzsCogC6t8PZdmlzNeICyO9WJpogpFZmLHIxa3eI1WTXCxa5ai5KfBmIr4nbALEfbKMPGIs2y0qd-RnvA3QR6uedWJcayzNBK9tJIs_P95DbdfgQs6bDNFhy8FKFUD3WEFfOUtX-jXoZgwpP-fc5yFPTBcoRFurR8zo0pp2Ese1x8GBSi_X1Y7U7qSRpvFatLJavxde8Wg7exdXSUYbl8zPedEJzo8hPIgW0-B4RRERoeO0bKry-m1WqoWO6mynD_BD4sMPZk1HN6wUI6PNAC-2xKgF2mAIeZxi49ZyVKTHDVKzsRUUmrRL2XoKcj-OSg8vDwdjfWVFs9UB51dEr9m5_RvhqID4CrKifG5LtlTdlUja-mvKSuDqBc870mbY-6UJ8KWZRdM6sxm2mfOYb7y565o9PcQENmIcIRlm9dJKmcLBBIlSGfeHdOtOeG7xVQuLVxoZu5u4dfEFXYDvKLRUPpV_69em29hpzHroXvsKuAZRun6AULJl9Z3Ep2GB4oUCLcUbz_qxhE3x-e-5H8mAHLlh7AT06OD90YRorxp_qs1sytE33ZIy49iF__9Nf2V5mBvooFvcIWXcWwOfaeUZLswszfNWhi_q1KZZvS55v-moTYt7Snl2x39Htfp6YKqmMxebvDScbFIkyey05BXK3B755jcLeFCOyPfF56sYjbXOpxM3mBhrhbTu8u6oubIuM63T8Fi3ciXHHs5QOTnNituVHOuHxP3dJgGWEPMiYT3RIWrbfnGpxgPFHptLa2Pmr9BoSXysUa1GITROKyHJP8n_RmP0nj6LuKG2fhfRUyJWQHH9qHwVJOSNjGw9XpYg4ca41ZxCBklIlcDj9LlL9UNOvdooAERtbPTe-dfQAL1V5OzzznJLViADlPYquFmvqpvZ5uhnwz-QmJnn-sIMUs-Ig3WjuST6l7jq3mDlrDVvUJiLmLQGVNzM9kxKn-0m00]--></g></svg>