<?xml version="1.0" encoding="us-ascii" standalone="no"?><svg xmlns="http://www.w3.org/2000/svg" xmlns:xlink="http://www.w3.org/1999/xlink" contentStyleType="text/css" height="1700px" preserveAspectRatio="none" style="width:2288px;height:1700px;background:#FFFFFF;" version="1.1" viewBox="0 0 2288 1700" width="2288px" zoomAndPan="magnify"><defs/><g><!--cluster Fragebogen_Vorlage--><g id="cluster_Fragebogen_Vorlage"><path d="M8.5,6 L157.5,6 A3.75,3.75 0 0 1 160,8.5 L167,29.6094 L2278.5,29.6094 A2.5,2.5 0 0 1 2281,32.1094 L2281,482.5 A2.5,2.5 0 0 1 2278.5,485 L8.5,485 A2.5,2.5 0 0 1 6,482.5 L6,8.5 A2.5,2.5 0 0 1 8.5,6 " fill="none" style="stroke:#000000;stroke-width:1.5;"/><line style="stroke:#000000;stroke-width:1.5;" x1="6" x2="167" y1="29.6094" y2="29.6094"/><text fill="#000000" font-family="sans-serif" font-size="14" font-weight="bold" lengthAdjust="spacing" textLength="148" x="10" y="22.5332">Fragebogen_Vorlage</text></g><!--cluster Ausgef?llte_Frageb?gen--><g id="cluster_Ausgef&#252;llte_Frageb&#246;gen"><path d="M36,1415 L211,1415 A3.75,3.75 0 0 1 213.5,1417.5 L220.5,1438.6094 L305,1438.6094 A2.5,2.5 0 0 1 307.5,1441.1094 L307.5,1690.5 A2.5,2.5 0 0 1 305,1693 L36,1693 A2.5,2.5 0 0 1 33.5,1690.5 L33.5,1417.5 A2.5,2.5 0 0 1 36,1415 " fill="none" style="stroke:#000000;stroke-width:1.5;"/><line style="stroke:#000000;stroke-width:1.5;" x1="33.5" x2="220.5" y1="1438.6094" y2="1438.6094"/><text fill="#000000" font-family="sans-serif" font-size="14" font-weight="bold" lengthAdjust="spacing" textLength="174" x="37.5" y="1431.5332">Ausgef&#252;llte_Frageb&#246;gen</text></g><!--cluster Scores--><g id="cluster_Scores"><path d="M21.5,1035 L71.5,1035 A3.75,3.75 0 0 1 74,1037.5 L81,1058.6094 L1830.5,1058.6094 A2.5,2.5 0 0 1 1833,1061.1094 L1833,1388.5 A2.5,2.5 0 0 1 1830.5,1391 L21.5,1391 A2.5,2.5 0 0 1 19,1388.5 L19,1037.5 A2.5,2.5 0 0 1 21.5,1035 " fill="none" style="stroke:#000000;stroke-width:1.5;"/><line style="stroke:#000000;stroke-width:1.5;" x1="19" x2="81" y1="1058.6094" y2="1058.6094"/><text fill="#000000" font-family="sans-serif" font-size="14" font-weight="bold" lengthAdjust="spacing" textLength="49" x="23" y="1051.5332">Scores</text></g><!--cluster Dom?ne--><g id="cluster_Dom&#228;ne"><path d="M39,509 L97,509 A3.75,3.75 0 0 1 99.5,511.5 L106.5,532.6094 L1232.5,532.6094 A2.5,2.5 0 0 1 1235,535.1094 L1235,1008.5 A2.5,2.5 0 0 1 1232.5,1011 L39,1011 A2.5,2.5 0 0 1 36.5,1008.5 L36.5,511.5 A2.5,2.5 0 0 1 39,509 " fill="none" style="stroke:#000000;stroke-width:1.5;"/><line style="stroke:#000000;stroke-width:1.5;" x1="36.5" x2="106.5" y1="532.6094" y2="532.6094"/><text fill="#000000" font-family="sans-serif" font-size="14" font-weight="bold" lengthAdjust="spacing" textLength="57" x="40.5" y="525.5332">Dom&#228;ne</text></g><g id="elem_Fragebogen"><rect fill="#F1F1F1" height="223.3125" style="stroke:#181818;stroke-width:0.5;" width="281" x="30" y="50.5"/><text fill="#000000" font-family="sans-serif" font-size="14" lengthAdjust="spacing" textLength="78" x="131.5" y="67.0332">Fragebogen</text><line style="stroke:#181818;stroke-width:0.5;" x1="31" x2="310" y1="72.1094" y2="72.1094"/><text fill="#000000" font-family="sans-serif" font-size="14" lengthAdjust="spacing" textLength="134" x="36" y="90.6426">FragebogenID: string</text><text fill="#000000" font-family="sans-serif" font-size="14" lengthAdjust="spacing" textLength="269" x="36" y="108.252">Fragebogen_Name_vollst&#228;ndig: i18nString</text><text fill="#000000" font-family="sans-serif" font-size="14" lengthAdjust="spacing" textLength="269" x="36" y="125.8613">Fragebogen_Name_Abk&#252;rzung: i18nString</text><text fill="#000000" font-family="sans-serif" font-size="14" lengthAdjust="spacing" textLength="177" x="36" y="143.4707">Fragebogen_Version: string</text><text fill="#000000" font-family="sans-serif" font-size="14" lengthAdjust="spacing" textLength="178" x="36" y="161.0801">FragebogenID_intern: string</text><text fill="#000000" font-family="sans-serif" font-size="14" lengthAdjust="spacing" textLength="208" x="36" y="178.6895">Fragebogen_Standard_ID: string</text><text fill="#000000" font-family="sans-serif" font-size="14" lengthAdjust="spacing" textLength="241" x="36" y="196.2988">Fragebogen_Standard_System: string</text><text fill="#000000" font-family="sans-serif" font-size="14" lengthAdjust="spacing" textLength="243" x="36" y="213.9082">Fragebogen_Standard_Version: string</text><text fill="#000000" font-family="sans-serif" font-size="14" lengthAdjust="spacing" textLength="92" x="36" y="231.5176">Fragen: Frage</text><text fill="#000000" font-family="sans-serif" font-size="14" lengthAdjust="spacing" textLength="85" x="36" y="249.127">Author: string</text><text fill="#000000" font-family="sans-serif" font-size="14" lengthAdjust="spacing" textLength="104" x="36" y="266.7363">Copyright: string</text></g><g id="elem_Frage"><rect fill="#F1F1F1" height="188.0938" style="stroke:#181818;stroke-width:0.5;" width="237" x="504.5" y="132"/><text fill="#000000" font-family="sans-serif" font-size="14" lengthAdjust="spacing" textLength="38" x="604" y="148.5332">Frage</text><line style="stroke:#181818;stroke-width:0.5;" x1="505.5" x2="740.5" y1="153.6094" y2="153.6094"/><text fill="#000000" font-family="sans-serif" font-size="14" lengthAdjust="spacing" textLength="146" x="510.5" y="172.1426">FragenID_intern: string</text><text fill="#000000" font-family="sans-serif" font-size="14" lengthAdjust="spacing" textLength="189" x="510.5" y="189.752">FragenID_Standard_ID: string</text><text fill="#000000" font-family="sans-serif" font-size="14" lengthAdjust="spacing" textLength="222" x="510.5" y="207.3613">FragenID_Standard_System: string</text><text fill="#000000" font-family="sans-serif" font-size="14" lengthAdjust="spacing" textLength="224" x="510.5" y="224.9707">FragenID_Standard_Version: string</text><text fill="#000000" font-family="sans-serif" font-size="14" lengthAdjust="spacing" textLength="132" x="510.5" y="242.5801">Fragetext: i18nString</text><text fill="#000000" font-family="sans-serif" font-size="14" lengthAdjust="spacing" textLength="214" x="510.5" y="260.1895">Frage_Ausf&#252;llhinweise: i18nString</text><text fill="#000000" font-family="sans-serif" font-size="14" lengthAdjust="spacing" textLength="146" x="510.5" y="277.7988">Anzeigemodalit&#228;t: code</text><text fill="#000000" font-family="sans-serif" font-size="14" lengthAdjust="spacing" textLength="225" x="510.5" y="295.4082">Frage_ausgef&#252;llt_wenn: Expression</text><text fill="#000000" font-family="sans-serif" font-size="14" lengthAdjust="spacing" textLength="216" x="510.5" y="313.0176">Antwort_Vorlage: Antwort_Vorlage</text></g><g id="elem_Antwort_Vorlage"><rect fill="#F1F1F1" height="47.2188" style="stroke:#181818;stroke-width:0.5;" width="118" x="1014" y="283.5"/><text fill="#000000" font-family="sans-serif" font-size="14" lengthAdjust="spacing" textLength="104" x="1021" y="300.0332">Antwort_Vorlage</text><line style="stroke:#181818;stroke-width:0.5;" x1="1015" x2="1131" y1="305.1094" y2="305.1094"/><text fill="#000000" font-family="sans-serif" font-size="14" lengthAdjust="spacing" textLength="105" x="1020" y="323.6426">Antworttyp: code</text></g><g id="elem_Antwort_Auswahl"><rect fill="#F1F1F1" height="82.4375" style="stroke:#181818;stroke-width:0.5;" width="334" x="1381" y="383"/><text fill="#000000" font-family="sans-serif" font-size="14" lengthAdjust="spacing" textLength="107" x="1494.5" y="399.5332">Antwort_Auswahl</text><line style="stroke:#181818;stroke-width:0.5;" x1="1382" x2="1714" y1="404.6094" y2="404.6094"/><text fill="#000000" font-family="sans-serif" font-size="14" lengthAdjust="spacing" textLength="169" x="1387" y="423.1426">Mehrfachauswahl: boolean</text><text fill="#000000" font-family="sans-serif" font-size="14" lengthAdjust="spacing" textLength="252" x="1387" y="440.752">Antwort_Standard_ValueSet: Reference</text><text fill="#000000" font-family="sans-serif" font-size="14" lengthAdjust="spacing" textLength="322" x="1387" y="458.3613">Antwort_Auswahl_Option: Antwort_Auswahl_Option</text></g><g id="elem_Antwort_String"><rect fill="#F1F1F1" height="64.8281" style="stroke:#181818;stroke-width:0.5;" width="233" x="1431.5" y="278.5"/><text fill="#000000" font-family="sans-serif" font-size="14" lengthAdjust="spacing" textLength="92" x="1502" y="295.0332">Antwort_String</text><line style="stroke:#181818;stroke-width:0.5;" x1="1432.5" x2="1663.5" y1="300.1094" y2="300.1094"/><text fill="#000000" font-family="sans-serif" font-size="14" lengthAdjust="spacing" textLength="218" x="1437.5" y="318.6426">Antwort_String_minLength: Integer</text><text fill="#000000" font-family="sans-serif" font-size="14" lengthAdjust="spacing" textLength="221" x="1437.5" y="336.252">Antwort_String_maxLength: Integer</text></g><g id="elem_Antwort_NumerischerWert"><rect fill="#F1F1F1" height="100.0469" style="stroke:#181818;stroke-width:0.5;" width="301" x="1397.5" y="143"/><text fill="#000000" font-family="sans-serif" font-size="14" lengthAdjust="spacing" textLength="164" x="1466" y="159.5332">Antwort_NumerischerWert</text><line style="stroke:#181818;stroke-width:0.5;" x1="1398.5" x2="1697.5" y1="164.6094" y2="164.6094"/><text fill="#000000" font-family="sans-serif" font-size="14" lengthAdjust="spacing" textLength="282" x="1403.5" y="183.1426">Antwort_NumerischerWert_kleinster: Number</text><text fill="#000000" font-family="sans-serif" font-size="14" lengthAdjust="spacing" textLength="289" x="1403.5" y="200.752">Antwort_NumerischerWert_groesster: Number</text><text fill="#000000" font-family="sans-serif" font-size="14" lengthAdjust="spacing" textLength="254" x="1403.5" y="218.3613">Antwort_NumerischerWert_Einheit: code</text><text fill="#000000" font-family="sans-serif" font-size="14" lengthAdjust="spacing" textLength="289" x="1403.5" y="235.9707">Antwort_NumerischerWert_Praezision: Integer</text></g><g id="elem_Antwort_Datum"><rect fill="#F1F1F1" height="64.8281" style="stroke:#181818;stroke-width:0.5;" width="172" x="1462" y="42.5"/><text fill="#000000" font-family="sans-serif" font-size="14" lengthAdjust="spacing" textLength="96" x="1500" y="59.0332">Antwort_Datum</text><line style="stroke:#181818;stroke-width:0.5;" x1="1463" x2="1633" y1="64.1094" y2="64.1094"/><text fill="#000000" font-family="sans-serif" font-size="14" lengthAdjust="spacing" textLength="99" x="1468" y="82.6426">minDatum: date</text><text fill="#000000" font-family="sans-serif" font-size="14" lengthAdjust="spacing" textLength="160" x="1468" y="100.252">Datumsgenauigkeit: code</text></g><g id="elem_Antwort_Auswahl_Option"><rect fill="#F1F1F1" height="135.2656" style="stroke:#181818;stroke-width:0.5;" width="388" x="1877" y="333.5"/><text fill="#000000" font-family="sans-serif" font-size="14" lengthAdjust="spacing" textLength="157" x="1992.5" y="350.0332">Antwort_Auswahl_Option</text><line style="stroke:#181818;stroke-width:0.5;" x1="1878" x2="2264" y1="355.1094" y2="355.1094"/><text fill="#000000" font-family="sans-serif" font-size="14" lengthAdjust="spacing" textLength="204" x="1883" y="373.6426">Antwort_Option_Text: i18nString</text><text fill="#000000" font-family="sans-serif" font-size="14" lengthAdjust="spacing" textLength="222" x="1883" y="391.252">Antwort_Option_Exklusive: boolean</text><text fill="#000000" font-family="sans-serif" font-size="14" lengthAdjust="spacing" textLength="282" x="1883" y="408.8613">Antwort_Auswahl_Option_Code_intern: code</text><text fill="#000000" font-family="sans-serif" font-size="14" lengthAdjust="spacing" textLength="304" x="1883" y="426.4707">Antwort_Auswahl_Option_Standard_Code: code</text><text fill="#000000" font-family="sans-serif" font-size="14" lengthAdjust="spacing" textLength="320" x="1883" y="444.0801">Antwort_Auswahl_Option_Standard_System: string</text><text fill="#000000" font-family="sans-serif" font-size="14" lengthAdjust="spacing" textLength="376" x="1883" y="461.6895">Antwort_Auswahl_Option_Standard_System_Version: string</text></g><g id="elem_Ausgef&#252;llter_Fragebogen"><rect fill="#F1F1F1" height="117.6563" style="stroke:#181818;stroke-width:0.5;" width="226" x="57.5" y="1555.5"/><text fill="#000000" font-family="sans-serif" font-size="14" lengthAdjust="spacing" textLength="161" x="90" y="1572.0332">Ausgef&#252;llter_Fragebogen</text><line style="stroke:#181818;stroke-width:0.5;" x1="58.5" x2="282.5" y1="1577.1094" y2="1577.1094"/><text fill="#000000" font-family="sans-serif" font-size="14" lengthAdjust="spacing" textLength="164" x="63.5" y="1595.6426">Fragebogen: Fragebogen</text><text fill="#000000" font-family="sans-serif" font-size="14" lengthAdjust="spacing" textLength="146" x="63.5" y="1613.252">Erfassungsdatum: date</text><text fill="#000000" font-family="sans-serif" font-size="14" lengthAdjust="spacing" textLength="197" x="63.5" y="1630.8613">Ausfuellende_Person: identifier</text><text fill="#000000" font-family="sans-serif" font-size="14" lengthAdjust="spacing" textLength="214" x="63.5" y="1648.4707">Ausfuellende_Person_Rolle: code</text><text fill="#000000" font-family="sans-serif" font-size="14" lengthAdjust="spacing" textLength="169" x="63.5" y="1666.0801">Antworten: Antwort_erfasst</text></g><g id="elem_Antwort_erfasst"><rect fill="#F1F1F1" height="64.8281" style="stroke:#181818;stroke-width:0.5;" width="233" x="54" y="1451.5"/><text fill="#000000" font-family="sans-serif" font-size="14" lengthAdjust="spacing" textLength="98" x="121.5" y="1468.0332">Antwort_erfasst</text><line style="stroke:#181818;stroke-width:0.5;" x1="55" x2="286" y1="1473.1094" y2="1473.1094"/><text fill="#000000" font-family="sans-serif" font-size="14" lengthAdjust="spacing" textLength="146" x="60" y="1491.6426">FragenID_intern: string</text><text fill="#000000" font-family="sans-serif" font-size="14" lengthAdjust="spacing" textLength="221" x="60" y="1509.252">Antwort: code, number, string, date</text></g><g id="elem_Score_Vorlage"><rect fill="#F1F1F1" height="135.2656" style="stroke:#181818;stroke-width:0.5;" width="255" x="43" y="1201.5"/><text fill="#000000" font-family="sans-serif" font-size="14" lengthAdjust="spacing" textLength="94" x="123.5" y="1218.0332">Score_Vorlage</text><line style="stroke:#181818;stroke-width:0.5;" x1="44" x2="297" y1="1223.1094" y2="1223.1094"/><text fill="#000000" font-family="sans-serif" font-size="14" lengthAdjust="spacing" textLength="150" x="49" y="1241.6426">ScoreVorlagenID: string</text><text fill="#000000" font-family="sans-serif" font-size="14" lengthAdjust="spacing" textLength="145" x="49" y="1259.252">ScoreName: i18nString</text><text fill="#000000" font-family="sans-serif" font-size="14" lengthAdjust="spacing" textLength="243" x="49" y="1276.8613">Scoreberechnung: Score_Berechnung</text><text fill="#000000" font-family="sans-serif" font-size="14" lengthAdjust="spacing" textLength="114" x="49" y="1294.4707">Dom&#228;ne: Dom&#228;ne</text><text fill="#000000" font-family="sans-serif" font-size="14" lengthAdjust="spacing" textLength="196" x="49" y="1312.0801">Dom&#228;nenskala: Dom&#228;nenskala</text><text fill="#000000" font-family="sans-serif" font-size="14" lengthAdjust="spacing" textLength="206" x="49" y="1329.6895">Score_Mapping: Score_Mapping</text></g><g id="elem_Score_berechnet"><rect fill="#F1F1F1" height="135.2656" style="stroke:#181818;stroke-width:0.5;" width="292" x="477" y="1197.5"/><text fill="#000000" font-family="sans-serif" font-size="14" lengthAdjust="spacing" textLength="109" x="568.5" y="1214.0332">Score_berechnet</text><line style="stroke:#181818;stroke-width:0.5;" x1="478" x2="768" y1="1219.1094" y2="1219.1094"/><text fill="#000000" font-family="sans-serif" font-size="14" lengthAdjust="spacing" textLength="93" x="483" y="1237.6426">ScoreID: string</text><text fill="#000000" font-family="sans-serif" font-size="14" lengthAdjust="spacing" textLength="196" x="483" y="1255.252">Score_Vorlage: Score_Vorlage</text><text fill="#000000" font-family="sans-serif" font-size="14" lengthAdjust="spacing" textLength="252" x="483" y="1272.8613">Score_Berechnung: Score_Berechnung</text><text fill="#000000" font-family="sans-serif" font-size="14" lengthAdjust="spacing" textLength="159" x="483" y="1290.4707">Berechnungsdatum: date</text><text fill="#000000" font-family="sans-serif" font-size="14" lengthAdjust="spacing" textLength="168" x="483" y="1308.0801">Score_Interpretation: code</text><text fill="#000000" font-family="sans-serif" font-size="14" lengthAdjust="spacing" textLength="280" x="483" y="1325.6895">berechneter_Scorewert: (integer/float/string)</text></g><g id="elem_Score_Berechnung"><rect fill="#F1F1F1" height="100.0469" style="stroke:#181818;stroke-width:0.5;" width="292" x="927" y="1246"/><text fill="#000000" font-family="sans-serif" font-size="14" lengthAdjust="spacing" textLength="122" x="1012" y="1262.5332">Score_Berechnung</text><line style="stroke:#181818;stroke-width:0.5;" x1="928" x2="1218" y1="1267.6094" y2="1267.6094"/><text fill="#000000" font-family="sans-serif" font-size="14" lengthAdjust="spacing" textLength="177" x="933" y="1286.1426">ScoreBerechnungsID: string</text><text fill="#000000" font-family="sans-serif" font-size="14" lengthAdjust="spacing" textLength="234" x="933" y="1303.752">Score_Datentyp: (integer/float/string)</text><text fill="#000000" font-family="sans-serif" font-size="14" lengthAdjust="spacing" textLength="280" x="933" y="1321.3613">Score_Berechnungs_Algoritmus: Expression</text><text fill="#000000" font-family="sans-serif" font-size="14" lengthAdjust="spacing" textLength="120" x="933" y="1338.9707">Score_Quelle : URI</text></g><g id="elem_Score_Fragebogen_Score"><rect fill="#F1F1F1" height="64.8281" style="stroke:#181818;stroke-width:0.5;" width="342" x="1377" y="1227.5"/><text fill="#000000" font-family="sans-serif" font-size="14" lengthAdjust="spacing" textLength="168" x="1464" y="1244.0332">Score_Fragebogen_Score</text><line style="stroke:#181818;stroke-width:0.5;" x1="1378" x2="1718" y1="1249.1094" y2="1249.1094"/><text fill="#000000" font-family="sans-serif" font-size="14" lengthAdjust="spacing" textLength="221" x="1383" y="1267.6426">Fragebogen_Vorlage: Fragebogen</text><text fill="#000000" font-family="sans-serif" font-size="14" lengthAdjust="spacing" textLength="330" x="1383" y="1285.252">Ausgef&#252;llter_Fragebogen: Ausgef&#252;llter_Fragebogen</text></g><g id="elem_GMN30"><path d="M1342,1149.5 L1342,1192.2031 L1754,1192.2031 L1754,1159.5 L1744,1149.5 L1342,1149.5 " fill="#FEFFDD" style="stroke:#181818;stroke-width:0.5;"/><path d="M1744,1149.5 L1744,1159.5 L1754,1159.5 L1744,1149.5 " fill="#FEFFDD" style="stroke:#181818;stroke-width:1.0;"/><text fill="#000000" font-family="sans-serif" font-size="13" lengthAdjust="spacing" textLength="301" x="1348" y="1167.9951">Scoreberechnung mit Input ausgef&#252;llter Fragebogen.</text><text fill="#000000" font-family="sans-serif" font-size="13" lengthAdjust="spacing" textLength="387" x="1348" y="1184.3467">Definition eines Scores, der aus einem Fragebogen generiert wurde</text></g><g id="elem_Score_Itembasierter_Score"><rect fill="#F1F1F1" height="47.2188" style="stroke:#181818;stroke-width:0.5;" width="259" x="1418.5" y="1327.5"/><text fill="#000000" font-family="sans-serif" font-size="14" lengthAdjust="spacing" textLength="172" x="1462" y="1344.0332">Score_Itembasierter_Score</text><line style="stroke:#181818;stroke-width:0.5;" x1="1419.5" x2="1676.5" y1="1349.1094" y2="1349.1094"/><text fill="#000000" font-family="sans-serif" font-size="14" lengthAdjust="spacing" textLength="247" x="1424.5" y="1367.6426">Ausgef&#252;llte_Antworten: Antwort_erfasst</text></g><g id="elem_GMN36"><path d="M1279,1071.5 L1279,1114.2031 L1817,1114.2031 L1817,1081.5 L1807,1071.5 L1279,1071.5 " fill="#FEFFDD" style="stroke:#181818;stroke-width:0.5;"/><path d="M1807,1071.5 L1807,1081.5 L1817,1081.5 L1807,1071.5 " fill="#FEFFDD" style="stroke:#181818;stroke-width:1.0;"/><text fill="#000000" font-family="sans-serif" font-size="13" lengthAdjust="spacing" textLength="259" x="1285" y="1089.9951">Scoreberechnung mit Input einzelner Fragen.</text><text fill="#000000" font-family="sans-serif" font-size="13" lengthAdjust="spacing" textLength="517" x="1285" y="1106.3467">Definition eines Scores, der aus mehreren Frageb&#246;gen / Itemdatenbanken generiert wurde</text></g><g id="elem_Score_Mapping"><rect fill="#F1F1F1" height="82.4375" style="stroke:#181818;stroke-width:0.5;" width="199" x="71" y="1076"/><text fill="#000000" font-family="sans-serif" font-size="14" lengthAdjust="spacing" textLength="99" x="121" y="1092.5332">Score_Mapping</text><line style="stroke:#181818;stroke-width:0.5;" x1="72" x2="269" y1="1097.6094" y2="1097.6094"/><text fill="#000000" font-family="sans-serif" font-size="14" lengthAdjust="spacing" textLength="146" x="77" y="1116.1426">Source_ScoreID: string</text><text fill="#000000" font-family="sans-serif" font-size="14" lengthAdjust="spacing" textLength="143" x="77" y="1133.752">Target_ScoreID: string</text><text fill="#000000" font-family="sans-serif" font-size="14" lengthAdjust="spacing" textLength="187" x="77" y="1151.3613">Mapping: Scorewert_Mapping</text></g><g id="elem_Scorewert_Mapping"><rect fill="#F1F1F1" height="82.4375" style="stroke:#181818;stroke-width:0.5;" width="220" x="513" y="1076"/><text fill="#000000" font-family="sans-serif" font-size="14" lengthAdjust="spacing" textLength="125" x="560.5" y="1092.5332">Scorewert_Mapping</text><line style="stroke:#181818;stroke-width:0.5;" x1="514" x2="732" y1="1097.6094" y2="1097.6094"/><text fill="#000000" font-family="sans-serif" font-size="14" lengthAdjust="spacing" textLength="142" x="519" y="1116.1426">SourceValue: Quantity</text><text fill="#000000" font-family="sans-serif" font-size="14" lengthAdjust="spacing" textLength="139" x="519" y="1133.752">TargetValue: Quantity</text><text fill="#000000" font-family="sans-serif" font-size="14" lengthAdjust="spacing" textLength="208" x="519" y="1151.3613">Mapping_Expression: Expression</text></g><g id="elem_Dom&#228;ne"><rect fill="#F1F1F1" height="117.6563" style="stroke:#181818;stroke-width:0.5;" width="236" x="52.5" y="859"/><text fill="#000000" font-family="sans-serif" font-size="14" lengthAdjust="spacing" textLength="53" x="144" y="875.5332">Dom&#228;ne</text><line style="stroke:#181818;stroke-width:0.5;" x1="53.5" x2="287.5" y1="880.6094" y2="880.6094"/><text fill="#000000" font-family="sans-serif" font-size="14" lengthAdjust="spacing" textLength="117" x="58.5" y="899.1426">Dom&#228;ne_ID: string</text><text fill="#000000" font-family="sans-serif" font-size="14" lengthAdjust="spacing" textLength="134" x="58.5" y="916.752">Dom&#228;ne_Code: code</text><text fill="#000000" font-family="sans-serif" font-size="14" lengthAdjust="spacing" textLength="160" x="58.5" y="934.3613">Dom&#228;ne_Titel: i18nString</text><text fill="#000000" font-family="sans-serif" font-size="14" lengthAdjust="spacing" textLength="217" x="58.5" y="951.9707">Dom&#228;ne_ParentDom&#228;ne: Dom&#228;ne</text><text fill="#000000" font-family="sans-serif" font-size="14" lengthAdjust="spacing" textLength="224" x="58.5" y="969.5801">Dom&#228;nen_Skalen: Dom&#228;nen_Skala</text></g><g id="elem_Dom&#228;ne_Skala"><rect fill="#F1F1F1" height="152.875" style="stroke:#181818;stroke-width:0.5;" width="480" x="383" y="841.5"/><text fill="#000000" font-family="sans-serif" font-size="14" lengthAdjust="spacing" textLength="96" x="575" y="858.0332">Dom&#228;ne_Skala</text><line style="stroke:#181818;stroke-width:0.5;" x1="384" x2="862" y1="863.1094" y2="863.1094"/><text fill="#000000" font-family="sans-serif" font-size="14" lengthAdjust="spacing" textLength="176" x="389" y="881.6426">Dom&#228;nen_Skalen_ID: string</text><text fill="#000000" font-family="sans-serif" font-size="14" lengthAdjust="spacing" textLength="146" x="389" y="899.252">Minimum: integer / float</text><text fill="#000000" font-family="sans-serif" font-size="14" lengthAdjust="spacing" textLength="149" x="389" y="916.8613">Maximum: integer / float</text><text fill="#000000" font-family="sans-serif" font-size="14" lengthAdjust="spacing" textLength="99" x="389" y="934.4707">Skalenart: code</text><text fill="#000000" font-family="sans-serif" font-size="14" lengthAdjust="spacing" textLength="133" x="389" y="952.0801">Skalenrichtung: code</text><text fill="#000000" font-family="sans-serif" font-size="14" lengthAdjust="spacing" textLength="468" x="389" y="969.6895">Dom&#228;nen_Skala_Score_Berechung: Dom&#228;nen_Skala_Score_Berechnung</text><text fill="#000000" font-family="sans-serif" font-size="14" lengthAdjust="spacing" textLength="229" x="389" y="987.2988">Referenzpopulation/G&#252;ltigkeit: string</text></g><g id="elem_Dom&#228;ne_Skala_Score_berechnet"><rect fill="#F1F1F1" height="135.2656" style="stroke:#181818;stroke-width:0.5;" width="472" x="387" y="549.5"/><text fill="#000000" font-family="sans-serif" font-size="14" lengthAdjust="spacing" textLength="213" x="516.5" y="566.0332">Dom&#228;ne_Skala_Score_berechnet</text><line style="stroke:#181818;stroke-width:0.5;" x1="388" x2="858" y1="571.1094" y2="571.1094"/><text fill="#000000" font-family="sans-serif" font-size="14" lengthAdjust="spacing" textLength="93" x="393" y="589.6426">ScoreID: string</text><text fill="#000000" font-family="sans-serif" font-size="14" lengthAdjust="spacing" textLength="196" x="393" y="607.252">Score_Vorlage: Score_Vorlage</text><text fill="#000000" font-family="sans-serif" font-size="14" lengthAdjust="spacing" textLength="460" x="393" y="624.8613">Dom&#228;ne_Skala_Score_Berechnung: Dom&#228;ne_Skala_Score_Berechnung</text><text fill="#000000" font-family="sans-serif" font-size="14" lengthAdjust="spacing" textLength="328" x="393" y="642.4707">Dom&#228;nenScore_Mapping: Dom&#228;nenScore_Mapping</text><text fill="#000000" font-family="sans-serif" font-size="14" lengthAdjust="spacing" textLength="159" x="393" y="660.0801">Berechnungsdatum: date</text><text fill="#000000" font-family="sans-serif" font-size="14" lengthAdjust="spacing" textLength="280" x="393" y="677.6895">berechneter_Scorewert: (integer/float/string)</text></g><g id="elem_Dom&#228;ne_Skala_Score_Berechnung"><rect fill="#F1F1F1" height="82.4375" style="stroke:#181818;stroke-width:0.5;" width="292" x="927" y="728"/><text fill="#000000" font-family="sans-serif" font-size="14" lengthAdjust="spacing" textLength="226" x="960" y="744.5332">Dom&#228;ne_Skala_Score_Berechnung</text><line style="stroke:#181818;stroke-width:0.5;" x1="928" x2="1218" y1="749.6094" y2="749.6094"/><text fill="#000000" font-family="sans-serif" font-size="14" lengthAdjust="spacing" textLength="177" x="933" y="768.1426">ScoreBerechnungsID: string</text><text fill="#000000" font-family="sans-serif" font-size="14" lengthAdjust="spacing" textLength="234" x="933" y="785.752">Score_Datentyp: (integer/float/string)</text><text fill="#000000" font-family="sans-serif" font-size="14" lengthAdjust="spacing" textLength="280" x="933" y="803.3613">Score_Berechnungs_Algoritmus: Expression</text></g><g id="elem_Dom&#228;ne_Skala_Score_Mapping"><rect fill="#F1F1F1" height="82.4375" style="stroke:#181818;stroke-width:0.5;" width="241" x="502.5" y="724"/><text fill="#000000" font-family="sans-serif" font-size="14" lengthAdjust="spacing" textLength="203" x="521.5" y="740.5332">Dom&#228;ne_Skala_Score_Mapping</text><line style="stroke:#181818;stroke-width:0.5;" x1="503.5" x2="742.5" y1="745.6094" y2="745.6094"/><text fill="#000000" font-family="sans-serif" font-size="14" lengthAdjust="spacing" textLength="229" x="508.5" y="764.1426">Source_Dom&#228;nen_Skalen_ID: string</text><text fill="#000000" font-family="sans-serif" font-size="14" lengthAdjust="spacing" textLength="226" x="508.5" y="781.752">Target_Dom&#228;nen_Skalen_ID: string</text><text fill="#000000" font-family="sans-serif" font-size="14" lengthAdjust="spacing" textLength="187" x="508.5" y="799.3613">Mapping: Scorewert_Mapping</text></g><!--reverse link Fragebogen to Frage--><g id="link_Fragebogen_Frage"><path codeLine="43" d="M324.5,226 C324.5,226 410.43,226 496.11,226 " fill="none" id="Fragebogen-backto-Frage" style="stroke:#181818;stroke-width:1.0;"/><polygon fill="none" points="312.5,226,318.5,230,324.5,226,318.5,222,312.5,226" style="stroke:#181818;stroke-width:1.0;"/><text fill="#000000" font-family="sans-serif" font-size="13" lengthAdjust="spacing" textLength="22" x="318.9547" y="242.5334">1..1</text><text fill="#000000" font-family="sans-serif" font-size="13" lengthAdjust="spacing" textLength="20" x="476.11" y="239.4951">1..*</text></g><!--reverse link Frage to Antwort_Vorlage--><g id="link_Frage_Antwort_Vorlage"><path codeLine="48" d="M755,307 C755,307 919.49,307 1013.94,307 " fill="none" id="Frage-backto-Antwort_Vorlage" style="stroke:#181818;stroke-width:1.0;"/><polygon fill="none" points="743,307,749,311,755,307,749,303,743,307" style="stroke:#181818;stroke-width:1.0;"/><text fill="#000000" font-family="sans-serif" font-size="13" lengthAdjust="spacing" textLength="22" x="749.3453" y="324.8123">1..1</text><text fill="#000000" font-family="sans-serif" font-size="13" lengthAdjust="spacing" textLength="22" x="983.8393" y="321.4278">1..1</text></g><!--reverse link Antwort_Vorlage to Antwort_String--><g id="link_Antwort_Vorlage_Antwort_String"><path codeLine="60" d="M1150.4694,307.6427 C1224.7494,308.2727 1336.63,309.22 1431.26,310.02 " fill="none" id="Antwort_Vorlage-backto-Antwort_String" style="stroke:#181818;stroke-width:1.0;"/><polygon fill="none" points="1132.47,307.49,1150.4185,313.6424,1150.5202,301.6429,1132.47,307.49" style="stroke:#181818;stroke-width:1.0;"/></g><!--reverse link Antwort_Vorlage to Antwort_NumerischerWert--><g id="link_Antwort_Vorlage_Antwort_NumerischerWert"><path codeLine="70" d="M1149.9687,288.6917 C1215.7187,272.8417 1307.54,250.71 1397.41,229.05 " fill="none" id="Antwort_Vorlage-backto-Antwort_NumerischerWert" style="stroke:#181818;stroke-width:1.0;"/><polygon fill="none" points="1132.47,292.91,1151.3748,294.5246,1148.5626,282.8588,1132.47,292.91" style="stroke:#181818;stroke-width:1.0;"/></g><!--reverse link Antwort_Vorlage to Antwort_Datum--><g id="link_Antwort_Vorlage_Antwort_Datum"><path codeLine="77" d="M1114.26,271.259 C1169.83,221.919 1279,125 1279,125 C1279,125 1383.36,105.53 1461.83,90.89 " fill="none" id="Antwort_Vorlage-backto-Antwort_Datum" style="stroke:#181818;stroke-width:1.0;"/><polygon fill="none" points="1100.8,283.21,1118.2437,275.7457,1110.2764,266.7723,1100.8,283.21" style="stroke:#181818;stroke-width:1.0;"/></g><!--reverse link Antwort_Vorlage to Antwort_Auswahl--><g id="link_Antwort_Vorlage_Antwort_Auswahl"><path codeLine="89" d="M1149.6064,326.9143 C1210.2064,342.8743 1279,361 1279,361 C1279,361 1321.55,371 1372.73,383.03 " fill="none" id="Antwort_Vorlage-backto-Antwort_Auswahl" style="stroke:#181818;stroke-width:1.0;"/><polygon fill="none" points="1132.2,322.33,1148.0784,332.7164,1151.1345,321.1121,1132.2,322.33" style="stroke:#181818;stroke-width:1.0;"/></g><!--reverse link Antwort_Auswahl to Antwort_Auswahl_Option--><g id="link_Antwort_Auswahl_Antwort_Auswahl_Option"><path codeLine="90" d="M1727.8773,450.2886 C1727.8773,450.2886 1794.11,440.75 1876.94,428.81 " fill="none" id="Antwort_Auswahl-backto-Antwort_Auswahl_Option" style="stroke:#181818;stroke-width:1.0;"/><polygon fill="none" points="1716,452,1722.5091,455.1034,1727.8773,450.2886,1721.3682,447.1852,1716,452" style="stroke:#181818;stroke-width:1.0;"/><text fill="#000000" font-family="sans-serif" font-size="13" lengthAdjust="spacing" textLength="20" x="1722.9531" y="466.8997">1..*</text><text fill="#000000" font-family="sans-serif" font-size="13" lengthAdjust="spacing" textLength="20" x="1848.9689" y="443.7056">1..*</text></g><!--reverse link Ausgef?llter_Fragebogen to Antwort_erfasst--><g id="link_Ausgef&#252;llter_Fragebogen_Antwort_erfasst"><path codeLine="107" d="M284.3904,1649.0005 C284.3904,1649.0005 283.5,1551.5 283.5,1551.5 C283.5,1551.5 253.46,1533.82 224.35,1516.69 " fill="none" id="Ausgef&#252;llter_Fragebogen-backto-Antwort_erfasst" style="stroke:#181818;stroke-width:1.0;"/><polygon fill="none" points="284.5,1661,288.445,1654.9637,284.3904,1649.0005,280.4454,1655.0368,284.5,1661" style="stroke:#181818;stroke-width:1.0;"/><text fill="#000000" font-family="sans-serif" font-size="13" lengthAdjust="spacing" textLength="22" x="210.2505" y="1537.7356">1..1</text><text fill="#000000" font-family="sans-serif" font-size="13" lengthAdjust="spacing" textLength="20" x="291.6688" y="1677.666">1..*</text></g><!--reverse link Score_Vorlage to Score_Berechnung--><g id="link_Score_Vorlage_Score_Berechnung"><path codeLine="134" d="M307.8006,1279.666 C307.8006,1279.666 379,1354 379,1354 C379,1354 867,1354 867,1354 C867,1354 893.19,1346.59 926.85,1337.07 " fill="none" id="Score_Vorlage-backto-Score_Berechnung" style="stroke:#181818;stroke-width:1.0;"/><polygon fill="none" points="299.5,1271,300.7616,1278.0999,307.8006,1279.666,306.539,1272.5662,299.5,1271" style="stroke:#181818;stroke-width:1.0;"/><text fill="#000000" font-family="sans-serif" font-size="13" lengthAdjust="spacing" textLength="20" x="305.7984" y="1284.9502">1..*</text><text fill="#000000" font-family="sans-serif" font-size="13" lengthAdjust="spacing" textLength="20" x="898.7985" y="1353.1031">1..*</text></g><!--reverse link Score_Vorlage to Score_berechnet--><g id="link_Score_Vorlage_Score_berechnet"><path codeLine="135" d="M312.3771,1259.7467 C393.8271,1254.3967 476,1249 476,1249 " fill="none" id="Score_Vorlage-backto-Score_berechnet" style="stroke:#181818;stroke-width:1.0;"/><polygon fill="#181818" points="306.39,1260.14,315.6328,1263.5415,311.3792,1259.8123,315.1085,1255.5587,306.39,1260.14" style="stroke:#181818;stroke-width:1.0;"/><text fill="#000000" font-family="sans-serif" font-size="13" lengthAdjust="spacing" textLength="22" x="306.39" y="1273.6351">1..1</text><text fill="#000000" font-family="sans-serif" font-size="13" lengthAdjust="spacing" textLength="20" x="448.8859" y="1262.1346">0..*</text></g><!--link Score_berechnet to Score_Berechnung--><g id="link_Score_berechnet_Score_Berechnung"><path codeLine="136" d="M770,1267 C770,1267 843.4075,1274.0464 920.7775,1281.4764 " fill="none" id="Score_berechnet-to-Score_Berechnung" style="stroke:#181818;stroke-width:1.0;"/><polygon fill="#181818" points="926.75,1282.05,918.1736,1277.208,921.7729,1281.572,917.4088,1285.1714,926.75,1282.05" style="stroke:#181818;stroke-width:1.0;"/><text fill="#000000" font-family="sans-serif" font-size="13" lengthAdjust="spacing" textLength="22" x="777.1594" y="1280.9502">1..1</text><text fill="#000000" font-family="sans-serif" font-size="13" lengthAdjust="spacing" textLength="20" x="899.1816" y="1295.2643">0..*</text></g><!--link Score_Fragebogen_Score to GMN30--><g id="link_Score_Fragebogen_Score_GMN30"><path d="M1548,1227.16 C1548,1219.51 1548,1200.67 1548,1200.67 C1548,1200.67 1548,1197.16 1548,1192.56 " fill="none" id="Score_Fragebogen_Score-GMN30" style="stroke:#181818;stroke-width:1.0;stroke-dasharray:7.0,7.0;"/></g><!--reverse link Score_Berechnung to Score_Fragebogen_Score--><g id="link_Score_Berechnung_Score_Fragebogen_Score"><path codeLine="147" d="M1237.0782,1283.5849 C1286.9082,1279.7949 1325.19,1276.88 1376.83,1272.95 " fill="none" id="Score_Berechnung-backto-Score_Fragebogen_Score" style="stroke:#181818;stroke-width:1.0;"/><polygon fill="none" points="1219.13,1284.95,1237.5332,1289.5676,1236.6231,1277.6022,1219.13,1284.95" style="stroke:#181818;stroke-width:1.0;"/></g><!--reverse link Score_Berechnung to Score_Itembasierter_Score--><g id="link_Score_Berechnung_Score_Itembasierter_Score"><path codeLine="152" d="M1237.0098,1314.9564 C1300.5598,1322.3364 1356.62,1328.86 1418.19,1336.02 " fill="none" id="Score_Berechnung-backto-Score_Itembasierter_Score" style="stroke:#181818;stroke-width:1.0;"/><polygon fill="none" points="1219.13,1312.88,1236.3177,1320.9163,1237.702,1308.9964,1219.13,1312.88" style="stroke:#181818;stroke-width:1.0;"/></g><!--link Score_Itembasierter_Score to GMN36--><g id="link_Score_Itembasierter_Score_GMN36"><path d="M1418.23,1331.22 C1349.44,1320.74 1279,1310 1279,1310 C1279,1310 1261,1292.5 1261,1292.5 C1261,1292.5 1261,1149.5 1261,1149.5 C1261,1149.5 1279,1132 1279,1132 C1279,1132 1337.13,1123.57 1399.34,1114.55 " fill="none" id="Score_Itembasierter_Score-GMN36" style="stroke:#181818;stroke-width:1.0;stroke-dasharray:7.0,7.0;"/></g><!--reverse link Score_Vorlage to Score_Mapping--><g id="link_Score_Vorlage_Score_Mapping"><path codeLine="164" d="M42.6599,1229.0021 C42.6599,1229.0021 43.5,1197.5 43.5,1197.5 C43.5,1197.5 70.5,1109 70.5,1109 " fill="none" id="Score_Vorlage-backto-Score_Mapping" style="stroke:#181818;stroke-width:1.0;"/><polygon fill="#181818" points="42.5,1235,46.7385,1226.1098,42.6333,1230.0018,38.7413,1225.8966,42.5,1235" style="stroke:#181818;stroke-width:1.0;"/></g><!--reverse link Score_Mapping to Scorewert_Mapping--><g id="link_Score_Mapping_Scorewert_Mapping"><path codeLine="171" d="M290.26,1117 C361.03,1117 441.62,1117 512.87,1117 " fill="none" id="Score_Mapping-backto-Scorewert_Mapping" style="stroke:#181818;stroke-width:1.0;"/><polygon fill="none" points="278.26,1117,284.26,1121,290.26,1117,284.26,1113,278.26,1117" style="stroke:#181818;stroke-width:1.0;"/><text fill="#000000" font-family="sans-serif" font-size="13" lengthAdjust="spacing" textLength="22" x="278.26" y="1130.4951">1..1</text><text fill="#000000" font-family="sans-serif" font-size="13" lengthAdjust="spacing" textLength="20" x="485.1742" y="1131.0049">1..*</text></g><!--link Dom?ne to Dom?ne_Skala--><g id="link_Dom&#228;ne_Dom&#228;ne_Skala"><path codeLine="210" d="M288.69,918 C317.76,918 349.97,918 382.58,918 " fill="none" id="Dom&#228;ne-Dom&#228;ne_Skala" style="stroke:#181818;stroke-width:1.0;"/><text fill="#000000" font-family="sans-serif" font-size="13" lengthAdjust="spacing" textLength="22" x="296.5625" y="932.0038">1..1</text><text fill="#000000" font-family="sans-serif" font-size="13" lengthAdjust="spacing" textLength="20" x="355.1457" y="931.7397">0..*</text></g><!--reverse link Dom?ne_Skala to Dom?ne_Skala_Score_berechnet--><g id="link_Dom&#228;ne_Skala_Dom&#228;ne_Skala_Score_berechnet"><path codeLine="211" d="M418.7209,839.3035 C391.9009,828.9735 379,824 379,824 C379,824 349,806.5 349,806.5 C349,806.5 349,724.5 349,724.5 C349,724.5 379,707 379,707 C379,707 399.66,699.38 428.97,688.57 " fill="none" id="Dom&#228;ne_Skala-backto-Dom&#228;ne_Skala_Score_berechnet" style="stroke:#181818;stroke-width:1.0;"/><polygon fill="#181818" points="424.32,841.46,417.3591,834.4925,419.6541,839.6629,414.4837,841.9579,424.32,841.46" style="stroke:#181818;stroke-width:1.0;"/><text fill="#000000" font-family="sans-serif" font-size="13" lengthAdjust="spacing" textLength="22" x="381.6796" y="830.6567">1..1</text><text fill="#000000" font-family="sans-serif" font-size="13" lengthAdjust="spacing" textLength="20" x="398.4497" y="706.1702">0..*</text></g><!--link Dom?ne_Skala to Dom?ne_Skala_Score_Mapping--><g id="link_Dom&#228;ne_Skala_Dom&#228;ne_Skala_Score_Mapping"><path codeLine="212" d="M623,835.2 C623,822.55 623,816 623,816 C623,816 623,817.97 623,812.17 " fill="none" id="Dom&#228;ne_Skala-Dom&#228;ne_Skala_Score_Mapping" style="stroke:#181818;stroke-width:1.0;"/><polygon fill="#181818" points="623,841.2,627,832.2,623,836.2,619,832.2,623,841.2" style="stroke:#181818;stroke-width:1.0;"/><polygon fill="#181818" points="623,806.17,619,815.17,623,811.17,627,815.17,623,806.17" style="stroke:#181818;stroke-width:1.0;"/><text fill="#000000" font-family="sans-serif" font-size="13" lengthAdjust="spacing" textLength="20" x="602.0469" y="830.6353">0..*</text><text fill="#000000" font-family="sans-serif" font-size="13" lengthAdjust="spacing" textLength="22" x="599.1781" y="827.8018">2..2</text></g><!--reverse link Dom?ne_Skala to Dom?ne_Skala_Score_Berechnung--><g id="link_Dom&#228;ne_Skala_Dom&#228;ne_Skala_Score_Berechnung"><path codeLine="213" d="M865.6163,837.6416 C898.1363,826.8216 919.09,819.86 948.51,810.07 " fill="none" id="Dom&#228;ne_Skala-backto-Dom&#228;ne_Skala_Score_Berechnung" style="stroke:#181818;stroke-width:1.0;"/><polygon fill="none" points="854.23,841.43,861.186,843.3312,865.6163,837.6416,858.6603,835.7404,854.23,841.43" style="stroke:#181818;stroke-width:1.0;"/><text fill="#000000" font-family="sans-serif" font-size="13" lengthAdjust="spacing" textLength="22" x="853.9089" y="830.6237">1..1</text><text fill="#000000" font-family="sans-serif" font-size="13" lengthAdjust="spacing" textLength="13" x="912.9961" y="831.9916">..*</text></g><!--link Dom?ne_Skala_Score_berechnet to Dom?ne_Skala_Score_Berechnung--><g id="link_Dom&#228;ne_Skala_Score_berechnet_Dom&#228;ne_Skala_Score_Berechnung"><path codeLine="214" d="M860,619 C860,619 946.1318,679.9448 1008.8918,724.3448 " fill="none" id="Dom&#228;ne_Skala_Score_berechnet-to-Dom&#228;ne_Skala_Score_Berechnung" style="stroke:#181818;stroke-width:1.0;"/><polygon fill="#181818" points="1013.79,727.81,1008.7529,719.3467,1009.7082,724.9223,1004.1326,725.8776,1013.79,727.81" style="stroke:#181818;stroke-width:1.0;"/><text fill="#000000" font-family="sans-serif" font-size="13" lengthAdjust="spacing" textLength="22" x="867.3625" y="632.7933">0..1</text><text fill="#000000" font-family="sans-serif" font-size="13" lengthAdjust="spacing" textLength="22" x="980.1615" y="717.1509">0..1</text></g><!--SRC=[pLZDRjms4BxhAGYVsi8_TKw541ImOxSmKAT9dAP7WRixkykkH2ueAcixzTlq6NhApI_M8KM9FwAqwm85ka3YrSoGyp_pQUiDurigQKLAna4zR848gTOYguUChIWVz4DMmb8H9OXagxKY2oPXhfZWMVlPqlc6he3y9F7_cLW1Bpu9MMhIbupWHyp-m0CUtzBrnn5lhd9IAyduAi4itj8AYi-YB6lr_1TVi5LEsFaF_6xwmCLiy_nLFZPyh_Wda3MwD672pLN1k08v9LFSASeNL2wAQMzwiRk7Ma5raEYaXKWsVtlgHOD9bRrmJtyZjWycZOvbU4-3J7t98XLx0g3vUzqFXAQS3mGdNLTmhyQpMrmqzVBvQrck6Ty1go4fUi4VWQsW4WjQCYmml70k5X1THPjw1UOoLUo0eptNzri9jRRDkqhjiAEw5iXZGXTk6tUNwJmttydH-Udf-H4H9mknuoVcyRiZcrq_IT6zNazP3lQmvyQJKvVdyLchCr2ApqdJ8_KOtnrTbvxwMrZB9PslQSl9oKo84kWmH2w_j6pW3Z3g7s094lWS1i9MJ_7hLfbIIDExu2OCRLC-39Db51NZlm1VgNLERh3CLo179UbzIhADS1pQrt_Qc8QNP4aRtpOLI5RFro1_1waInaOInQO4nh6DiDMHDKiO7PzOIO4b-v8JruolWSKzCIRzJb9uP6s_Tk5vINoY-zA1kgAggRpmOF8CAISBgfoDXePDosd3LflGXmFDCLTCLRwjl4IkMaRnSMn0HNBNzvkogTbd6E-OK6Nn1dtfPt8oET61lkFqoHSU6PdMXnqRZ72_KUCSk2J4jsS9ZMwQHGcnapCQf2Dp8ykUUY1puUOy5Es0VlxRmPQk33mfMUm1DxdtlMTVuvYiQmGdzI9HktfnDL2Mm379xp1yEdfi0Lon9VExTYXNV42WPFDBuao1Dpp1MA26220IY7sQm0BsPAlyc70pOewjr77hejz_8r7iimhSRKG3N0QPx9nm2RoR2rpBOReCBR4i3TsIKnZKy3MOJBQmuQA3C5zpWp9RDPSznOqYKI5mnLlibvZ1wmqjQHu-XdgAMxhTCgV5FWwprxAjMQ1YRyUyT9WbU8o4BW_nrf6IjTsUqzj18e1Ij5tfmJZghSUoCE8xq5Nr3MjNojco55ITjMvysuQWBVLX89mnSIGyCqU3WWi0UqvZgGdTgV3KnKMv4fAfggcJKB4zyDuqByd9Rnzk_Cu8Kv97bUQcMzyFoMI4PMyxwRK-zBrtg0-srUD6CV5k6KXTXkRWpISdFuOtU-PamypuxpcQa9oThYmJCtHqVenol11peG1thLAY8c8vPjDOioFeK8XmjeqYrDVbcNdg3b_1ad5c5XCYDfnExP32YOWdyBoXLlvBClv38AHXuAwHtI37AM_Cpj8rfrVdoOWZYVZVu6gUqLehwThCnp7-7ZneUqoPaz2LZMSXPTa1YS0WFaB9koIyA04LlhVebm_Yh_mpeYtHmulFADyCqn9cPHXYEwJzoICQEOTYR1H_f19VQaVPuGxGGx5NCKX49vk7Aic9_a57jsfgnhXTEFGcK1TxPDxYSlA-eGXHr4Faq1ZNtbQu-UZFoavgp3M73S8nw1lg0GExN4Da41AzbPpw5QDZ9G1qn_h859H9jD19lADOPcel8YZk40FeXWi8TBZlktiDU-X7Tr7AdrliYKhlPxlRiE3DTlFoSpyjqDvDPVn-sD8bcw-LmGgfM5cF2dzk6E49Ve0pxEy5ZrknRKe38yv-ne6bkhSzpzlmLu4WPCL_19XIIdpuDCqV12i2WKdoeGZiNyEhYVZz7t7M_goF3kW3kiVEwaFwRE_OxiPGXwJiMsiBfWB3ix3VUr3NlHubZiGL7b_H7kckG0ptwlJqrT5KlD96k7UqKHky0fyqCS_tr9WsseES-lVBFVgUidy0]--></g></svg>