<svg xmlns="http://www.w3.org/2000/svg" xmlns:xlink="http://www.w3.org/1999/xlink" contentStyleType="text/css" data-diagram-type="DESCRIPTION" height="442px" preserveAspectRatio="none" style="width:407px;height:442px;background:#FFFFFF;" version="1.1" viewBox="0 0 407 442" width="407px" zoomAndPan="magnify"><defs/><g><!--entity Q--><g class="entity" data-entity="Q" data-source-line="4" data-uid="ent0002" id="entity_Q"><rect fill="#E8F4FD" height="37.0146" rx="2.5" ry="2.5" style="stroke:#000000;stroke-width:1;" width="136.5664" x="45.54" y="21.19"/><text fill="#000000" font-family="Verdana" font-size="14" lengthAdjust="spacing" textLength="116.5664" x="55.54" y="45.2652">1. Questionnaire</text></g><!--entity QR--><g class="entity" data-entity="QR" data-source-line="5" data-uid="ent0003" id="entity_QR"><rect fill="#FFF4E6" height="37.0146" rx="2.5" ry="2.5" style="stroke:#000000;stroke-width:1;" width="203.6475" x="12" y="155.59"/><text fill="#000000" font-family="Verdana" font-size="14" lengthAdjust="spacing" textLength="183.6475" x="22" y="179.6652">2. QuestionnaireResponse</text></g><!--entity O--><g class="entity" data-entity="O" data-source-line="6" data-uid="ent0004" id="entity_O"><rect fill="#E8F5E8" height="37.0146" rx="2.5" ry="2.5" style="stroke:#000000;stroke-width:1;" width="123.6738" x="51.99" y="279.8"/><text fill="#000000" font-family="Verdana" font-size="14" lengthAdjust="spacing" textLength="103.6738" x="61.99" y="303.8752">3. Observation</text></g><g class="entity" data-entity="GMN8" data-source-line="12" data-uid="ent0009" id="entity_GMN8"><path d="M217.43,11 L217.43,35.7 L182.47,39.7 L217.43,43.7 L217.43,68.3979 A0,0 0 0 0 217.43,68.3979 L358.2103,68.3979 A0,0 0 0 0 358.2103,68.3979 L358.2103,21 L348.2103,11 L217.43,11 A0,0 0 0 0 217.43,11" fill="#FFFFFF" style="stroke:#000000;stroke-width:1;"/><path d="M348.2103,11 L348.2103,21 L358.2103,21 L348.2103,11" fill="#FFFFFF" style="stroke:#000000;stroke-width:1;"/><text fill="#000000" font-family="Verdana" font-size="13" lengthAdjust="spacing" textLength="119.7803" x="223.43" y="29.0698">Definiert Struktur,</text><text fill="#000000" font-family="Verdana" font-size="13" lengthAdjust="spacing" textLength="91.9966" x="223.43" y="44.8691">Verhalten und</text><text fill="#000000" font-family="Verdana" font-size="13" lengthAdjust="spacing" textLength="115.3179" x="223.43" y="60.6685">Berechnungslogik</text></g><g class="entity" data-entity="GMN11" data-source-line="13" data-uid="ent0012" id="entity_GMN11"><path d="M250.19,145.4 L250.19,170.1 L216.02,174.1 L250.19,178.1 L250.19,202.7979 A0,0 0 0 0 250.19,202.7979 L389.4595,202.7979 A0,0 0 0 0 389.4595,202.7979 L389.4595,155.4 L379.4595,145.4 L250.19,145.4 A0,0 0 0 0 250.19,145.4" fill="#FFFFFF" style="stroke:#000000;stroke-width:1;"/><path d="M379.4595,145.4 L379.4595,155.4 L389.4595,155.4 L379.4595,145.4" fill="#FFFFFF" style="stroke:#000000;stroke-width:1;"/><text fill="#000000" font-family="Verdana" font-size="13" lengthAdjust="spacing" textLength="118.2695" x="256.19" y="163.4698">Enth&#228;lt Antworten</text><text fill="#000000" font-family="Verdana" font-size="13" lengthAdjust="spacing" textLength="102.0957" x="256.19" y="179.2691">und berechnete</text><text fill="#000000" font-family="Verdana" font-size="13" lengthAdjust="spacing" textLength="43.6147" x="256.19" y="195.0685">Scores</text></g><g class="entity" data-entity="GMN14" data-source-line="14" data-uid="ent0015" id="entity_GMN14"><path d="M51.3,377.81 L51.3,435.2079 A0,0 0 0 0 51.3,435.2079 L176.3571,435.2079 A0,0 0 0 0 176.3571,435.2079 L176.3571,387.81 L166.3571,377.81 L117.82,377.81 L113.82,316.84 L109.82,377.81 L51.3,377.81 A0,0 0 0 0 51.3,377.81" fill="#FFFFFF" style="stroke:#000000;stroke-width:1;"/><path d="M166.3571,377.81 L166.3571,387.81 L176.3571,387.81 L166.3571,377.81" fill="#FFFFFF" style="stroke:#000000;stroke-width:1;"/><text fill="#000000" font-family="Verdana" font-size="13" lengthAdjust="spacing" textLength="84.1001" x="57.3" y="395.8798">Strukturierte</text><text fill="#000000" font-family="Verdana" font-size="13" lengthAdjust="spacing" textLength="104.0571" x="57.3" y="411.6791">Speicherung f&#252;r</text><text fill="#000000" font-family="Verdana" font-size="13" lengthAdjust="spacing" textLength="58.9253" x="57.3" y="427.4785">Analysen</text></g><!--link Q to QR--><g class="link" data-entity-1="Q" data-entity-2="QR" data-source-line="8" data-uid="lnk5" id="link_Q_QR"><path d="M113.82,58.56 C113.82,83.83 113.82,123.76 113.82,149.1" fill="none" id="Q-to-QR" style="stroke:#000000;stroke-width:1;"/><polygon fill="#000000" points="113.82,155.1,117.82,146.1,113.82,150.1,109.82,146.1,113.82,155.1" style="stroke:#000000;stroke-width:1;"/><text fill="#000000" font-family="Verdana" font-size="13" lengthAdjust="spacing" textLength="102.4321" x="114.82" y="112.4698">Patient f&#252;llt aus</text></g><!--link QR to O--><g class="link" data-entity-1="QR" data-entity-2="O" data-source-line="9" data-uid="lnk6" id="link_QR_O"><path d="M113.82,192.87 C113.82,216.04 113.82,250.33 113.82,273.51" fill="none" id="QR-to-O" style="stroke:#000000;stroke-width:1;"/><polygon fill="#000000" points="113.82,279.51,117.82,270.51,113.82,274.51,109.82,270.51,113.82,279.51" style="stroke:#000000;stroke-width:1;"/><text fill="#000000" font-family="Verdana" font-size="13" lengthAdjust="spacing" textLength="171.5073" x="114.82" y="246.8698">Extraction/Transformation</text></g><!--link O to O--><g class="link" data-entity-1="O" data-entity-2="O" data-source-line="10" data-uid="lnk7" id="link_O_O"><path d="M175.76,289.12 C195.27,289.26 210.66,292.32 210.66,298.3 C210.66,304.29 201.2698,307.3069 181.7598,307.4469" fill="none" id="O-to-O" style="stroke:#000000;stroke-width:1;"/><polygon fill="#000000" points="175.76,307.49,184.7885,311.4253,180.7599,307.4541,184.7311,303.4255,175.76,307.49" style="stroke:#000000;stroke-width:1;"/><text fill="#000000" font-family="Verdana" font-size="13" lengthAdjust="spacing" textLength="178.1279" x="216.66" y="303.8698">Domain Mapping (optional)</text></g><!--SRC=[NP1DJiCm44RtFiNGRa2YHVogOe5KQB93fIrYbOsJJX8hpZWQJoZSXsEmwyMmMq1LjvxtFdyp9r9ZYz1PRKZvnb2dMRUGwwAfsFMqVdBMCMng8wWKOo6QAeimk1p3eaSlnX5fmpW0xM41msIItgIpG_BgY5oYxnpvNsC9mpHDRvAxG-Lw3FFS8x_hQEt0-IxwDfaejO3Hw26Qz_0I02I1SljjhO3klGhlSJmFq-H3M1SnukALDVdISRjBLFD_PkRQi3eywwupLC6fwoAWxPbIv0I1JLKBk3Bi5c0i3HbaWPLmtqZFvncz8TVQ2XA4SsNqY66Hcdggl7MLQOvZOks4fDv-XS9JaetZu6P1M4E-Tr4merNX6FtUpfs8QwCUA__z7Oj4i4DJrCZXntW7pcWQ-dzwf1y0]--></g></svg>