<?xml version="1.0" encoding="us-ascii" standalone="no"?><svg xmlns="http://www.w3.org/2000/svg" xmlns:xlink="http://www.w3.org/1999/xlink" contentStyleType="text/css" height="288px" preserveAspectRatio="none" style="width:340px;height:288px;background:#FFFFFF;" version="1.1" viewBox="0 0 340 288" width="340px" zoomAndPan="magnify"><defs/><g><!--entity S1--><g id="elem_S1"><rect fill="#FFE4E6" height="37.0146" rx="2.5" ry="2.5" style="stroke:#000000;stroke-width:1.0;" width="231" x="52" y="12"/><text fill="#000000" font-family="Verdana" font-size="14" lengthAdjust="spacing" textLength="211" x="62" y="36.0752">Instrument-spezifischer Score</text></g><!--entity CM--><g id="elem_CM"><rect fill="#E6F3FF" height="37.0146" rx="2.5" ry="2.5" style="stroke:#000000;stroke-width:1.0;" width="176" x="79.5" y="126.02"/><text fill="#000000" font-family="Verdana" font-size="14" lengthAdjust="spacing" textLength="156" x="89.5" y="150.0952">ConceptMap oder CQL</text></g><!--entity S2--><g id="elem_S2"><rect fill="#E6FFE6" height="37.0146" rx="2.5" ry="2.5" style="stroke:#000000;stroke-width:1.0;" width="133" x="12" y="242.32"/><text fill="#000000" font-family="Verdana" font-size="14" lengthAdjust="spacing" textLength="113" x="22" y="266.3952">Domain T-Score</text></g><g id="elem_GMN7"><path d="M179.5,240.03 L179.5,281.6286 A0,0 0 0 0 179.5,281.6286 L333.5,281.6286 A0,0 0 0 0 333.5,281.6286 L333.5,250.03 L323.5,240.03 L244.9,240.03 L181.41,163.38 L236.9,240.03 L179.5,240.03 A0,0 0 0 0 179.5,240.03 " fill="#FFFFFF" style="stroke:#000000;stroke-width:1.0;"/><path d="M323.5,240.03 L323.5,250.03 L333.5,250.03 L323.5,240.03 " fill="#FFFFFF" style="stroke:#000000;stroke-width:1.0;"/><text fill="#000000" font-family="Verdana" font-size="13" lengthAdjust="spacing" textLength="133" x="185.5" y="258.0998">Empirisch validierte</text><text fill="#000000" font-family="Verdana" font-size="13" lengthAdjust="spacing" textLength="117" x="185.5" y="273.8991">Mapping-Tabellen</text></g><!--link S1 to CM--><g id="link_S1_CM"><path d="M167.5,49.51 C167.5,70.41 167.5,98.69 167.5,119.57 " fill="none" id="S1-to-CM" style="stroke:#000000;stroke-width:1.0;"/><polygon fill="#000000" points="167.5,125.57,171.5,116.57,167.5,120.57,163.5,116.57,167.5,125.57" style="stroke:#000000;stroke-width:1.0;"/><text fill="#000000" font-family="Verdana" font-size="13" lengthAdjust="spacing" textLength="34" x="168.5" y="93.0898">Input</text></g><!--link CM to S2--><g id="link_CM_S2"><path d="M153.59,163.38 C136.87,184.86 112.6764,215.946 95.9964,237.366 " fill="none" id="CM-to-S2" style="stroke:#000000;stroke-width:1.0;"/><polygon fill="#000000" points="92.31,242.1,100.9956,237.4566,95.382,238.155,94.6836,232.5414,92.31,242.1" style="stroke:#000000;stroke-width:1.0;"/><text fill="#000000" font-family="Verdana" font-size="13" lengthAdjust="spacing" textLength="44" x="129.33" y="207.0998">Output</text></g><!--SRC=[JOunRy8m48Lt_uehp1vAAmQ6Bcai8O4g16CNnpaI2_lEiYz5ujVZq2NRwUbxxxut6J4Yf60zgNBpb6os4JhhRaFcYVg60sUuZrvGgOnEB0q1ORMd8dcAIA9BmeU_-k96p71sd745ji3v7TR6j9_jTjbhc1mcETe4t5U-EHrUT7E4TRir7yOiwM-ELGmkUZ6xUO6cpghwGkklkRk3FQL9L3tdf48x-9baZXIn87GimX7u-a-tCVayAyEV3Rxtc0L_gLebJuE-s0v3G7e2]--></g></svg>