<?xml version="1.0" encoding="us-ascii" standalone="no"?><svg xmlns="http://www.w3.org/2000/svg" xmlns:xlink="http://www.w3.org/1999/xlink" contentStyleType="text/css" height="343px" preserveAspectRatio="none" style="width:428px;height:343px;background:#FFFFFF;" version="1.1" viewBox="0 0 428 343" width="428px" zoomAndPan="magnify"><defs/><g><line style="stroke:#000000;stroke-width:1.0;" x1="56" x2="56" y1="68.0146" y2="264.8105"/><line style="stroke:#000000;stroke-width:1.0;" x1="222" x2="222" y1="68.0146" y2="264.8105"/><line style="stroke:#000000;stroke-width:1.0;" x1="385" x2="385" y1="68.0146" y2="264.8105"/><text fill="#000000" font-family="Verdana" font-size="14" lengthAdjust="spacing" textLength="86" x="10" y="65.0752">Legacy Data</text><path d="M38,15 C38,5 56,5 56,5 C56,5 74,5 74,15 L74,41 C74,51 56,51 56,51 C56,51 38,51 38,41 L38,15 " fill="#FFFFFF" style="stroke:#000000;stroke-width:1.5;"/><path d="M38,15 C38,25 56,25 56,25 C56,25 74,25 74,15 " fill="none" style="stroke:#000000;stroke-width:1.5;"/><text fill="#000000" font-family="Verdana" font-size="14" lengthAdjust="spacing" textLength="86" x="10" y="277.8857">Legacy Data</text><path d="M38,290.8252 C38,280.8252 56,280.8252 56,280.8252 C56,280.8252 74,280.8252 74,290.8252 L74,316.8252 C74,326.8252 56,326.8252 56,326.8252 C56,326.8252 38,326.8252 38,316.8252 L38,290.8252 " fill="#FFFFFF" style="stroke:#000000;stroke-width:1.5;"/><path d="M38,290.8252 C38,300.8252 56,300.8252 56,300.8252 C56,300.8252 74,300.8252 74,290.8252 " fill="none" style="stroke:#000000;stroke-width:1.5;"/><rect fill="#FFFFFF" height="48.0293" rx="2.5" ry="2.5" style="stroke:#000000;stroke-width:1.0;" width="201" x="122" y="18.9854"/><text fill="#000000" font-family="Verdana" font-size="14" lengthAdjust="spacing" textLength="122" x="161.5" y="40.0605">Migration Service</text><text fill="#000000" font-family="Verdana" font-size="14" lengthAdjust="spacing" textLength="187" x="129" y="57.0752">[populatable+calculatable]</text><rect fill="#FFFFFF" height="48.0293" rx="2.5" ry="2.5" style="stroke:#000000;stroke-width:1.0;" width="201" x="122" y="263.8105"/><text fill="#000000" font-family="Verdana" font-size="14" lengthAdjust="spacing" textLength="122" x="161.5" y="284.8857">Migration Service</text><text fill="#000000" font-family="Verdana" font-size="14" lengthAdjust="spacing" textLength="187" x="129" y="301.9004">[populatable+calculatable]</text><text fill="#000000" font-family="Verdana" font-size="14" lengthAdjust="spacing" textLength="78" x="343" y="65.0752">FHIR Store</text><path d="M367,15 C367,5 385,5 385,5 C385,5 403,5 403,15 L403,41 C403,51 385,51 385,51 C385,51 367,51 367,41 L367,15 " fill="#FFFFFF" style="stroke:#000000;stroke-width:1.5;"/><path d="M367,15 C367,25 385,25 385,25 C385,25 403,25 403,15 " fill="none" style="stroke:#000000;stroke-width:1.5;"/><text fill="#000000" font-family="Verdana" font-size="14" lengthAdjust="spacing" textLength="78" x="343" y="277.8857">FHIR Store</text><path d="M367,290.8252 C367,280.8252 385,280.8252 385,280.8252 C385,280.8252 403,280.8252 403,290.8252 L403,316.8252 C403,326.8252 385,326.8252 385,326.8252 C385,326.8252 367,326.8252 367,316.8252 L367,290.8252 " fill="#FFFFFF" style="stroke:#000000;stroke-width:1.5;"/><path d="M367,290.8252 C367,300.8252 385,300.8252 385,300.8252 C385,300.8252 403,300.8252 403,290.8252 " fill="none" style="stroke:#000000;stroke-width:1.5;"/><polygon fill="#000000" points="210.5,95.814,220.5,99.814,210.5,103.814,214.5,99.814" style="stroke:#000000;stroke-width:1.0;"/><line style="stroke:#000000;stroke-width:1.0;" x1="56" x2="216.5" y1="99.814" y2="99.814"/><text fill="#000000" font-family="Verdana" font-size="13" lengthAdjust="spacing" textLength="57" x="63" y="95.0845">Alte QRs</text><line style="stroke:#000000;stroke-width:1.0;" x1="222.5" x2="264.5" y1="129.6133" y2="129.6133"/><line style="stroke:#000000;stroke-width:1.0;" x1="264.5" x2="264.5" y1="129.6133" y2="142.6133"/><line style="stroke:#000000;stroke-width:1.0;" x1="223.5" x2="264.5" y1="142.6133" y2="142.6133"/><polygon fill="#000000" points="233.5,138.6133,223.5,142.6133,233.5,146.6133,229.5,142.6133" style="stroke:#000000;stroke-width:1.0;"/><text fill="#000000" font-family="Verdana" font-size="13" lengthAdjust="spacing" textLength="142" x="229.5" y="124.8838">L&#228;dt in populatable Q</text><line style="stroke:#000000;stroke-width:1.0;" x1="222.5" x2="264.5" y1="188.2119" y2="188.2119"/><line style="stroke:#000000;stroke-width:1.0;" x1="264.5" x2="264.5" y1="188.2119" y2="201.2119"/><line style="stroke:#000000;stroke-width:1.0;" x1="223.5" x2="264.5" y1="201.2119" y2="201.2119"/><polygon fill="#000000" points="233.5,197.2119,223.5,201.2119,233.5,205.2119,229.5,201.2119" style="stroke:#000000;stroke-width:1.0;"/><text fill="#000000" font-family="Verdana" font-size="13" lengthAdjust="spacing" textLength="87" x="229.5" y="167.6831">Wendet neue</text><text fill="#000000" font-family="Verdana" font-size="13" lengthAdjust="spacing" textLength="138" x="229.5" y="183.4824">Berechnungslogik an</text><polygon fill="#000000" points="373,242.8105,383,246.8105,373,250.8105,377,246.8105" style="stroke:#000000;stroke-width:1.0;"/><line style="stroke:#000000;stroke-width:1.0;" x1="222.5" x2="379" y1="246.8105" y2="246.8105"/><text fill="#000000" font-family="Verdana" font-size="13" lengthAdjust="spacing" textLength="84" x="229.5" y="226.2817">Aktualisierte</text><text fill="#000000" font-family="Verdana" font-size="13" lengthAdjust="spacing" textLength="87" x="229.5" y="242.0811">Observations</text><!--SRC=[RKzBJWCn3Dtd56QsY0kmgDI244YjghOB5eM59sDbh4cTA750tAStuM9asexKIkpyxFVpdVPq88WUMKmUM28cF42BTd0f5EcUWWy9ldjMCgP3nHOpGRCaX_O7dkkY0SnmngQgbIr758LcnIwXSX3OKVfYIn-oZo4MFxfukhVexGG-JouNtbNEo-lR5dOQ4fq9usJC9VrXDYdW4UPU2JRRRARLpNNvU-mKME2g06p-vxwJTAGWL6hZ1IMolHHnsGV70w3SgCP2O_gW1JrdfgHLjMvpvPoUpty0]--></g></svg>